%TF.GenerationSoftware,KiCad,Pcbnew,8.0.6*%
%TF.CreationDate,2024-11-29T18:38:07+11:00*%
%TF.ProjectId,pcb,7063622e-6b69-4636-9164-5f7063625858,rev?*%
%TF.SameCoordinates,Original*%
%TF.FileFunction,Legend,Top*%
%TF.FilePolarity,Positive*%
%FSLAX46Y46*%
G04 Gerber Fmt 4.6, Leading zero omitted, Abs format (unit mm)*
G04 Created by KiCad (PCBNEW 8.0.6) date 2024-11-29 18:38:07*
%MOMM*%
%LPD*%
G01*
G04 APERTURE LIST*
%ADD10C,0.150000*%
%ADD11C,0.500000*%
%ADD12C,0.100000*%
%ADD13C,0.120000*%
%ADD14C,0.203200*%
%ADD15C,0.700000*%
%ADD16C,0.152400*%
G04 APERTURE END LIST*
D10*
X56920000Y-30884819D02*
X56920000Y-29884819D01*
X56920000Y-29884819D02*
X57158095Y-29884819D01*
X57158095Y-29884819D02*
X57300952Y-29932438D01*
X57300952Y-29932438D02*
X57396190Y-30027676D01*
X57396190Y-30027676D02*
X57443809Y-30122914D01*
X57443809Y-30122914D02*
X57491428Y-30313390D01*
X57491428Y-30313390D02*
X57491428Y-30456247D01*
X57491428Y-30456247D02*
X57443809Y-30646723D01*
X57443809Y-30646723D02*
X57396190Y-30741961D01*
X57396190Y-30741961D02*
X57300952Y-30837200D01*
X57300952Y-30837200D02*
X57158095Y-30884819D01*
X57158095Y-30884819D02*
X56920000Y-30884819D01*
X57872381Y-30599104D02*
X58348571Y-30599104D01*
X57777143Y-30884819D02*
X58110476Y-29884819D01*
X58110476Y-29884819D02*
X58443809Y-30884819D01*
X58634286Y-29884819D02*
X59205714Y-29884819D01*
X58920000Y-30884819D02*
X58920000Y-29884819D01*
X59491429Y-30599104D02*
X59967619Y-30599104D01*
X59396191Y-30884819D02*
X59729524Y-29884819D01*
X59729524Y-29884819D02*
X60062857Y-30884819D01*
D11*
X59774385Y-43984238D02*
X60155338Y-43984238D01*
X60155338Y-43984238D02*
X60345814Y-44079476D01*
X60345814Y-44079476D02*
X60536290Y-44269952D01*
X60536290Y-44269952D02*
X60631528Y-44650904D01*
X60631528Y-44650904D02*
X60631528Y-45317571D01*
X60631528Y-45317571D02*
X60536290Y-45698523D01*
X60536290Y-45698523D02*
X60345814Y-45889000D01*
X60345814Y-45889000D02*
X60155338Y-45984238D01*
X60155338Y-45984238D02*
X59774385Y-45984238D01*
X59774385Y-45984238D02*
X59583909Y-45889000D01*
X59583909Y-45889000D02*
X59393433Y-45698523D01*
X59393433Y-45698523D02*
X59298195Y-45317571D01*
X59298195Y-45317571D02*
X59298195Y-44650904D01*
X59298195Y-44650904D02*
X59393433Y-44269952D01*
X59393433Y-44269952D02*
X59583909Y-44079476D01*
X59583909Y-44079476D02*
X59774385Y-43984238D01*
X62155338Y-44936619D02*
X61488671Y-44936619D01*
X61488671Y-45984238D02*
X61488671Y-43984238D01*
X61488671Y-43984238D02*
X62441052Y-43984238D01*
X63869624Y-44936619D02*
X63202957Y-44936619D01*
X63202957Y-45984238D02*
X63202957Y-43984238D01*
X63202957Y-43984238D02*
X64155338Y-43984238D01*
D10*
X53403523Y-29884819D02*
X52927333Y-29884819D01*
X52927333Y-29884819D02*
X52879714Y-30361009D01*
X52879714Y-30361009D02*
X52927333Y-30313390D01*
X52927333Y-30313390D02*
X53022571Y-30265771D01*
X53022571Y-30265771D02*
X53260666Y-30265771D01*
X53260666Y-30265771D02*
X53355904Y-30313390D01*
X53355904Y-30313390D02*
X53403523Y-30361009D01*
X53403523Y-30361009D02*
X53451142Y-30456247D01*
X53451142Y-30456247D02*
X53451142Y-30694342D01*
X53451142Y-30694342D02*
X53403523Y-30789580D01*
X53403523Y-30789580D02*
X53355904Y-30837200D01*
X53355904Y-30837200D02*
X53260666Y-30884819D01*
X53260666Y-30884819D02*
X53022571Y-30884819D01*
X53022571Y-30884819D02*
X52927333Y-30837200D01*
X52927333Y-30837200D02*
X52879714Y-30789580D01*
X53736857Y-29884819D02*
X54070190Y-30884819D01*
X54070190Y-30884819D02*
X54403523Y-29884819D01*
X62484095Y-29932438D02*
X62388857Y-29884819D01*
X62388857Y-29884819D02*
X62246000Y-29884819D01*
X62246000Y-29884819D02*
X62103143Y-29932438D01*
X62103143Y-29932438D02*
X62007905Y-30027676D01*
X62007905Y-30027676D02*
X61960286Y-30122914D01*
X61960286Y-30122914D02*
X61912667Y-30313390D01*
X61912667Y-30313390D02*
X61912667Y-30456247D01*
X61912667Y-30456247D02*
X61960286Y-30646723D01*
X61960286Y-30646723D02*
X62007905Y-30741961D01*
X62007905Y-30741961D02*
X62103143Y-30837200D01*
X62103143Y-30837200D02*
X62246000Y-30884819D01*
X62246000Y-30884819D02*
X62341238Y-30884819D01*
X62341238Y-30884819D02*
X62484095Y-30837200D01*
X62484095Y-30837200D02*
X62531714Y-30789580D01*
X62531714Y-30789580D02*
X62531714Y-30456247D01*
X62531714Y-30456247D02*
X62341238Y-30456247D01*
X62960286Y-30884819D02*
X62960286Y-29884819D01*
X62960286Y-29884819D02*
X63531714Y-30884819D01*
X63531714Y-30884819D02*
X63531714Y-29884819D01*
X64007905Y-30884819D02*
X64007905Y-29884819D01*
X64007905Y-29884819D02*
X64246000Y-29884819D01*
X64246000Y-29884819D02*
X64388857Y-29932438D01*
X64388857Y-29932438D02*
X64484095Y-30027676D01*
X64484095Y-30027676D02*
X64531714Y-30122914D01*
X64531714Y-30122914D02*
X64579333Y-30313390D01*
X64579333Y-30313390D02*
X64579333Y-30456247D01*
X64579333Y-30456247D02*
X64531714Y-30646723D01*
X64531714Y-30646723D02*
X64484095Y-30741961D01*
X64484095Y-30741961D02*
X64388857Y-30837200D01*
X64388857Y-30837200D02*
X64246000Y-30884819D01*
X64246000Y-30884819D02*
X64007905Y-30884819D01*
D11*
X53256089Y-43984238D02*
X53637042Y-43984238D01*
X53637042Y-43984238D02*
X53827518Y-44079476D01*
X53827518Y-44079476D02*
X54017994Y-44269952D01*
X54017994Y-44269952D02*
X54113232Y-44650904D01*
X54113232Y-44650904D02*
X54113232Y-45317571D01*
X54113232Y-45317571D02*
X54017994Y-45698523D01*
X54017994Y-45698523D02*
X53827518Y-45889000D01*
X53827518Y-45889000D02*
X53637042Y-45984238D01*
X53637042Y-45984238D02*
X53256089Y-45984238D01*
X53256089Y-45984238D02*
X53065613Y-45889000D01*
X53065613Y-45889000D02*
X52875137Y-45698523D01*
X52875137Y-45698523D02*
X52779899Y-45317571D01*
X52779899Y-45317571D02*
X52779899Y-44650904D01*
X52779899Y-44650904D02*
X52875137Y-44269952D01*
X52875137Y-44269952D02*
X53065613Y-44079476D01*
X53065613Y-44079476D02*
X53256089Y-43984238D01*
X54970375Y-45984238D02*
X54970375Y-43984238D01*
X54970375Y-43984238D02*
X56113232Y-45984238D01*
X56113232Y-45984238D02*
X56113232Y-43984238D01*
D10*
X76965350Y-30268152D02*
X76965350Y-30934819D01*
X76727255Y-29887200D02*
X76489160Y-30601485D01*
X76489160Y-30601485D02*
X77108207Y-30601485D01*
X77489160Y-30934819D02*
X77489160Y-29934819D01*
X78060588Y-30934819D02*
X77632017Y-30363390D01*
X78060588Y-29934819D02*
X77489160Y-30506247D01*
X78393922Y-29934819D02*
X79060588Y-29934819D01*
X79060588Y-29934819D02*
X78632017Y-30934819D01*
X72223333Y-30934819D02*
X71890000Y-30458628D01*
X71651905Y-30934819D02*
X71651905Y-29934819D01*
X71651905Y-29934819D02*
X72032857Y-29934819D01*
X72032857Y-29934819D02*
X72128095Y-29982438D01*
X72128095Y-29982438D02*
X72175714Y-30030057D01*
X72175714Y-30030057D02*
X72223333Y-30125295D01*
X72223333Y-30125295D02*
X72223333Y-30268152D01*
X72223333Y-30268152D02*
X72175714Y-30363390D01*
X72175714Y-30363390D02*
X72128095Y-30411009D01*
X72128095Y-30411009D02*
X72032857Y-30458628D01*
X72032857Y-30458628D02*
X71651905Y-30458628D01*
X72556667Y-29934819D02*
X73223333Y-29934819D01*
X73223333Y-29934819D02*
X72794762Y-30934819D01*
X65762200Y-41973332D02*
X65809819Y-41830475D01*
X65809819Y-41830475D02*
X65809819Y-41592380D01*
X65809819Y-41592380D02*
X65762200Y-41497142D01*
X65762200Y-41497142D02*
X65714580Y-41449523D01*
X65714580Y-41449523D02*
X65619342Y-41401904D01*
X65619342Y-41401904D02*
X65524104Y-41401904D01*
X65524104Y-41401904D02*
X65428866Y-41449523D01*
X65428866Y-41449523D02*
X65381247Y-41497142D01*
X65381247Y-41497142D02*
X65333628Y-41592380D01*
X65333628Y-41592380D02*
X65286009Y-41782856D01*
X65286009Y-41782856D02*
X65238390Y-41878094D01*
X65238390Y-41878094D02*
X65190771Y-41925713D01*
X65190771Y-41925713D02*
X65095533Y-41973332D01*
X65095533Y-41973332D02*
X65000295Y-41973332D01*
X65000295Y-41973332D02*
X64905057Y-41925713D01*
X64905057Y-41925713D02*
X64857438Y-41878094D01*
X64857438Y-41878094D02*
X64809819Y-41782856D01*
X64809819Y-41782856D02*
X64809819Y-41544761D01*
X64809819Y-41544761D02*
X64857438Y-41401904D01*
X64809819Y-41068570D02*
X65809819Y-40830475D01*
X65809819Y-40830475D02*
X65095533Y-40639999D01*
X65095533Y-40639999D02*
X65809819Y-40449523D01*
X65809819Y-40449523D02*
X64809819Y-40211428D01*
X65143152Y-39401904D02*
X65809819Y-39401904D01*
X64762200Y-39639999D02*
X65476485Y-39878094D01*
X65476485Y-39878094D02*
X65476485Y-39259047D01*
D11*
X52875137Y-37094238D02*
X52875137Y-35094238D01*
X52875137Y-35094238D02*
X53351327Y-35094238D01*
X53351327Y-35094238D02*
X53637042Y-35189476D01*
X53637042Y-35189476D02*
X53827518Y-35379952D01*
X53827518Y-35379952D02*
X53922756Y-35570428D01*
X53922756Y-35570428D02*
X54017994Y-35951380D01*
X54017994Y-35951380D02*
X54017994Y-36237095D01*
X54017994Y-36237095D02*
X53922756Y-36618047D01*
X53922756Y-36618047D02*
X53827518Y-36808523D01*
X53827518Y-36808523D02*
X53637042Y-36999000D01*
X53637042Y-36999000D02*
X53351327Y-37094238D01*
X53351327Y-37094238D02*
X52875137Y-37094238D01*
X54779899Y-36999000D02*
X55065613Y-37094238D01*
X55065613Y-37094238D02*
X55541804Y-37094238D01*
X55541804Y-37094238D02*
X55732280Y-36999000D01*
X55732280Y-36999000D02*
X55827518Y-36903761D01*
X55827518Y-36903761D02*
X55922756Y-36713285D01*
X55922756Y-36713285D02*
X55922756Y-36522809D01*
X55922756Y-36522809D02*
X55827518Y-36332333D01*
X55827518Y-36332333D02*
X55732280Y-36237095D01*
X55732280Y-36237095D02*
X55541804Y-36141857D01*
X55541804Y-36141857D02*
X55160851Y-36046619D01*
X55160851Y-36046619D02*
X54970375Y-35951380D01*
X54970375Y-35951380D02*
X54875137Y-35856142D01*
X54875137Y-35856142D02*
X54779899Y-35665666D01*
X54779899Y-35665666D02*
X54779899Y-35475190D01*
X54779899Y-35475190D02*
X54875137Y-35284714D01*
X54875137Y-35284714D02*
X54970375Y-35189476D01*
X54970375Y-35189476D02*
X55160851Y-35094238D01*
X55160851Y-35094238D02*
X55637042Y-35094238D01*
X55637042Y-35094238D02*
X55922756Y-35189476D01*
X56494185Y-35094238D02*
X57637042Y-35094238D01*
X57065613Y-37094238D02*
X57065613Y-35094238D01*
D10*
X82188207Y-44904819D02*
X81854874Y-44428628D01*
X81616779Y-44904819D02*
X81616779Y-43904819D01*
X81616779Y-43904819D02*
X81997731Y-43904819D01*
X81997731Y-43904819D02*
X82092969Y-43952438D01*
X82092969Y-43952438D02*
X82140588Y-44000057D01*
X82140588Y-44000057D02*
X82188207Y-44095295D01*
X82188207Y-44095295D02*
X82188207Y-44238152D01*
X82188207Y-44238152D02*
X82140588Y-44333390D01*
X82140588Y-44333390D02*
X82092969Y-44381009D01*
X82092969Y-44381009D02*
X81997731Y-44428628D01*
X81997731Y-44428628D02*
X81616779Y-44428628D01*
X82473922Y-43904819D02*
X82807255Y-44904819D01*
X82807255Y-44904819D02*
X83140588Y-43904819D01*
X83378684Y-43904819D02*
X83997731Y-43904819D01*
X83997731Y-43904819D02*
X83664398Y-44285771D01*
X83664398Y-44285771D02*
X83807255Y-44285771D01*
X83807255Y-44285771D02*
X83902493Y-44333390D01*
X83902493Y-44333390D02*
X83950112Y-44381009D01*
X83950112Y-44381009D02*
X83997731Y-44476247D01*
X83997731Y-44476247D02*
X83997731Y-44714342D01*
X83997731Y-44714342D02*
X83950112Y-44809580D01*
X83950112Y-44809580D02*
X83902493Y-44857200D01*
X83902493Y-44857200D02*
X83807255Y-44904819D01*
X83807255Y-44904819D02*
X83521541Y-44904819D01*
X83521541Y-44904819D02*
X83426303Y-44857200D01*
X83426303Y-44857200D02*
X83378684Y-44809580D01*
X84616779Y-43904819D02*
X84712017Y-43904819D01*
X84712017Y-43904819D02*
X84807255Y-43952438D01*
X84807255Y-43952438D02*
X84854874Y-44000057D01*
X84854874Y-44000057D02*
X84902493Y-44095295D01*
X84902493Y-44095295D02*
X84950112Y-44285771D01*
X84950112Y-44285771D02*
X84950112Y-44523866D01*
X84950112Y-44523866D02*
X84902493Y-44714342D01*
X84902493Y-44714342D02*
X84854874Y-44809580D01*
X84854874Y-44809580D02*
X84807255Y-44857200D01*
X84807255Y-44857200D02*
X84712017Y-44904819D01*
X84712017Y-44904819D02*
X84616779Y-44904819D01*
X84616779Y-44904819D02*
X84521541Y-44857200D01*
X84521541Y-44857200D02*
X84473922Y-44809580D01*
X84473922Y-44809580D02*
X84426303Y-44714342D01*
X84426303Y-44714342D02*
X84378684Y-44523866D01*
X84378684Y-44523866D02*
X84378684Y-44285771D01*
X84378684Y-44285771D02*
X84426303Y-44095295D01*
X84426303Y-44095295D02*
X84473922Y-44000057D01*
X84473922Y-44000057D02*
X84521541Y-43952438D01*
X84521541Y-43952438D02*
X84616779Y-43904819D01*
X85331065Y-44000057D02*
X85378684Y-43952438D01*
X85378684Y-43952438D02*
X85473922Y-43904819D01*
X85473922Y-43904819D02*
X85712017Y-43904819D01*
X85712017Y-43904819D02*
X85807255Y-43952438D01*
X85807255Y-43952438D02*
X85854874Y-44000057D01*
X85854874Y-44000057D02*
X85902493Y-44095295D01*
X85902493Y-44095295D02*
X85902493Y-44190533D01*
X85902493Y-44190533D02*
X85854874Y-44333390D01*
X85854874Y-44333390D02*
X85283446Y-44904819D01*
X85283446Y-44904819D02*
X85902493Y-44904819D01*
X86473922Y-44333390D02*
X86378684Y-44285771D01*
X86378684Y-44285771D02*
X86331065Y-44238152D01*
X86331065Y-44238152D02*
X86283446Y-44142914D01*
X86283446Y-44142914D02*
X86283446Y-44095295D01*
X86283446Y-44095295D02*
X86331065Y-44000057D01*
X86331065Y-44000057D02*
X86378684Y-43952438D01*
X86378684Y-43952438D02*
X86473922Y-43904819D01*
X86473922Y-43904819D02*
X86664398Y-43904819D01*
X86664398Y-43904819D02*
X86759636Y-43952438D01*
X86759636Y-43952438D02*
X86807255Y-44000057D01*
X86807255Y-44000057D02*
X86854874Y-44095295D01*
X86854874Y-44095295D02*
X86854874Y-44142914D01*
X86854874Y-44142914D02*
X86807255Y-44238152D01*
X86807255Y-44238152D02*
X86759636Y-44285771D01*
X86759636Y-44285771D02*
X86664398Y-44333390D01*
X86664398Y-44333390D02*
X86473922Y-44333390D01*
X86473922Y-44333390D02*
X86378684Y-44381009D01*
X86378684Y-44381009D02*
X86331065Y-44428628D01*
X86331065Y-44428628D02*
X86283446Y-44523866D01*
X86283446Y-44523866D02*
X86283446Y-44714342D01*
X86283446Y-44714342D02*
X86331065Y-44809580D01*
X86331065Y-44809580D02*
X86378684Y-44857200D01*
X86378684Y-44857200D02*
X86473922Y-44904819D01*
X86473922Y-44904819D02*
X86664398Y-44904819D01*
X86664398Y-44904819D02*
X86759636Y-44857200D01*
X86759636Y-44857200D02*
X86807255Y-44809580D01*
X86807255Y-44809580D02*
X86854874Y-44714342D01*
X86854874Y-44714342D02*
X86854874Y-44523866D01*
X86854874Y-44523866D02*
X86807255Y-44428628D01*
X86807255Y-44428628D02*
X86759636Y-44381009D01*
X86759636Y-44381009D02*
X86664398Y-44333390D01*
X81569160Y-26839104D02*
X82045350Y-26839104D01*
X81473922Y-27124819D02*
X81807255Y-26124819D01*
X81807255Y-26124819D02*
X82140588Y-27124819D01*
X82997731Y-27124819D02*
X82426303Y-27124819D01*
X82712017Y-27124819D02*
X82712017Y-26124819D01*
X82712017Y-26124819D02*
X82616779Y-26267676D01*
X82616779Y-26267676D02*
X82521541Y-26362914D01*
X82521541Y-26362914D02*
X82426303Y-26410533D01*
X46077200Y-48323332D02*
X46124819Y-48180475D01*
X46124819Y-48180475D02*
X46124819Y-47942380D01*
X46124819Y-47942380D02*
X46077200Y-47847142D01*
X46077200Y-47847142D02*
X46029580Y-47799523D01*
X46029580Y-47799523D02*
X45934342Y-47751904D01*
X45934342Y-47751904D02*
X45839104Y-47751904D01*
X45839104Y-47751904D02*
X45743866Y-47799523D01*
X45743866Y-47799523D02*
X45696247Y-47847142D01*
X45696247Y-47847142D02*
X45648628Y-47942380D01*
X45648628Y-47942380D02*
X45601009Y-48132856D01*
X45601009Y-48132856D02*
X45553390Y-48228094D01*
X45553390Y-48228094D02*
X45505771Y-48275713D01*
X45505771Y-48275713D02*
X45410533Y-48323332D01*
X45410533Y-48323332D02*
X45315295Y-48323332D01*
X45315295Y-48323332D02*
X45220057Y-48275713D01*
X45220057Y-48275713D02*
X45172438Y-48228094D01*
X45172438Y-48228094D02*
X45124819Y-48132856D01*
X45124819Y-48132856D02*
X45124819Y-47894761D01*
X45124819Y-47894761D02*
X45172438Y-47751904D01*
X45124819Y-47418570D02*
X46124819Y-47180475D01*
X46124819Y-47180475D02*
X45410533Y-46989999D01*
X45410533Y-46989999D02*
X46124819Y-46799523D01*
X46124819Y-46799523D02*
X45124819Y-46561428D01*
X45220057Y-46228094D02*
X45172438Y-46180475D01*
X45172438Y-46180475D02*
X45124819Y-46085237D01*
X45124819Y-46085237D02*
X45124819Y-45847142D01*
X45124819Y-45847142D02*
X45172438Y-45751904D01*
X45172438Y-45751904D02*
X45220057Y-45704285D01*
X45220057Y-45704285D02*
X45315295Y-45656666D01*
X45315295Y-45656666D02*
X45410533Y-45656666D01*
X45410533Y-45656666D02*
X45553390Y-45704285D01*
X45553390Y-45704285D02*
X46124819Y-46275713D01*
X46124819Y-46275713D02*
X46124819Y-45656666D01*
D11*
X27791619Y-54989999D02*
X27886857Y-54704285D01*
X27886857Y-54704285D02*
X27982095Y-54609047D01*
X27982095Y-54609047D02*
X28172571Y-54513809D01*
X28172571Y-54513809D02*
X28458285Y-54513809D01*
X28458285Y-54513809D02*
X28648761Y-54609047D01*
X28648761Y-54609047D02*
X28744000Y-54704285D01*
X28744000Y-54704285D02*
X28839238Y-54894761D01*
X28839238Y-54894761D02*
X28839238Y-55656666D01*
X28839238Y-55656666D02*
X26839238Y-55656666D01*
X26839238Y-55656666D02*
X26839238Y-54989999D01*
X26839238Y-54989999D02*
X26934476Y-54799523D01*
X26934476Y-54799523D02*
X27029714Y-54704285D01*
X27029714Y-54704285D02*
X27220190Y-54609047D01*
X27220190Y-54609047D02*
X27410666Y-54609047D01*
X27410666Y-54609047D02*
X27601142Y-54704285D01*
X27601142Y-54704285D02*
X27696380Y-54799523D01*
X27696380Y-54799523D02*
X27791619Y-54989999D01*
X27791619Y-54989999D02*
X27791619Y-55656666D01*
X28839238Y-52513809D02*
X27886857Y-53180476D01*
X28839238Y-53656666D02*
X26839238Y-53656666D01*
X26839238Y-53656666D02*
X26839238Y-52894761D01*
X26839238Y-52894761D02*
X26934476Y-52704285D01*
X26934476Y-52704285D02*
X27029714Y-52609047D01*
X27029714Y-52609047D02*
X27220190Y-52513809D01*
X27220190Y-52513809D02*
X27505904Y-52513809D01*
X27505904Y-52513809D02*
X27696380Y-52609047D01*
X27696380Y-52609047D02*
X27791619Y-52704285D01*
X27791619Y-52704285D02*
X27886857Y-52894761D01*
X27886857Y-52894761D02*
X27886857Y-53656666D01*
X28839238Y-51656666D02*
X26839238Y-51656666D01*
X26934476Y-49656666D02*
X26839238Y-49847142D01*
X26839238Y-49847142D02*
X26839238Y-50132856D01*
X26839238Y-50132856D02*
X26934476Y-50418571D01*
X26934476Y-50418571D02*
X27124952Y-50609047D01*
X27124952Y-50609047D02*
X27315428Y-50704285D01*
X27315428Y-50704285D02*
X27696380Y-50799523D01*
X27696380Y-50799523D02*
X27982095Y-50799523D01*
X27982095Y-50799523D02*
X28363047Y-50704285D01*
X28363047Y-50704285D02*
X28553523Y-50609047D01*
X28553523Y-50609047D02*
X28744000Y-50418571D01*
X28744000Y-50418571D02*
X28839238Y-50132856D01*
X28839238Y-50132856D02*
X28839238Y-49942380D01*
X28839238Y-49942380D02*
X28744000Y-49656666D01*
X28744000Y-49656666D02*
X28648761Y-49561428D01*
X28648761Y-49561428D02*
X27982095Y-49561428D01*
X27982095Y-49561428D02*
X27982095Y-49942380D01*
X28839238Y-48704285D02*
X26839238Y-48704285D01*
X27791619Y-48704285D02*
X27791619Y-47561428D01*
X28839238Y-47561428D02*
X26839238Y-47561428D01*
X26839238Y-46894761D02*
X26839238Y-45751904D01*
X28839238Y-46323333D02*
X26839238Y-46323333D01*
X28839238Y-45085237D02*
X26839238Y-45085237D01*
X26839238Y-45085237D02*
X28839238Y-43942380D01*
X28839238Y-43942380D02*
X26839238Y-43942380D01*
X27791619Y-42989999D02*
X27791619Y-42323332D01*
X28839238Y-42037618D02*
X28839238Y-42989999D01*
X28839238Y-42989999D02*
X26839238Y-42989999D01*
X26839238Y-42989999D02*
X26839238Y-42037618D01*
X28744000Y-41275713D02*
X28839238Y-40989999D01*
X28839238Y-40989999D02*
X28839238Y-40513808D01*
X28839238Y-40513808D02*
X28744000Y-40323332D01*
X28744000Y-40323332D02*
X28648761Y-40228094D01*
X28648761Y-40228094D02*
X28458285Y-40132856D01*
X28458285Y-40132856D02*
X28267809Y-40132856D01*
X28267809Y-40132856D02*
X28077333Y-40228094D01*
X28077333Y-40228094D02*
X27982095Y-40323332D01*
X27982095Y-40323332D02*
X27886857Y-40513808D01*
X27886857Y-40513808D02*
X27791619Y-40894761D01*
X27791619Y-40894761D02*
X27696380Y-41085237D01*
X27696380Y-41085237D02*
X27601142Y-41180475D01*
X27601142Y-41180475D02*
X27410666Y-41275713D01*
X27410666Y-41275713D02*
X27220190Y-41275713D01*
X27220190Y-41275713D02*
X27029714Y-41180475D01*
X27029714Y-41180475D02*
X26934476Y-41085237D01*
X26934476Y-41085237D02*
X26839238Y-40894761D01*
X26839238Y-40894761D02*
X26839238Y-40418570D01*
X26839238Y-40418570D02*
X26934476Y-40132856D01*
X28744000Y-39370951D02*
X28839238Y-39085237D01*
X28839238Y-39085237D02*
X28839238Y-38609046D01*
X28839238Y-38609046D02*
X28744000Y-38418570D01*
X28744000Y-38418570D02*
X28648761Y-38323332D01*
X28648761Y-38323332D02*
X28458285Y-38228094D01*
X28458285Y-38228094D02*
X28267809Y-38228094D01*
X28267809Y-38228094D02*
X28077333Y-38323332D01*
X28077333Y-38323332D02*
X27982095Y-38418570D01*
X27982095Y-38418570D02*
X27886857Y-38609046D01*
X27886857Y-38609046D02*
X27791619Y-38989999D01*
X27791619Y-38989999D02*
X27696380Y-39180475D01*
X27696380Y-39180475D02*
X27601142Y-39275713D01*
X27601142Y-39275713D02*
X27410666Y-39370951D01*
X27410666Y-39370951D02*
X27220190Y-39370951D01*
X27220190Y-39370951D02*
X27029714Y-39275713D01*
X27029714Y-39275713D02*
X26934476Y-39180475D01*
X26934476Y-39180475D02*
X26839238Y-38989999D01*
X26839238Y-38989999D02*
X26839238Y-38513808D01*
X26839238Y-38513808D02*
X26934476Y-38228094D01*
D10*
X49968152Y-63015714D02*
X50634819Y-63015714D01*
X49587200Y-63253809D02*
X50301485Y-63491904D01*
X50301485Y-63491904D02*
X50301485Y-62872857D01*
X50634819Y-62491904D02*
X49634819Y-62491904D01*
X50634819Y-61920476D02*
X50063390Y-62349047D01*
X49634819Y-61920476D02*
X50206247Y-62491904D01*
X49634819Y-61587142D02*
X49634819Y-60920476D01*
X49634819Y-60920476D02*
X50634819Y-61349047D01*
X48714819Y-62396666D02*
X48238628Y-62729999D01*
X48714819Y-62968094D02*
X47714819Y-62968094D01*
X47714819Y-62968094D02*
X47714819Y-62587142D01*
X47714819Y-62587142D02*
X47762438Y-62491904D01*
X47762438Y-62491904D02*
X47810057Y-62444285D01*
X47810057Y-62444285D02*
X47905295Y-62396666D01*
X47905295Y-62396666D02*
X48048152Y-62396666D01*
X48048152Y-62396666D02*
X48143390Y-62444285D01*
X48143390Y-62444285D02*
X48191009Y-62491904D01*
X48191009Y-62491904D02*
X48238628Y-62587142D01*
X48238628Y-62587142D02*
X48238628Y-62968094D01*
X47714819Y-62063332D02*
X47714819Y-61444285D01*
X47714819Y-61444285D02*
X48095771Y-61777618D01*
X48095771Y-61777618D02*
X48095771Y-61634761D01*
X48095771Y-61634761D02*
X48143390Y-61539523D01*
X48143390Y-61539523D02*
X48191009Y-61491904D01*
X48191009Y-61491904D02*
X48286247Y-61444285D01*
X48286247Y-61444285D02*
X48524342Y-61444285D01*
X48524342Y-61444285D02*
X48619580Y-61491904D01*
X48619580Y-61491904D02*
X48667200Y-61539523D01*
X48667200Y-61539523D02*
X48714819Y-61634761D01*
X48714819Y-61634761D02*
X48714819Y-61920475D01*
X48714819Y-61920475D02*
X48667200Y-62015713D01*
X48667200Y-62015713D02*
X48619580Y-62063332D01*
X76965350Y-40428152D02*
X76965350Y-41094819D01*
X76727255Y-40047200D02*
X76489160Y-40761485D01*
X76489160Y-40761485D02*
X77108207Y-40761485D01*
X77489160Y-41094819D02*
X77489160Y-40094819D01*
X78060588Y-41094819D02*
X77632017Y-40523390D01*
X78060588Y-40094819D02*
X77489160Y-40666247D01*
X78393922Y-40094819D02*
X79060588Y-40094819D01*
X79060588Y-40094819D02*
X78632017Y-41094819D01*
X72223333Y-41094819D02*
X71890000Y-40618628D01*
X71651905Y-41094819D02*
X71651905Y-40094819D01*
X71651905Y-40094819D02*
X72032857Y-40094819D01*
X72032857Y-40094819D02*
X72128095Y-40142438D01*
X72128095Y-40142438D02*
X72175714Y-40190057D01*
X72175714Y-40190057D02*
X72223333Y-40285295D01*
X72223333Y-40285295D02*
X72223333Y-40428152D01*
X72223333Y-40428152D02*
X72175714Y-40523390D01*
X72175714Y-40523390D02*
X72128095Y-40571009D01*
X72128095Y-40571009D02*
X72032857Y-40618628D01*
X72032857Y-40618628D02*
X71651905Y-40618628D01*
X73080476Y-40428152D02*
X73080476Y-41094819D01*
X72842381Y-40047200D02*
X72604286Y-40761485D01*
X72604286Y-40761485D02*
X73223333Y-40761485D01*
X58086666Y-27394819D02*
X58086666Y-28109104D01*
X58086666Y-28109104D02*
X58039047Y-28251961D01*
X58039047Y-28251961D02*
X57943809Y-28347200D01*
X57943809Y-28347200D02*
X57800952Y-28394819D01*
X57800952Y-28394819D02*
X57705714Y-28394819D01*
X59086666Y-28394819D02*
X58515238Y-28394819D01*
X58800952Y-28394819D02*
X58800952Y-27394819D01*
X58800952Y-27394819D02*
X58705714Y-27537676D01*
X58705714Y-27537676D02*
X58610476Y-27632914D01*
X58610476Y-27632914D02*
X58515238Y-27680533D01*
X49968152Y-33725714D02*
X50634819Y-33725714D01*
X49587200Y-33963809D02*
X50301485Y-34201904D01*
X50301485Y-34201904D02*
X50301485Y-33582857D01*
X50634819Y-33201904D02*
X49634819Y-33201904D01*
X50634819Y-32630476D02*
X50063390Y-33059047D01*
X49634819Y-32630476D02*
X50206247Y-33201904D01*
X49634819Y-32297142D02*
X49634819Y-31630476D01*
X49634819Y-31630476D02*
X50634819Y-32059047D01*
X48714819Y-33106666D02*
X48238628Y-33439999D01*
X48714819Y-33678094D02*
X47714819Y-33678094D01*
X47714819Y-33678094D02*
X47714819Y-33297142D01*
X47714819Y-33297142D02*
X47762438Y-33201904D01*
X47762438Y-33201904D02*
X47810057Y-33154285D01*
X47810057Y-33154285D02*
X47905295Y-33106666D01*
X47905295Y-33106666D02*
X48048152Y-33106666D01*
X48048152Y-33106666D02*
X48143390Y-33154285D01*
X48143390Y-33154285D02*
X48191009Y-33201904D01*
X48191009Y-33201904D02*
X48238628Y-33297142D01*
X48238628Y-33297142D02*
X48238628Y-33678094D01*
X48714819Y-32154285D02*
X48714819Y-32725713D01*
X48714819Y-32439999D02*
X47714819Y-32439999D01*
X47714819Y-32439999D02*
X47857676Y-32535237D01*
X47857676Y-32535237D02*
X47952914Y-32630475D01*
X47952914Y-32630475D02*
X48000533Y-32725713D01*
X76965350Y-37888152D02*
X76965350Y-38554819D01*
X76727255Y-37507200D02*
X76489160Y-38221485D01*
X76489160Y-38221485D02*
X77108207Y-38221485D01*
X77489160Y-38554819D02*
X77489160Y-37554819D01*
X78060588Y-38554819D02*
X77632017Y-37983390D01*
X78060588Y-37554819D02*
X77489160Y-38126247D01*
X78393922Y-37554819D02*
X79060588Y-37554819D01*
X79060588Y-37554819D02*
X78632017Y-38554819D01*
X72223333Y-38554819D02*
X71890000Y-38078628D01*
X71651905Y-38554819D02*
X71651905Y-37554819D01*
X71651905Y-37554819D02*
X72032857Y-37554819D01*
X72032857Y-37554819D02*
X72128095Y-37602438D01*
X72128095Y-37602438D02*
X72175714Y-37650057D01*
X72175714Y-37650057D02*
X72223333Y-37745295D01*
X72223333Y-37745295D02*
X72223333Y-37888152D01*
X72223333Y-37888152D02*
X72175714Y-37983390D01*
X72175714Y-37983390D02*
X72128095Y-38031009D01*
X72128095Y-38031009D02*
X72032857Y-38078628D01*
X72032857Y-38078628D02*
X71651905Y-38078628D01*
X73128095Y-37554819D02*
X72651905Y-37554819D01*
X72651905Y-37554819D02*
X72604286Y-38031009D01*
X72604286Y-38031009D02*
X72651905Y-37983390D01*
X72651905Y-37983390D02*
X72747143Y-37935771D01*
X72747143Y-37935771D02*
X72985238Y-37935771D01*
X72985238Y-37935771D02*
X73080476Y-37983390D01*
X73080476Y-37983390D02*
X73128095Y-38031009D01*
X73128095Y-38031009D02*
X73175714Y-38126247D01*
X73175714Y-38126247D02*
X73175714Y-38364342D01*
X73175714Y-38364342D02*
X73128095Y-38459580D01*
X73128095Y-38459580D02*
X73080476Y-38507200D01*
X73080476Y-38507200D02*
X72985238Y-38554819D01*
X72985238Y-38554819D02*
X72747143Y-38554819D01*
X72747143Y-38554819D02*
X72651905Y-38507200D01*
X72651905Y-38507200D02*
X72604286Y-38459580D01*
X54044819Y-50291904D02*
X54854342Y-50291904D01*
X54854342Y-50291904D02*
X54949580Y-50244285D01*
X54949580Y-50244285D02*
X54997200Y-50196666D01*
X54997200Y-50196666D02*
X55044819Y-50101428D01*
X55044819Y-50101428D02*
X55044819Y-49910952D01*
X55044819Y-49910952D02*
X54997200Y-49815714D01*
X54997200Y-49815714D02*
X54949580Y-49768095D01*
X54949580Y-49768095D02*
X54854342Y-49720476D01*
X54854342Y-49720476D02*
X54044819Y-49720476D01*
X55044819Y-48720476D02*
X55044819Y-49291904D01*
X55044819Y-49006190D02*
X54044819Y-49006190D01*
X54044819Y-49006190D02*
X54187676Y-49101428D01*
X54187676Y-49101428D02*
X54282914Y-49196666D01*
X54282914Y-49196666D02*
X54330533Y-49291904D01*
X55064819Y-65594999D02*
X54064819Y-65594999D01*
X54064819Y-65594999D02*
X54064819Y-65214047D01*
X54064819Y-65214047D02*
X54112438Y-65118809D01*
X54112438Y-65118809D02*
X54160057Y-65071190D01*
X54160057Y-65071190D02*
X54255295Y-65023571D01*
X54255295Y-65023571D02*
X54398152Y-65023571D01*
X54398152Y-65023571D02*
X54493390Y-65071190D01*
X54493390Y-65071190D02*
X54541009Y-65118809D01*
X54541009Y-65118809D02*
X54588628Y-65214047D01*
X54588628Y-65214047D02*
X54588628Y-65594999D01*
X55064819Y-64023571D02*
X54588628Y-64356904D01*
X55064819Y-64594999D02*
X54064819Y-64594999D01*
X54064819Y-64594999D02*
X54064819Y-64214047D01*
X54064819Y-64214047D02*
X54112438Y-64118809D01*
X54112438Y-64118809D02*
X54160057Y-64071190D01*
X54160057Y-64071190D02*
X54255295Y-64023571D01*
X54255295Y-64023571D02*
X54398152Y-64023571D01*
X54398152Y-64023571D02*
X54493390Y-64071190D01*
X54493390Y-64071190D02*
X54541009Y-64118809D01*
X54541009Y-64118809D02*
X54588628Y-64214047D01*
X54588628Y-64214047D02*
X54588628Y-64594999D01*
X54064819Y-63404523D02*
X54064819Y-63214047D01*
X54064819Y-63214047D02*
X54112438Y-63118809D01*
X54112438Y-63118809D02*
X54207676Y-63023571D01*
X54207676Y-63023571D02*
X54398152Y-62975952D01*
X54398152Y-62975952D02*
X54731485Y-62975952D01*
X54731485Y-62975952D02*
X54921961Y-63023571D01*
X54921961Y-63023571D02*
X55017200Y-63118809D01*
X55017200Y-63118809D02*
X55064819Y-63214047D01*
X55064819Y-63214047D02*
X55064819Y-63404523D01*
X55064819Y-63404523D02*
X55017200Y-63499761D01*
X55017200Y-63499761D02*
X54921961Y-63594999D01*
X54921961Y-63594999D02*
X54731485Y-63642618D01*
X54731485Y-63642618D02*
X54398152Y-63642618D01*
X54398152Y-63642618D02*
X54207676Y-63594999D01*
X54207676Y-63594999D02*
X54112438Y-63499761D01*
X54112438Y-63499761D02*
X54064819Y-63404523D01*
X55064819Y-61785475D02*
X54064819Y-61785475D01*
X54064819Y-61785475D02*
X54779104Y-61452142D01*
X54779104Y-61452142D02*
X54064819Y-61118809D01*
X54064819Y-61118809D02*
X55064819Y-61118809D01*
X55064819Y-60642618D02*
X54064819Y-60642618D01*
X54969580Y-59595000D02*
X55017200Y-59642619D01*
X55017200Y-59642619D02*
X55064819Y-59785476D01*
X55064819Y-59785476D02*
X55064819Y-59880714D01*
X55064819Y-59880714D02*
X55017200Y-60023571D01*
X55017200Y-60023571D02*
X54921961Y-60118809D01*
X54921961Y-60118809D02*
X54826723Y-60166428D01*
X54826723Y-60166428D02*
X54636247Y-60214047D01*
X54636247Y-60214047D02*
X54493390Y-60214047D01*
X54493390Y-60214047D02*
X54302914Y-60166428D01*
X54302914Y-60166428D02*
X54207676Y-60118809D01*
X54207676Y-60118809D02*
X54112438Y-60023571D01*
X54112438Y-60023571D02*
X54064819Y-59880714D01*
X54064819Y-59880714D02*
X54064819Y-59785476D01*
X54064819Y-59785476D02*
X54112438Y-59642619D01*
X54112438Y-59642619D02*
X54160057Y-59595000D01*
X55064819Y-58595000D02*
X54588628Y-58928333D01*
X55064819Y-59166428D02*
X54064819Y-59166428D01*
X54064819Y-59166428D02*
X54064819Y-58785476D01*
X54064819Y-58785476D02*
X54112438Y-58690238D01*
X54112438Y-58690238D02*
X54160057Y-58642619D01*
X54160057Y-58642619D02*
X54255295Y-58595000D01*
X54255295Y-58595000D02*
X54398152Y-58595000D01*
X54398152Y-58595000D02*
X54493390Y-58642619D01*
X54493390Y-58642619D02*
X54541009Y-58690238D01*
X54541009Y-58690238D02*
X54588628Y-58785476D01*
X54588628Y-58785476D02*
X54588628Y-59166428D01*
X54064819Y-57975952D02*
X54064819Y-57785476D01*
X54064819Y-57785476D02*
X54112438Y-57690238D01*
X54112438Y-57690238D02*
X54207676Y-57595000D01*
X54207676Y-57595000D02*
X54398152Y-57547381D01*
X54398152Y-57547381D02*
X54731485Y-57547381D01*
X54731485Y-57547381D02*
X54921961Y-57595000D01*
X54921961Y-57595000D02*
X55017200Y-57690238D01*
X55017200Y-57690238D02*
X55064819Y-57785476D01*
X55064819Y-57785476D02*
X55064819Y-57975952D01*
X55064819Y-57975952D02*
X55017200Y-58071190D01*
X55017200Y-58071190D02*
X54921961Y-58166428D01*
X54921961Y-58166428D02*
X54731485Y-58214047D01*
X54731485Y-58214047D02*
X54398152Y-58214047D01*
X54398152Y-58214047D02*
X54207676Y-58166428D01*
X54207676Y-58166428D02*
X54112438Y-58071190D01*
X54112438Y-58071190D02*
X54064819Y-57975952D01*
X46077200Y-34353332D02*
X46124819Y-34210475D01*
X46124819Y-34210475D02*
X46124819Y-33972380D01*
X46124819Y-33972380D02*
X46077200Y-33877142D01*
X46077200Y-33877142D02*
X46029580Y-33829523D01*
X46029580Y-33829523D02*
X45934342Y-33781904D01*
X45934342Y-33781904D02*
X45839104Y-33781904D01*
X45839104Y-33781904D02*
X45743866Y-33829523D01*
X45743866Y-33829523D02*
X45696247Y-33877142D01*
X45696247Y-33877142D02*
X45648628Y-33972380D01*
X45648628Y-33972380D02*
X45601009Y-34162856D01*
X45601009Y-34162856D02*
X45553390Y-34258094D01*
X45553390Y-34258094D02*
X45505771Y-34305713D01*
X45505771Y-34305713D02*
X45410533Y-34353332D01*
X45410533Y-34353332D02*
X45315295Y-34353332D01*
X45315295Y-34353332D02*
X45220057Y-34305713D01*
X45220057Y-34305713D02*
X45172438Y-34258094D01*
X45172438Y-34258094D02*
X45124819Y-34162856D01*
X45124819Y-34162856D02*
X45124819Y-33924761D01*
X45124819Y-33924761D02*
X45172438Y-33781904D01*
X45124819Y-33448570D02*
X46124819Y-33210475D01*
X46124819Y-33210475D02*
X45410533Y-33019999D01*
X45410533Y-33019999D02*
X46124819Y-32829523D01*
X46124819Y-32829523D02*
X45124819Y-32591428D01*
X46124819Y-31686666D02*
X46124819Y-32258094D01*
X46124819Y-31972380D02*
X45124819Y-31972380D01*
X45124819Y-31972380D02*
X45267676Y-32067618D01*
X45267676Y-32067618D02*
X45362914Y-32162856D01*
X45362914Y-32162856D02*
X45410533Y-32258094D01*
D11*
X26939238Y-33379899D02*
X26939238Y-32237042D01*
X28939238Y-32808471D02*
X26939238Y-32808471D01*
X28939238Y-31570375D02*
X26939238Y-31570375D01*
X28939238Y-30617994D02*
X26939238Y-30617994D01*
X26939238Y-30617994D02*
X28367809Y-29951327D01*
X28367809Y-29951327D02*
X26939238Y-29284661D01*
X26939238Y-29284661D02*
X28939238Y-29284661D01*
X27891619Y-28332280D02*
X27891619Y-27665613D01*
X28939238Y-27379899D02*
X28939238Y-28332280D01*
X28939238Y-28332280D02*
X26939238Y-28332280D01*
X26939238Y-28332280D02*
X26939238Y-27379899D01*
D10*
X76965350Y-32808152D02*
X76965350Y-33474819D01*
X76727255Y-32427200D02*
X76489160Y-33141485D01*
X76489160Y-33141485D02*
X77108207Y-33141485D01*
X77489160Y-33474819D02*
X77489160Y-32474819D01*
X78060588Y-33474819D02*
X77632017Y-32903390D01*
X78060588Y-32474819D02*
X77489160Y-33046247D01*
X78393922Y-32474819D02*
X79060588Y-32474819D01*
X79060588Y-32474819D02*
X78632017Y-33474819D01*
X72223333Y-33474819D02*
X71890000Y-32998628D01*
X71651905Y-33474819D02*
X71651905Y-32474819D01*
X71651905Y-32474819D02*
X72032857Y-32474819D01*
X72032857Y-32474819D02*
X72128095Y-32522438D01*
X72128095Y-32522438D02*
X72175714Y-32570057D01*
X72175714Y-32570057D02*
X72223333Y-32665295D01*
X72223333Y-32665295D02*
X72223333Y-32808152D01*
X72223333Y-32808152D02*
X72175714Y-32903390D01*
X72175714Y-32903390D02*
X72128095Y-32951009D01*
X72128095Y-32951009D02*
X72032857Y-32998628D01*
X72032857Y-32998628D02*
X71651905Y-32998628D01*
X73080476Y-32474819D02*
X72890000Y-32474819D01*
X72890000Y-32474819D02*
X72794762Y-32522438D01*
X72794762Y-32522438D02*
X72747143Y-32570057D01*
X72747143Y-32570057D02*
X72651905Y-32712914D01*
X72651905Y-32712914D02*
X72604286Y-32903390D01*
X72604286Y-32903390D02*
X72604286Y-33284342D01*
X72604286Y-33284342D02*
X72651905Y-33379580D01*
X72651905Y-33379580D02*
X72699524Y-33427200D01*
X72699524Y-33427200D02*
X72794762Y-33474819D01*
X72794762Y-33474819D02*
X72985238Y-33474819D01*
X72985238Y-33474819D02*
X73080476Y-33427200D01*
X73080476Y-33427200D02*
X73128095Y-33379580D01*
X73128095Y-33379580D02*
X73175714Y-33284342D01*
X73175714Y-33284342D02*
X73175714Y-33046247D01*
X73175714Y-33046247D02*
X73128095Y-32951009D01*
X73128095Y-32951009D02*
X73080476Y-32903390D01*
X73080476Y-32903390D02*
X72985238Y-32855771D01*
X72985238Y-32855771D02*
X72794762Y-32855771D01*
X72794762Y-32855771D02*
X72699524Y-32903390D01*
X72699524Y-32903390D02*
X72651905Y-32951009D01*
X72651905Y-32951009D02*
X72604286Y-33046247D01*
X46077200Y-62293332D02*
X46124819Y-62150475D01*
X46124819Y-62150475D02*
X46124819Y-61912380D01*
X46124819Y-61912380D02*
X46077200Y-61817142D01*
X46077200Y-61817142D02*
X46029580Y-61769523D01*
X46029580Y-61769523D02*
X45934342Y-61721904D01*
X45934342Y-61721904D02*
X45839104Y-61721904D01*
X45839104Y-61721904D02*
X45743866Y-61769523D01*
X45743866Y-61769523D02*
X45696247Y-61817142D01*
X45696247Y-61817142D02*
X45648628Y-61912380D01*
X45648628Y-61912380D02*
X45601009Y-62102856D01*
X45601009Y-62102856D02*
X45553390Y-62198094D01*
X45553390Y-62198094D02*
X45505771Y-62245713D01*
X45505771Y-62245713D02*
X45410533Y-62293332D01*
X45410533Y-62293332D02*
X45315295Y-62293332D01*
X45315295Y-62293332D02*
X45220057Y-62245713D01*
X45220057Y-62245713D02*
X45172438Y-62198094D01*
X45172438Y-62198094D02*
X45124819Y-62102856D01*
X45124819Y-62102856D02*
X45124819Y-61864761D01*
X45124819Y-61864761D02*
X45172438Y-61721904D01*
X45124819Y-61388570D02*
X46124819Y-61150475D01*
X46124819Y-61150475D02*
X45410533Y-60959999D01*
X45410533Y-60959999D02*
X46124819Y-60769523D01*
X46124819Y-60769523D02*
X45124819Y-60531428D01*
X45124819Y-60245713D02*
X45124819Y-59626666D01*
X45124819Y-59626666D02*
X45505771Y-59959999D01*
X45505771Y-59959999D02*
X45505771Y-59817142D01*
X45505771Y-59817142D02*
X45553390Y-59721904D01*
X45553390Y-59721904D02*
X45601009Y-59674285D01*
X45601009Y-59674285D02*
X45696247Y-59626666D01*
X45696247Y-59626666D02*
X45934342Y-59626666D01*
X45934342Y-59626666D02*
X46029580Y-59674285D01*
X46029580Y-59674285D02*
X46077200Y-59721904D01*
X46077200Y-59721904D02*
X46124819Y-59817142D01*
X46124819Y-59817142D02*
X46124819Y-60102856D01*
X46124819Y-60102856D02*
X46077200Y-60198094D01*
X46077200Y-60198094D02*
X46029580Y-60245713D01*
D11*
X28939238Y-66297862D02*
X26939238Y-66297862D01*
X26939238Y-66297862D02*
X28367809Y-65631195D01*
X28367809Y-65631195D02*
X26939238Y-64964529D01*
X26939238Y-64964529D02*
X28939238Y-64964529D01*
X26939238Y-63631196D02*
X26939238Y-63250243D01*
X26939238Y-63250243D02*
X27034476Y-63059767D01*
X27034476Y-63059767D02*
X27224952Y-62869291D01*
X27224952Y-62869291D02*
X27605904Y-62774053D01*
X27605904Y-62774053D02*
X28272571Y-62774053D01*
X28272571Y-62774053D02*
X28653523Y-62869291D01*
X28653523Y-62869291D02*
X28844000Y-63059767D01*
X28844000Y-63059767D02*
X28939238Y-63250243D01*
X28939238Y-63250243D02*
X28939238Y-63631196D01*
X28939238Y-63631196D02*
X28844000Y-63821672D01*
X28844000Y-63821672D02*
X28653523Y-64012148D01*
X28653523Y-64012148D02*
X28272571Y-64107386D01*
X28272571Y-64107386D02*
X27605904Y-64107386D01*
X27605904Y-64107386D02*
X27224952Y-64012148D01*
X27224952Y-64012148D02*
X27034476Y-63821672D01*
X27034476Y-63821672D02*
X26939238Y-63631196D01*
X28939238Y-61916910D02*
X26939238Y-61916910D01*
X26939238Y-61916910D02*
X26939238Y-61440720D01*
X26939238Y-61440720D02*
X27034476Y-61155005D01*
X27034476Y-61155005D02*
X27224952Y-60964529D01*
X27224952Y-60964529D02*
X27415428Y-60869291D01*
X27415428Y-60869291D02*
X27796380Y-60774053D01*
X27796380Y-60774053D02*
X28082095Y-60774053D01*
X28082095Y-60774053D02*
X28463047Y-60869291D01*
X28463047Y-60869291D02*
X28653523Y-60964529D01*
X28653523Y-60964529D02*
X28844000Y-61155005D01*
X28844000Y-61155005D02*
X28939238Y-61440720D01*
X28939238Y-61440720D02*
X28939238Y-61916910D01*
X27891619Y-59916910D02*
X27891619Y-59250243D01*
X28939238Y-58964529D02*
X28939238Y-59916910D01*
X28939238Y-59916910D02*
X26939238Y-59916910D01*
X26939238Y-59916910D02*
X26939238Y-58964529D01*
D10*
X49968152Y-47695714D02*
X50634819Y-47695714D01*
X49587200Y-47933809D02*
X50301485Y-48171904D01*
X50301485Y-48171904D02*
X50301485Y-47552857D01*
X50634819Y-47171904D02*
X49634819Y-47171904D01*
X50634819Y-46600476D02*
X50063390Y-47029047D01*
X49634819Y-46600476D02*
X50206247Y-47171904D01*
X49634819Y-46267142D02*
X49634819Y-45600476D01*
X49634819Y-45600476D02*
X50634819Y-46029047D01*
X48714819Y-47076666D02*
X48238628Y-47409999D01*
X48714819Y-47648094D02*
X47714819Y-47648094D01*
X47714819Y-47648094D02*
X47714819Y-47267142D01*
X47714819Y-47267142D02*
X47762438Y-47171904D01*
X47762438Y-47171904D02*
X47810057Y-47124285D01*
X47810057Y-47124285D02*
X47905295Y-47076666D01*
X47905295Y-47076666D02*
X48048152Y-47076666D01*
X48048152Y-47076666D02*
X48143390Y-47124285D01*
X48143390Y-47124285D02*
X48191009Y-47171904D01*
X48191009Y-47171904D02*
X48238628Y-47267142D01*
X48238628Y-47267142D02*
X48238628Y-47648094D01*
X47810057Y-46695713D02*
X47762438Y-46648094D01*
X47762438Y-46648094D02*
X47714819Y-46552856D01*
X47714819Y-46552856D02*
X47714819Y-46314761D01*
X47714819Y-46314761D02*
X47762438Y-46219523D01*
X47762438Y-46219523D02*
X47810057Y-46171904D01*
X47810057Y-46171904D02*
X47905295Y-46124285D01*
X47905295Y-46124285D02*
X48000533Y-46124285D01*
X48000533Y-46124285D02*
X48143390Y-46171904D01*
X48143390Y-46171904D02*
X48714819Y-46743332D01*
X48714819Y-46743332D02*
X48714819Y-46124285D01*
D12*
%TO.C,R7*%
X69850000Y-30480000D02*
X70590000Y-30480000D01*
X70590000Y-29680000D02*
X70590000Y-31280000D01*
X70590000Y-31280000D02*
X74190000Y-31280000D01*
X74190000Y-29680000D02*
X70590000Y-29680000D01*
X74190000Y-31280000D02*
X74190000Y-29680000D01*
D13*
X74310000Y-29560000D02*
X70470000Y-29560000D01*
X74310000Y-31400000D02*
X70470000Y-31400000D01*
D12*
X74930000Y-30480000D02*
X74190000Y-30480000D01*
D14*
%TO.C,SW4*%
X52605000Y-38465000D02*
X52605000Y-42815000D01*
X52605000Y-42815000D02*
X64235000Y-42815000D01*
X64235000Y-38465000D02*
X52605000Y-38465000D01*
X64235000Y-42815000D02*
X64235000Y-38465000D01*
%TO.C,A1*%
X67590000Y-44060000D02*
X67590000Y-27060000D01*
X68590000Y-26060000D02*
X79590000Y-26060000D01*
X79590000Y-45060000D02*
X68590000Y-45060000D01*
X81590000Y-28060000D02*
X85590000Y-28060000D01*
X81590000Y-43060000D02*
X85590000Y-43060000D01*
X86590000Y-29060000D02*
X86590000Y-42060000D01*
X67590000Y-27060000D02*
G75*
G02*
X68590000Y-26060000I1000000J0D01*
G01*
X68590000Y-45060000D02*
G75*
G02*
X67590000Y-44060000I0J1000000D01*
G01*
X79590000Y-26060000D02*
G75*
G02*
X80590000Y-27060000I0J-1000000D01*
G01*
X80590000Y-44060000D02*
G75*
G02*
X79590000Y-45060000I-1000000J0D01*
G01*
X80590000Y-44060000D02*
G75*
G02*
X81590000Y-43060000I1000000J0D01*
G01*
X81590000Y-28060000D02*
G75*
G02*
X80590000Y-27060000I0J1000000D01*
G01*
X85590000Y-28060000D02*
G75*
G02*
X86590000Y-29060000I0J-1000000D01*
G01*
X86590000Y-42060000D02*
G75*
G02*
X85590000Y-43060000I-1000000J0D01*
G01*
%TO.C,SW2*%
X32100000Y-42910000D02*
X32100000Y-41910000D01*
X32100000Y-47910000D02*
X32100000Y-45910000D01*
X32100000Y-51910000D02*
X32100000Y-50910000D01*
X33100000Y-40910000D02*
X43100000Y-40910000D01*
X43100000Y-52910000D02*
X33100000Y-52910000D01*
X44100000Y-41910000D02*
X44100000Y-42910000D01*
X44100000Y-45910000D02*
X44100000Y-47910000D01*
X44100000Y-50910000D02*
X44100000Y-51910000D01*
X32100000Y-41910000D02*
G75*
G02*
X33100000Y-40910000I999999J1D01*
G01*
X33100000Y-52910000D02*
G75*
G02*
X32100000Y-51910000I-1J999999D01*
G01*
X43100000Y-40910000D02*
G75*
G02*
X44100000Y-41910000I0J-1000000D01*
G01*
X44100000Y-51910000D02*
G75*
G02*
X43100000Y-52910000I-1000000J0D01*
G01*
D15*
X33900000Y-42410000D02*
G75*
G02*
X33300000Y-42410000I-300000J0D01*
G01*
X33300000Y-42410000D02*
G75*
G02*
X33900000Y-42410000I300000J0D01*
G01*
X33900000Y-51410000D02*
G75*
G02*
X33300000Y-51410000I-300000J0D01*
G01*
X33300000Y-51410000D02*
G75*
G02*
X33900000Y-51410000I300000J0D01*
G01*
D14*
X41600000Y-46910000D02*
G75*
G02*
X34600000Y-46910000I-3500000J0D01*
G01*
X34600000Y-46910000D02*
G75*
G02*
X41600000Y-46910000I3500000J0D01*
G01*
D15*
X42900000Y-42410000D02*
G75*
G02*
X42300000Y-42410000I-300000J0D01*
G01*
X42300000Y-42410000D02*
G75*
G02*
X42900000Y-42410000I300000J0D01*
G01*
X42900000Y-51410000D02*
G75*
G02*
X42300000Y-51410000I-300000J0D01*
G01*
X42300000Y-51410000D02*
G75*
G02*
X42900000Y-51410000I300000J0D01*
G01*
D13*
%TO.C,R3*%
X47340000Y-64150000D02*
X47340000Y-60310000D01*
D12*
X47460000Y-60430000D02*
X47460000Y-64030000D01*
X47460000Y-64030000D02*
X49060000Y-64030000D01*
X48260000Y-59690000D02*
X48260000Y-60430000D01*
X48260000Y-64770000D02*
X48260000Y-64030000D01*
X49060000Y-60430000D02*
X47460000Y-60430000D01*
X49060000Y-64030000D02*
X49060000Y-60430000D01*
D13*
X49180000Y-64150000D02*
X49180000Y-60310000D01*
D12*
%TO.C,R4*%
X69850000Y-40640000D02*
X70590000Y-40640000D01*
D13*
X70470000Y-39720000D02*
X74310000Y-39720000D01*
X70470000Y-41560000D02*
X74310000Y-41560000D01*
D12*
X70590000Y-39840000D02*
X70590000Y-41440000D01*
X70590000Y-41440000D02*
X74190000Y-41440000D01*
X74190000Y-39840000D02*
X70590000Y-39840000D01*
X74190000Y-41440000D02*
X74190000Y-39840000D01*
X74930000Y-40640000D02*
X74190000Y-40640000D01*
%TO.C,J1*%
X54770000Y-27940000D02*
G75*
G02*
X52470000Y-27940000I-1150000J0D01*
G01*
X52470000Y-27940000D02*
G75*
G02*
X54770000Y-27940000I1150000J0D01*
G01*
X59570000Y-27940000D02*
G75*
G02*
X57270000Y-27940000I-1150000J0D01*
G01*
X57270000Y-27940000D02*
G75*
G02*
X59570000Y-27940000I1150000J0D01*
G01*
X64370000Y-27940000D02*
G75*
G02*
X62070000Y-27940000I-1150000J0D01*
G01*
X62070000Y-27940000D02*
G75*
G02*
X64370000Y-27940000I1150000J0D01*
G01*
D13*
%TO.C,R1*%
X47340000Y-34860000D02*
X47340000Y-31020000D01*
D12*
X47460000Y-31140000D02*
X47460000Y-34740000D01*
X47460000Y-34740000D02*
X49060000Y-34740000D01*
X48260000Y-30400000D02*
X48260000Y-31140000D01*
X48260000Y-35480000D02*
X48260000Y-34740000D01*
X49060000Y-31140000D02*
X47460000Y-31140000D01*
X49060000Y-34740000D02*
X49060000Y-31140000D01*
D13*
X49180000Y-34860000D02*
X49180000Y-31020000D01*
D12*
%TO.C,R5*%
X69850000Y-38100000D02*
X70590000Y-38100000D01*
X70590000Y-37300000D02*
X70590000Y-38900000D01*
X70590000Y-38900000D02*
X74190000Y-38900000D01*
X74190000Y-37300000D02*
X70590000Y-37300000D01*
X74190000Y-38900000D02*
X74190000Y-37300000D01*
D13*
X74310000Y-37180000D02*
X70470000Y-37180000D01*
X74310000Y-39020000D02*
X70470000Y-39020000D01*
D12*
X74930000Y-38100000D02*
X74190000Y-38100000D01*
D16*
%TO.C,U1*%
X55880000Y-48180000D02*
X55880000Y-65960000D01*
D14*
X55880000Y-65960000D02*
X55880000Y-48180000D01*
D16*
X55880000Y-65960000D02*
X88900000Y-65960000D01*
D14*
X64897000Y-57070000D02*
X69850000Y-62023000D01*
X69850000Y-52117000D02*
X64897000Y-57070000D01*
X69850000Y-62023000D02*
X74803000Y-57070000D01*
X74803000Y-57070000D02*
X69850000Y-52117000D01*
X82931000Y-52752000D02*
X90233500Y-52752000D01*
X82931000Y-61388000D02*
X82931000Y-52752000D01*
D16*
X88900000Y-48180000D02*
X55880000Y-48180000D01*
D14*
X88900000Y-48180000D02*
X86360000Y-48180000D01*
X88900000Y-51990000D02*
X88900000Y-48180000D01*
X88900000Y-62150000D02*
X88900000Y-65960000D01*
X88900000Y-65960000D02*
X86360000Y-65960000D01*
D16*
X88900000Y-65960000D02*
X88900000Y-48180000D01*
D14*
X90233500Y-52752000D02*
X90233500Y-61388000D01*
X90233500Y-61388000D02*
X82931000Y-61388000D01*
X90233500Y-61388000D02*
G75*
G02*
X90233500Y-52752000I24145871J4318000D01*
G01*
%TO.C,SW1*%
X32100000Y-28940000D02*
X32100000Y-27940000D01*
X32100000Y-33940000D02*
X32100000Y-31940000D01*
X32100000Y-37940000D02*
X32100000Y-36940000D01*
X33100000Y-26940000D02*
X43100000Y-26940000D01*
X43100000Y-38940000D02*
X33100000Y-38940000D01*
X44100000Y-27940000D02*
X44100000Y-28940000D01*
X44100000Y-31940000D02*
X44100000Y-33940000D01*
X44100000Y-36940000D02*
X44100000Y-37940000D01*
X32100000Y-27940000D02*
G75*
G02*
X33100000Y-26940000I999999J1D01*
G01*
X33100000Y-38940000D02*
G75*
G02*
X32100000Y-37940000I-1J999999D01*
G01*
X43100000Y-26940000D02*
G75*
G02*
X44100000Y-27940000I0J-1000000D01*
G01*
X44100000Y-37940000D02*
G75*
G02*
X43100000Y-38940000I-1000000J0D01*
G01*
D15*
X33900000Y-28440000D02*
G75*
G02*
X33300000Y-28440000I-300000J0D01*
G01*
X33300000Y-28440000D02*
G75*
G02*
X33900000Y-28440000I300000J0D01*
G01*
X33900000Y-37440000D02*
G75*
G02*
X33300000Y-37440000I-300000J0D01*
G01*
X33300000Y-37440000D02*
G75*
G02*
X33900000Y-37440000I300000J0D01*
G01*
D14*
X41600000Y-32940000D02*
G75*
G02*
X34600000Y-32940000I-3500000J0D01*
G01*
X34600000Y-32940000D02*
G75*
G02*
X41600000Y-32940000I3500000J0D01*
G01*
D15*
X42900000Y-28440000D02*
G75*
G02*
X42300000Y-28440000I-300000J0D01*
G01*
X42300000Y-28440000D02*
G75*
G02*
X42900000Y-28440000I300000J0D01*
G01*
X42900000Y-37440000D02*
G75*
G02*
X42300000Y-37440000I-300000J0D01*
G01*
X42300000Y-37440000D02*
G75*
G02*
X42900000Y-37440000I300000J0D01*
G01*
D12*
%TO.C,R6*%
X69850000Y-33020000D02*
X70590000Y-33020000D01*
D13*
X70470000Y-32100000D02*
X74310000Y-32100000D01*
X70470000Y-33940000D02*
X74310000Y-33940000D01*
D12*
X70590000Y-32220000D02*
X70590000Y-33820000D01*
X70590000Y-33820000D02*
X74190000Y-33820000D01*
X74190000Y-32220000D02*
X70590000Y-32220000D01*
X74190000Y-33820000D02*
X74190000Y-32220000D01*
X74930000Y-33020000D02*
X74190000Y-33020000D01*
D14*
%TO.C,SW3*%
X32100000Y-56880000D02*
X32100000Y-55880000D01*
X32100000Y-61880000D02*
X32100000Y-59880000D01*
X32100000Y-65880000D02*
X32100000Y-64880000D01*
X33100000Y-54880000D02*
X43100000Y-54880000D01*
X43100000Y-66880000D02*
X33100000Y-66880000D01*
X44100000Y-55880000D02*
X44100000Y-56880000D01*
X44100000Y-59880000D02*
X44100000Y-61880000D01*
X44100000Y-64880000D02*
X44100000Y-65880000D01*
X32100000Y-55880000D02*
G75*
G02*
X33100000Y-54880000I999999J1D01*
G01*
X33100000Y-66880000D02*
G75*
G02*
X32100000Y-65880000I-1J999999D01*
G01*
X43100000Y-54880000D02*
G75*
G02*
X44100000Y-55880000I0J-1000000D01*
G01*
X44100000Y-65880000D02*
G75*
G02*
X43100000Y-66880000I-1000000J0D01*
G01*
D15*
X33900000Y-56380000D02*
G75*
G02*
X33300000Y-56380000I-300000J0D01*
G01*
X33300000Y-56380000D02*
G75*
G02*
X33900000Y-56380000I300000J0D01*
G01*
X33900000Y-65380000D02*
G75*
G02*
X33300000Y-65380000I-300000J0D01*
G01*
X33300000Y-65380000D02*
G75*
G02*
X33900000Y-65380000I300000J0D01*
G01*
D14*
X41600000Y-60880000D02*
G75*
G02*
X34600000Y-60880000I-3500000J0D01*
G01*
X34600000Y-60880000D02*
G75*
G02*
X41600000Y-60880000I3500000J0D01*
G01*
D15*
X42900000Y-56380000D02*
G75*
G02*
X42300000Y-56380000I-300000J0D01*
G01*
X42300000Y-56380000D02*
G75*
G02*
X42900000Y-56380000I300000J0D01*
G01*
X42900000Y-65380000D02*
G75*
G02*
X42300000Y-65380000I-300000J0D01*
G01*
X42300000Y-65380000D02*
G75*
G02*
X42900000Y-65380000I300000J0D01*
G01*
D13*
%TO.C,R2*%
X47340000Y-48830000D02*
X47340000Y-44990000D01*
D12*
X47460000Y-45110000D02*
X47460000Y-48710000D01*
X47460000Y-48710000D02*
X49060000Y-48710000D01*
X48260000Y-44370000D02*
X48260000Y-45110000D01*
X48260000Y-49450000D02*
X48260000Y-48710000D01*
X49060000Y-45110000D02*
X47460000Y-45110000D01*
X49060000Y-48710000D02*
X49060000Y-45110000D01*
D13*
X49180000Y-48830000D02*
X49180000Y-44990000D01*
%TD*%
M02*
