%TF.GenerationSoftware,KiCad,Pcbnew,8.0.6*%
%TF.CreationDate,2024-11-29T18:38:07+11:00*%
%TF.ProjectId,pcb,7063622e-6b69-4636-9164-5f7063625858,rev?*%
%TF.SameCoordinates,Original*%
%TF.FileFunction,Soldermask,Top*%
%TF.FilePolarity,Negative*%
%FSLAX46Y46*%
G04 Gerber Fmt 4.6, Leading zero omitted, Abs format (unit mm)*
G04 Created by KiCad (PCBNEW 8.0.6) date 2024-11-29 18:38:07*
%MOMM*%
%LPD*%
G01*
G04 APERTURE LIST*
G04 Aperture macros list*
%AMRoundRect*
0 Rectangle with rounded corners*
0 $1 Rounding radius*
0 $2 $3 $4 $5 $6 $7 $8 $9 X,Y pos of 4 corners*
0 Add a 4 corners polygon primitive as box body*
4,1,4,$2,$3,$4,$5,$6,$7,$8,$9,$2,$3,0*
0 Add four circle primitives for the rounded corners*
1,1,$1+$1,$2,$3*
1,1,$1+$1,$4,$5*
1,1,$1+$1,$6,$7*
1,1,$1+$1,$8,$9*
0 Add four rect primitives between the rounded corners*
20,1,$1+$1,$2,$3,$4,$5,0*
20,1,$1+$1,$4,$5,$6,$7,0*
20,1,$1+$1,$6,$7,$8,$9,0*
20,1,$1+$1,$8,$9,$2,$3,0*%
G04 Aperture macros list end*
%ADD10C,1.400000*%
%ADD11O,1.400000X1.400000*%
%ADD12C,6.400000*%
%ADD13C,1.879600*%
%ADD14C,2.000000*%
%ADD15C,2.159000*%
%ADD16RoundRect,0.249999X-1.025001X-1.025001X1.025001X-1.025001X1.025001X1.025001X-1.025001X1.025001X0*%
%ADD17C,2.550000*%
%ADD18RoundRect,0.635000X-0.000010X0.635000X-0.000010X-0.635000X0.000010X-0.635000X0.000010X0.635000X0*%
G04 APERTURE END LIST*
D10*
%TO.C,R7*%
X74930000Y-30480000D03*
D11*
X69850000Y-30480000D03*
%TD*%
D12*
%TO.C,H2*%
X61900000Y-34580000D03*
%TD*%
D13*
%TO.C,SW4*%
X55880000Y-40640000D03*
X58420000Y-40640000D03*
X60960000Y-40640000D03*
%TD*%
D14*
%TO.C,A1*%
X85090000Y-40720000D03*
X85090000Y-38100000D03*
X85090000Y-35560000D03*
X85090000Y-33020000D03*
X85090000Y-30480000D03*
%TD*%
D15*
%TO.C,SW2*%
X31850000Y-44410000D03*
X44350000Y-44410000D03*
X31850000Y-49410000D03*
X44350000Y-49410000D03*
%TD*%
D10*
%TO.C,R3*%
X48260000Y-64770000D03*
D11*
X48260000Y-59690000D03*
%TD*%
D10*
%TO.C,R4*%
X69850000Y-40640000D03*
D11*
X74930000Y-40640000D03*
%TD*%
D12*
%TO.C,H1*%
X49900000Y-54580000D03*
%TD*%
D16*
%TO.C,J1*%
X53620000Y-27940000D03*
D17*
X58420000Y-27940000D03*
X63220000Y-27940000D03*
%TD*%
D10*
%TO.C,R1*%
X48260000Y-35480000D03*
D11*
X48260000Y-30400000D03*
%TD*%
D10*
%TO.C,R5*%
X74930000Y-38100000D03*
D11*
X69850000Y-38100000D03*
%TD*%
D18*
%TO.C,U1*%
X85090000Y-48180000D03*
X82550000Y-48180000D03*
X80010000Y-48180000D03*
X77470000Y-48180000D03*
X74930000Y-48180000D03*
X72390000Y-48180000D03*
X69850000Y-48180000D03*
X67310000Y-48180000D03*
X64770000Y-48180000D03*
X62230000Y-48180000D03*
X59690000Y-48180000D03*
X57150000Y-48180000D03*
X57150000Y-65960000D03*
X59690000Y-65960000D03*
X62230000Y-65960000D03*
X64770000Y-65960000D03*
X67310000Y-65960000D03*
X69850000Y-65960000D03*
X72390000Y-65960000D03*
X74930000Y-65960000D03*
X77470000Y-65960000D03*
X80010000Y-65960000D03*
X82550000Y-65960000D03*
X85090000Y-65960000D03*
%TD*%
D15*
%TO.C,SW1*%
X31850000Y-30440000D03*
X44350000Y-30440000D03*
X31850000Y-35440000D03*
X44350000Y-35440000D03*
%TD*%
D10*
%TO.C,R6*%
X69850000Y-33020000D03*
D11*
X74930000Y-33020000D03*
%TD*%
D15*
%TO.C,SW3*%
X31850000Y-58380000D03*
X44350000Y-58380000D03*
X31850000Y-63380000D03*
X44350000Y-63380000D03*
%TD*%
D10*
%TO.C,R2*%
X48260000Y-49450000D03*
D11*
X48260000Y-44370000D03*
%TD*%
M02*
