%TF.GenerationSoftware,KiCad,Pcbnew,8.0.6*%
%TF.CreationDate,2024-11-29T18:38:57+11:00*%
%TF.ProjectId,pcb,7063622e-6b69-4636-9164-5f7063625858,rev?*%
%TF.SameCoordinates,Original*%
%TF.FileFunction,Drillmap*%
%TF.FilePolarity,Positive*%
%FSLAX45Y45*%
G04 Gerber Fmt 4.5, Leading zero omitted, Abs format (unit mm)*
G04 Created by KiCad (PCBNEW 8.0.6) date 2024-11-29 18:38:57*
%MOMM*%
%LPD*%
G01*
G04 APERTURE LIST*
%ADD10C,0.050000*%
%ADD11C,0.200000*%
%ADD12C,0.100000*%
%ADD13C,0.120000*%
%ADD14C,0.155000*%
%ADD15C,0.320000*%
G04 APERTURE END LIST*
D10*
X2794000Y-6858000D02*
X8636000Y-6858000D01*
X8636000Y-2540000D02*
G75*
G02*
X8890000Y-2794000I0J-254000D01*
G01*
X2794000Y-6858000D02*
G75*
G02*
X2540000Y-6604000I0J254000D01*
G01*
X8890000Y-6604000D02*
X8890000Y-2794000D01*
X8890000Y-6604000D02*
G75*
G02*
X8636000Y-6858000I-254000J0D01*
G01*
X2540000Y-2794000D02*
G75*
G02*
X2794000Y-2540000I254000J0D01*
G01*
X2540000Y-2794000D02*
X2540000Y-6604000D01*
X8636000Y-2540000D02*
X2794000Y-2540000D01*
D11*
D12*
X5446000Y-6589000D02*
X5476000Y-6619000D01*
X5476000Y-6589000D02*
X5446000Y-6619000D01*
X5598400Y-4379200D02*
X5628400Y-4409200D01*
X5628400Y-4379200D02*
X5598400Y-4409200D01*
X6208000Y-4557000D02*
X6238000Y-4587000D01*
X6238000Y-4557000D02*
X6208000Y-4587000D01*
X7224000Y-4557000D02*
X7254000Y-4587000D01*
X7254000Y-4557000D02*
X7224000Y-4587000D01*
X7986000Y-4557000D02*
X8016000Y-4587000D01*
X8016000Y-4557000D02*
X7986000Y-4587000D01*
X4861000Y-3040000D02*
G75*
G02*
X4791000Y-3040000I-35000J0D01*
G01*
X4791000Y-3040000D02*
G75*
G02*
X4861000Y-3040000I35000J0D01*
G01*
X4861000Y-3548000D02*
G75*
G02*
X4791000Y-3548000I-35000J0D01*
G01*
X4791000Y-3548000D02*
G75*
G02*
X4861000Y-3548000I35000J0D01*
G01*
X4861000Y-4437000D02*
G75*
G02*
X4791000Y-4437000I-35000J0D01*
G01*
X4791000Y-4437000D02*
G75*
G02*
X4861000Y-4437000I35000J0D01*
G01*
X4861000Y-4945000D02*
G75*
G02*
X4791000Y-4945000I-35000J0D01*
G01*
X4791000Y-4945000D02*
G75*
G02*
X4861000Y-4945000I35000J0D01*
G01*
X4861000Y-5969000D02*
G75*
G02*
X4791000Y-5969000I-35000J0D01*
G01*
X4791000Y-5969000D02*
G75*
G02*
X4861000Y-5969000I35000J0D01*
G01*
X4861000Y-6477000D02*
G75*
G02*
X4791000Y-6477000I-35000J0D01*
G01*
X4791000Y-6477000D02*
G75*
G02*
X4861000Y-6477000I35000J0D01*
G01*
X7020000Y-3048000D02*
G75*
G02*
X6950000Y-3048000I-35000J0D01*
G01*
X6950000Y-3048000D02*
G75*
G02*
X7020000Y-3048000I35000J0D01*
G01*
X7020000Y-3302000D02*
G75*
G02*
X6950000Y-3302000I-35000J0D01*
G01*
X6950000Y-3302000D02*
G75*
G02*
X7020000Y-3302000I35000J0D01*
G01*
X7020000Y-3810000D02*
G75*
G02*
X6950000Y-3810000I-35000J0D01*
G01*
X6950000Y-3810000D02*
G75*
G02*
X7020000Y-3810000I35000J0D01*
G01*
X7020000Y-4064000D02*
G75*
G02*
X6950000Y-4064000I-35000J0D01*
G01*
X6950000Y-4064000D02*
G75*
G02*
X7020000Y-4064000I35000J0D01*
G01*
X7528000Y-3048000D02*
G75*
G02*
X7458000Y-3048000I-35000J0D01*
G01*
X7458000Y-3048000D02*
G75*
G02*
X7528000Y-3048000I35000J0D01*
G01*
X7528000Y-3302000D02*
G75*
G02*
X7458000Y-3302000I-35000J0D01*
G01*
X7458000Y-3302000D02*
G75*
G02*
X7528000Y-3302000I35000J0D01*
G01*
X7528000Y-3810000D02*
G75*
G02*
X7458000Y-3810000I-35000J0D01*
G01*
X7458000Y-3810000D02*
G75*
G02*
X7528000Y-3810000I35000J0D01*
G01*
X7528000Y-4064000D02*
G75*
G02*
X7458000Y-4064000I-35000J0D01*
G01*
X7458000Y-4064000D02*
G75*
G02*
X7528000Y-4064000I35000J0D01*
G01*
X5588000Y-4014000D02*
X5588000Y-4114000D01*
X5538000Y-4064000D02*
X5638000Y-4064000D01*
X5842000Y-4014000D02*
X5842000Y-4114000D01*
X5792000Y-4064000D02*
X5892000Y-4064000D01*
X6096000Y-4014000D02*
X6096000Y-4114000D01*
X6046000Y-4064000D02*
X6146000Y-4064000D01*
X8509000Y-2998000D02*
X8509000Y-3098000D01*
X8459000Y-3048000D02*
X8559000Y-3048000D01*
X8509000Y-3252000D02*
X8509000Y-3352000D01*
X8459000Y-3302000D02*
X8559000Y-3302000D01*
X8509000Y-3506000D02*
X8509000Y-3606000D01*
X8459000Y-3556000D02*
X8559000Y-3556000D01*
X8509000Y-3760000D02*
X8509000Y-3860000D01*
X8459000Y-3810000D02*
X8559000Y-3810000D01*
X8509000Y-4022000D02*
X8509000Y-4122000D01*
X8459000Y-4072000D02*
X8559000Y-4072000D01*
D13*
X3227427Y-3086427D02*
X3227427Y-3001573D01*
X3142573Y-3001573D01*
X3142573Y-3086427D01*
X3227427Y-3086427D01*
X3227427Y-3586427D02*
X3227427Y-3501573D01*
X3142573Y-3501573D01*
X3142573Y-3586427D01*
X3227427Y-3586427D01*
X3227427Y-4483427D02*
X3227427Y-4398573D01*
X3142573Y-4398573D01*
X3142573Y-4483427D01*
X3227427Y-4483427D01*
X3227427Y-4983427D02*
X3227427Y-4898573D01*
X3142573Y-4898573D01*
X3142573Y-4983427D01*
X3227427Y-4983427D01*
X3227427Y-5880427D02*
X3227427Y-5795573D01*
X3142573Y-5795573D01*
X3142573Y-5880427D01*
X3227427Y-5880427D01*
X3227427Y-6380427D02*
X3227427Y-6295573D01*
X3142573Y-6295573D01*
X3142573Y-6380427D01*
X3227427Y-6380427D01*
X4477427Y-3086427D02*
X4477427Y-3001573D01*
X4392573Y-3001573D01*
X4392573Y-3086427D01*
X4477427Y-3086427D01*
X4477427Y-3586427D02*
X4477427Y-3501573D01*
X4392573Y-3501573D01*
X4392573Y-3586427D01*
X4477427Y-3586427D01*
X4477427Y-4483427D02*
X4477427Y-4398573D01*
X4392573Y-4398573D01*
X4392573Y-4483427D01*
X4477427Y-4483427D01*
X4477427Y-4983427D02*
X4477427Y-4898573D01*
X4392573Y-4898573D01*
X4392573Y-4983427D01*
X4477427Y-4983427D01*
X4477427Y-5880427D02*
X4477427Y-5795573D01*
X4392573Y-5795573D01*
X4392573Y-5880427D01*
X4477427Y-5880427D01*
X4477427Y-6380427D02*
X4477427Y-6295573D01*
X4392573Y-6295573D01*
X4392573Y-6380427D01*
X4477427Y-6380427D01*
D14*
X5362000Y-2871500D02*
X5439500Y-2794000D01*
X5362000Y-2716500D01*
X5284500Y-2794000D01*
X5362000Y-2871500D01*
X5842000Y-2871500D02*
X5919500Y-2794000D01*
X5842000Y-2716500D01*
X5764500Y-2794000D01*
X5842000Y-2871500D01*
X6322000Y-2871500D02*
X6399500Y-2794000D01*
X6322000Y-2716500D01*
X6244500Y-2794000D01*
X6322000Y-2871500D01*
D15*
X4830000Y-5298000D02*
X5150000Y-5618000D01*
X5150000Y-5298000D02*
X4830000Y-5618000D01*
X5150000Y-5458000D02*
G75*
G02*
X4830000Y-5458000I-160000J0D01*
G01*
X4830000Y-5458000D02*
G75*
G02*
X5150000Y-5458000I160000J0D01*
G01*
X6030000Y-3298000D02*
X6350000Y-3618000D01*
X6350000Y-3298000D02*
X6030000Y-3618000D01*
X6350000Y-3458000D02*
G75*
G02*
X6030000Y-3458000I-160000J0D01*
G01*
X6030000Y-3458000D02*
G75*
G02*
X6350000Y-3458000I160000J0D01*
G01*
D11*
X2798277Y-7171984D02*
X2798277Y-6971984D01*
X2798277Y-6971984D02*
X2845896Y-6971984D01*
X2845896Y-6971984D02*
X2874467Y-6981508D01*
X2874467Y-6981508D02*
X2893515Y-7000555D01*
X2893515Y-7000555D02*
X2903039Y-7019603D01*
X2903039Y-7019603D02*
X2912562Y-7057698D01*
X2912562Y-7057698D02*
X2912562Y-7086269D01*
X2912562Y-7086269D02*
X2903039Y-7124365D01*
X2903039Y-7124365D02*
X2893515Y-7143412D01*
X2893515Y-7143412D02*
X2874467Y-7162460D01*
X2874467Y-7162460D02*
X2845896Y-7171984D01*
X2845896Y-7171984D02*
X2798277Y-7171984D01*
X2998277Y-7171984D02*
X2998277Y-7038650D01*
X2998277Y-7076746D02*
X3007801Y-7057698D01*
X3007801Y-7057698D02*
X3017324Y-7048174D01*
X3017324Y-7048174D02*
X3036372Y-7038650D01*
X3036372Y-7038650D02*
X3055420Y-7038650D01*
X3122086Y-7171984D02*
X3122086Y-7038650D01*
X3122086Y-6971984D02*
X3112562Y-6981508D01*
X3112562Y-6981508D02*
X3122086Y-6991031D01*
X3122086Y-6991031D02*
X3131610Y-6981508D01*
X3131610Y-6981508D02*
X3122086Y-6971984D01*
X3122086Y-6971984D02*
X3122086Y-6991031D01*
X3245896Y-7171984D02*
X3226848Y-7162460D01*
X3226848Y-7162460D02*
X3217324Y-7143412D01*
X3217324Y-7143412D02*
X3217324Y-6971984D01*
X3350658Y-7171984D02*
X3331610Y-7162460D01*
X3331610Y-7162460D02*
X3322086Y-7143412D01*
X3322086Y-7143412D02*
X3322086Y-6971984D01*
X3579229Y-7171984D02*
X3579229Y-6971984D01*
X3579229Y-6971984D02*
X3645896Y-7114841D01*
X3645896Y-7114841D02*
X3712562Y-6971984D01*
X3712562Y-6971984D02*
X3712562Y-7171984D01*
X3893515Y-7171984D02*
X3893515Y-7067222D01*
X3893515Y-7067222D02*
X3883991Y-7048174D01*
X3883991Y-7048174D02*
X3864943Y-7038650D01*
X3864943Y-7038650D02*
X3826848Y-7038650D01*
X3826848Y-7038650D02*
X3807801Y-7048174D01*
X3893515Y-7162460D02*
X3874467Y-7171984D01*
X3874467Y-7171984D02*
X3826848Y-7171984D01*
X3826848Y-7171984D02*
X3807801Y-7162460D01*
X3807801Y-7162460D02*
X3798277Y-7143412D01*
X3798277Y-7143412D02*
X3798277Y-7124365D01*
X3798277Y-7124365D02*
X3807801Y-7105317D01*
X3807801Y-7105317D02*
X3826848Y-7095793D01*
X3826848Y-7095793D02*
X3874467Y-7095793D01*
X3874467Y-7095793D02*
X3893515Y-7086269D01*
X3988753Y-7038650D02*
X3988753Y-7238650D01*
X3988753Y-7048174D02*
X4007801Y-7038650D01*
X4007801Y-7038650D02*
X4045896Y-7038650D01*
X4045896Y-7038650D02*
X4064943Y-7048174D01*
X4064943Y-7048174D02*
X4074467Y-7057698D01*
X4074467Y-7057698D02*
X4083991Y-7076746D01*
X4083991Y-7076746D02*
X4083991Y-7133888D01*
X4083991Y-7133888D02*
X4074467Y-7152936D01*
X4074467Y-7152936D02*
X4064943Y-7162460D01*
X4064943Y-7162460D02*
X4045896Y-7171984D01*
X4045896Y-7171984D02*
X4007801Y-7171984D01*
X4007801Y-7171984D02*
X3988753Y-7162460D01*
X4169705Y-7152936D02*
X4179229Y-7162460D01*
X4179229Y-7162460D02*
X4169705Y-7171984D01*
X4169705Y-7171984D02*
X4160182Y-7162460D01*
X4160182Y-7162460D02*
X4169705Y-7152936D01*
X4169705Y-7152936D02*
X4169705Y-7171984D01*
X4169705Y-7048174D02*
X4179229Y-7057698D01*
X4179229Y-7057698D02*
X4169705Y-7067222D01*
X4169705Y-7067222D02*
X4160182Y-7057698D01*
X4160182Y-7057698D02*
X4169705Y-7048174D01*
X4169705Y-7048174D02*
X4169705Y-7067222D01*
D12*
X2507500Y-7485500D02*
X2537500Y-7515500D01*
X2537500Y-7485500D02*
X2507500Y-7515500D01*
D11*
X2836372Y-7391984D02*
X2855420Y-7391984D01*
X2855420Y-7391984D02*
X2874467Y-7401508D01*
X2874467Y-7401508D02*
X2883991Y-7411031D01*
X2883991Y-7411031D02*
X2893515Y-7430079D01*
X2893515Y-7430079D02*
X2903039Y-7468174D01*
X2903039Y-7468174D02*
X2903039Y-7515793D01*
X2903039Y-7515793D02*
X2893515Y-7553888D01*
X2893515Y-7553888D02*
X2883991Y-7572936D01*
X2883991Y-7572936D02*
X2874467Y-7582460D01*
X2874467Y-7582460D02*
X2855420Y-7591984D01*
X2855420Y-7591984D02*
X2836372Y-7591984D01*
X2836372Y-7591984D02*
X2817324Y-7582460D01*
X2817324Y-7582460D02*
X2807801Y-7572936D01*
X2807801Y-7572936D02*
X2798277Y-7553888D01*
X2798277Y-7553888D02*
X2788753Y-7515793D01*
X2788753Y-7515793D02*
X2788753Y-7468174D01*
X2788753Y-7468174D02*
X2798277Y-7430079D01*
X2798277Y-7430079D02*
X2807801Y-7411031D01*
X2807801Y-7411031D02*
X2817324Y-7401508D01*
X2817324Y-7401508D02*
X2836372Y-7391984D01*
X2988753Y-7572936D02*
X2998277Y-7582460D01*
X2998277Y-7582460D02*
X2988753Y-7591984D01*
X2988753Y-7591984D02*
X2979229Y-7582460D01*
X2979229Y-7582460D02*
X2988753Y-7572936D01*
X2988753Y-7572936D02*
X2988753Y-7591984D01*
X3064943Y-7391984D02*
X3188753Y-7391984D01*
X3188753Y-7391984D02*
X3122086Y-7468174D01*
X3122086Y-7468174D02*
X3150658Y-7468174D01*
X3150658Y-7468174D02*
X3169705Y-7477698D01*
X3169705Y-7477698D02*
X3179229Y-7487222D01*
X3179229Y-7487222D02*
X3188753Y-7506269D01*
X3188753Y-7506269D02*
X3188753Y-7553888D01*
X3188753Y-7553888D02*
X3179229Y-7572936D01*
X3179229Y-7572936D02*
X3169705Y-7582460D01*
X3169705Y-7582460D02*
X3150658Y-7591984D01*
X3150658Y-7591984D02*
X3093515Y-7591984D01*
X3093515Y-7591984D02*
X3074467Y-7582460D01*
X3074467Y-7582460D02*
X3064943Y-7572936D01*
X3312562Y-7391984D02*
X3331610Y-7391984D01*
X3331610Y-7391984D02*
X3350658Y-7401508D01*
X3350658Y-7401508D02*
X3360182Y-7411031D01*
X3360182Y-7411031D02*
X3369705Y-7430079D01*
X3369705Y-7430079D02*
X3379229Y-7468174D01*
X3379229Y-7468174D02*
X3379229Y-7515793D01*
X3379229Y-7515793D02*
X3369705Y-7553888D01*
X3369705Y-7553888D02*
X3360182Y-7572936D01*
X3360182Y-7572936D02*
X3350658Y-7582460D01*
X3350658Y-7582460D02*
X3331610Y-7591984D01*
X3331610Y-7591984D02*
X3312562Y-7591984D01*
X3312562Y-7591984D02*
X3293515Y-7582460D01*
X3293515Y-7582460D02*
X3283991Y-7572936D01*
X3283991Y-7572936D02*
X3274467Y-7553888D01*
X3274467Y-7553888D02*
X3264943Y-7515793D01*
X3264943Y-7515793D02*
X3264943Y-7468174D01*
X3264943Y-7468174D02*
X3274467Y-7430079D01*
X3274467Y-7430079D02*
X3283991Y-7411031D01*
X3283991Y-7411031D02*
X3293515Y-7401508D01*
X3293515Y-7401508D02*
X3312562Y-7391984D01*
X3503039Y-7391984D02*
X3522086Y-7391984D01*
X3522086Y-7391984D02*
X3541134Y-7401508D01*
X3541134Y-7401508D02*
X3550658Y-7411031D01*
X3550658Y-7411031D02*
X3560182Y-7430079D01*
X3560182Y-7430079D02*
X3569705Y-7468174D01*
X3569705Y-7468174D02*
X3569705Y-7515793D01*
X3569705Y-7515793D02*
X3560182Y-7553888D01*
X3560182Y-7553888D02*
X3550658Y-7572936D01*
X3550658Y-7572936D02*
X3541134Y-7582460D01*
X3541134Y-7582460D02*
X3522086Y-7591984D01*
X3522086Y-7591984D02*
X3503039Y-7591984D01*
X3503039Y-7591984D02*
X3483991Y-7582460D01*
X3483991Y-7582460D02*
X3474467Y-7572936D01*
X3474467Y-7572936D02*
X3464943Y-7553888D01*
X3464943Y-7553888D02*
X3455420Y-7515793D01*
X3455420Y-7515793D02*
X3455420Y-7468174D01*
X3455420Y-7468174D02*
X3464943Y-7430079D01*
X3464943Y-7430079D02*
X3474467Y-7411031D01*
X3474467Y-7411031D02*
X3483991Y-7401508D01*
X3483991Y-7401508D02*
X3503039Y-7391984D01*
X3655420Y-7591984D02*
X3655420Y-7458650D01*
X3655420Y-7477698D02*
X3664943Y-7468174D01*
X3664943Y-7468174D02*
X3683991Y-7458650D01*
X3683991Y-7458650D02*
X3712563Y-7458650D01*
X3712563Y-7458650D02*
X3731610Y-7468174D01*
X3731610Y-7468174D02*
X3741134Y-7487222D01*
X3741134Y-7487222D02*
X3741134Y-7591984D01*
X3741134Y-7487222D02*
X3750658Y-7468174D01*
X3750658Y-7468174D02*
X3769705Y-7458650D01*
X3769705Y-7458650D02*
X3798277Y-7458650D01*
X3798277Y-7458650D02*
X3817324Y-7468174D01*
X3817324Y-7468174D02*
X3826848Y-7487222D01*
X3826848Y-7487222D02*
X3826848Y-7591984D01*
X3922086Y-7591984D02*
X3922086Y-7458650D01*
X3922086Y-7477698D02*
X3931610Y-7468174D01*
X3931610Y-7468174D02*
X3950658Y-7458650D01*
X3950658Y-7458650D02*
X3979229Y-7458650D01*
X3979229Y-7458650D02*
X3998277Y-7468174D01*
X3998277Y-7468174D02*
X4007801Y-7487222D01*
X4007801Y-7487222D02*
X4007801Y-7591984D01*
X4007801Y-7487222D02*
X4017324Y-7468174D01*
X4017324Y-7468174D02*
X4036372Y-7458650D01*
X4036372Y-7458650D02*
X4064943Y-7458650D01*
X4064943Y-7458650D02*
X4083991Y-7468174D01*
X4083991Y-7468174D02*
X4093515Y-7487222D01*
X4093515Y-7487222D02*
X4093515Y-7591984D01*
X4483991Y-7382460D02*
X4312563Y-7639603D01*
X4741134Y-7391984D02*
X4760182Y-7391984D01*
X4760182Y-7391984D02*
X4779229Y-7401508D01*
X4779229Y-7401508D02*
X4788753Y-7411031D01*
X4788753Y-7411031D02*
X4798277Y-7430079D01*
X4798277Y-7430079D02*
X4807801Y-7468174D01*
X4807801Y-7468174D02*
X4807801Y-7515793D01*
X4807801Y-7515793D02*
X4798277Y-7553888D01*
X4798277Y-7553888D02*
X4788753Y-7572936D01*
X4788753Y-7572936D02*
X4779229Y-7582460D01*
X4779229Y-7582460D02*
X4760182Y-7591984D01*
X4760182Y-7591984D02*
X4741134Y-7591984D01*
X4741134Y-7591984D02*
X4722087Y-7582460D01*
X4722087Y-7582460D02*
X4712563Y-7572936D01*
X4712563Y-7572936D02*
X4703039Y-7553888D01*
X4703039Y-7553888D02*
X4693515Y-7515793D01*
X4693515Y-7515793D02*
X4693515Y-7468174D01*
X4693515Y-7468174D02*
X4703039Y-7430079D01*
X4703039Y-7430079D02*
X4712563Y-7411031D01*
X4712563Y-7411031D02*
X4722087Y-7401508D01*
X4722087Y-7401508D02*
X4741134Y-7391984D01*
X4893515Y-7572936D02*
X4903039Y-7582460D01*
X4903039Y-7582460D02*
X4893515Y-7591984D01*
X4893515Y-7591984D02*
X4883991Y-7582460D01*
X4883991Y-7582460D02*
X4893515Y-7572936D01*
X4893515Y-7572936D02*
X4893515Y-7591984D01*
X5026848Y-7391984D02*
X5045896Y-7391984D01*
X5045896Y-7391984D02*
X5064944Y-7401508D01*
X5064944Y-7401508D02*
X5074468Y-7411031D01*
X5074468Y-7411031D02*
X5083991Y-7430079D01*
X5083991Y-7430079D02*
X5093515Y-7468174D01*
X5093515Y-7468174D02*
X5093515Y-7515793D01*
X5093515Y-7515793D02*
X5083991Y-7553888D01*
X5083991Y-7553888D02*
X5074468Y-7572936D01*
X5074468Y-7572936D02*
X5064944Y-7582460D01*
X5064944Y-7582460D02*
X5045896Y-7591984D01*
X5045896Y-7591984D02*
X5026848Y-7591984D01*
X5026848Y-7591984D02*
X5007801Y-7582460D01*
X5007801Y-7582460D02*
X4998277Y-7572936D01*
X4998277Y-7572936D02*
X4988753Y-7553888D01*
X4988753Y-7553888D02*
X4979229Y-7515793D01*
X4979229Y-7515793D02*
X4979229Y-7468174D01*
X4979229Y-7468174D02*
X4988753Y-7430079D01*
X4988753Y-7430079D02*
X4998277Y-7411031D01*
X4998277Y-7411031D02*
X5007801Y-7401508D01*
X5007801Y-7401508D02*
X5026848Y-7391984D01*
X5283991Y-7591984D02*
X5169706Y-7591984D01*
X5226848Y-7591984D02*
X5226848Y-7391984D01*
X5226848Y-7391984D02*
X5207801Y-7420555D01*
X5207801Y-7420555D02*
X5188753Y-7439603D01*
X5188753Y-7439603D02*
X5169706Y-7449127D01*
X5474468Y-7591984D02*
X5360182Y-7591984D01*
X5417325Y-7591984D02*
X5417325Y-7391984D01*
X5417325Y-7391984D02*
X5398277Y-7420555D01*
X5398277Y-7420555D02*
X5379229Y-7439603D01*
X5379229Y-7439603D02*
X5360182Y-7449127D01*
X5588753Y-7477698D02*
X5569706Y-7468174D01*
X5569706Y-7468174D02*
X5560182Y-7458650D01*
X5560182Y-7458650D02*
X5550658Y-7439603D01*
X5550658Y-7439603D02*
X5550658Y-7430079D01*
X5550658Y-7430079D02*
X5560182Y-7411031D01*
X5560182Y-7411031D02*
X5569706Y-7401508D01*
X5569706Y-7401508D02*
X5588753Y-7391984D01*
X5588753Y-7391984D02*
X5626848Y-7391984D01*
X5626848Y-7391984D02*
X5645896Y-7401508D01*
X5645896Y-7401508D02*
X5655420Y-7411031D01*
X5655420Y-7411031D02*
X5664944Y-7430079D01*
X5664944Y-7430079D02*
X5664944Y-7439603D01*
X5664944Y-7439603D02*
X5655420Y-7458650D01*
X5655420Y-7458650D02*
X5645896Y-7468174D01*
X5645896Y-7468174D02*
X5626848Y-7477698D01*
X5626848Y-7477698D02*
X5588753Y-7477698D01*
X5588753Y-7477698D02*
X5569706Y-7487222D01*
X5569706Y-7487222D02*
X5560182Y-7496746D01*
X5560182Y-7496746D02*
X5550658Y-7515793D01*
X5550658Y-7515793D02*
X5550658Y-7553888D01*
X5550658Y-7553888D02*
X5560182Y-7572936D01*
X5560182Y-7572936D02*
X5569706Y-7582460D01*
X5569706Y-7582460D02*
X5588753Y-7591984D01*
X5588753Y-7591984D02*
X5626848Y-7591984D01*
X5626848Y-7591984D02*
X5645896Y-7582460D01*
X5645896Y-7582460D02*
X5655420Y-7572936D01*
X5655420Y-7572936D02*
X5664944Y-7553888D01*
X5664944Y-7553888D02*
X5664944Y-7515793D01*
X5664944Y-7515793D02*
X5655420Y-7496746D01*
X5655420Y-7496746D02*
X5645896Y-7487222D01*
X5645896Y-7487222D02*
X5626848Y-7477698D01*
X5741134Y-7391984D02*
X5741134Y-7430079D01*
X5817325Y-7391984D02*
X5817325Y-7430079D01*
X6112563Y-7668174D02*
X6103039Y-7658650D01*
X6103039Y-7658650D02*
X6083991Y-7630079D01*
X6083991Y-7630079D02*
X6074468Y-7611031D01*
X6074468Y-7611031D02*
X6064944Y-7582460D01*
X6064944Y-7582460D02*
X6055420Y-7534841D01*
X6055420Y-7534841D02*
X6055420Y-7496746D01*
X6055420Y-7496746D02*
X6064944Y-7449127D01*
X6064944Y-7449127D02*
X6074468Y-7420555D01*
X6074468Y-7420555D02*
X6083991Y-7401508D01*
X6083991Y-7401508D02*
X6103039Y-7372936D01*
X6103039Y-7372936D02*
X6112563Y-7363412D01*
X6283991Y-7391984D02*
X6188753Y-7391984D01*
X6188753Y-7391984D02*
X6179229Y-7487222D01*
X6179229Y-7487222D02*
X6188753Y-7477698D01*
X6188753Y-7477698D02*
X6207801Y-7468174D01*
X6207801Y-7468174D02*
X6255420Y-7468174D01*
X6255420Y-7468174D02*
X6274468Y-7477698D01*
X6274468Y-7477698D02*
X6283991Y-7487222D01*
X6283991Y-7487222D02*
X6293515Y-7506269D01*
X6293515Y-7506269D02*
X6293515Y-7553888D01*
X6293515Y-7553888D02*
X6283991Y-7572936D01*
X6283991Y-7572936D02*
X6274468Y-7582460D01*
X6274468Y-7582460D02*
X6255420Y-7591984D01*
X6255420Y-7591984D02*
X6207801Y-7591984D01*
X6207801Y-7591984D02*
X6188753Y-7582460D01*
X6188753Y-7582460D02*
X6179229Y-7572936D01*
X6531610Y-7591984D02*
X6531610Y-7391984D01*
X6617325Y-7591984D02*
X6617325Y-7487222D01*
X6617325Y-7487222D02*
X6607801Y-7468174D01*
X6607801Y-7468174D02*
X6588753Y-7458650D01*
X6588753Y-7458650D02*
X6560182Y-7458650D01*
X6560182Y-7458650D02*
X6541134Y-7468174D01*
X6541134Y-7468174D02*
X6531610Y-7477698D01*
X6741134Y-7591984D02*
X6722087Y-7582460D01*
X6722087Y-7582460D02*
X6712563Y-7572936D01*
X6712563Y-7572936D02*
X6703039Y-7553888D01*
X6703039Y-7553888D02*
X6703039Y-7496746D01*
X6703039Y-7496746D02*
X6712563Y-7477698D01*
X6712563Y-7477698D02*
X6722087Y-7468174D01*
X6722087Y-7468174D02*
X6741134Y-7458650D01*
X6741134Y-7458650D02*
X6769706Y-7458650D01*
X6769706Y-7458650D02*
X6788753Y-7468174D01*
X6788753Y-7468174D02*
X6798277Y-7477698D01*
X6798277Y-7477698D02*
X6807801Y-7496746D01*
X6807801Y-7496746D02*
X6807801Y-7553888D01*
X6807801Y-7553888D02*
X6798277Y-7572936D01*
X6798277Y-7572936D02*
X6788753Y-7582460D01*
X6788753Y-7582460D02*
X6769706Y-7591984D01*
X6769706Y-7591984D02*
X6741134Y-7591984D01*
X6922087Y-7591984D02*
X6903039Y-7582460D01*
X6903039Y-7582460D02*
X6893515Y-7563412D01*
X6893515Y-7563412D02*
X6893515Y-7391984D01*
X7074468Y-7582460D02*
X7055420Y-7591984D01*
X7055420Y-7591984D02*
X7017325Y-7591984D01*
X7017325Y-7591984D02*
X6998277Y-7582460D01*
X6998277Y-7582460D02*
X6988753Y-7563412D01*
X6988753Y-7563412D02*
X6988753Y-7487222D01*
X6988753Y-7487222D02*
X6998277Y-7468174D01*
X6998277Y-7468174D02*
X7017325Y-7458650D01*
X7017325Y-7458650D02*
X7055420Y-7458650D01*
X7055420Y-7458650D02*
X7074468Y-7468174D01*
X7074468Y-7468174D02*
X7083991Y-7487222D01*
X7083991Y-7487222D02*
X7083991Y-7506269D01*
X7083991Y-7506269D02*
X6988753Y-7525317D01*
X7160182Y-7582460D02*
X7179230Y-7591984D01*
X7179230Y-7591984D02*
X7217325Y-7591984D01*
X7217325Y-7591984D02*
X7236372Y-7582460D01*
X7236372Y-7582460D02*
X7245896Y-7563412D01*
X7245896Y-7563412D02*
X7245896Y-7553888D01*
X7245896Y-7553888D02*
X7236372Y-7534841D01*
X7236372Y-7534841D02*
X7217325Y-7525317D01*
X7217325Y-7525317D02*
X7188753Y-7525317D01*
X7188753Y-7525317D02*
X7169706Y-7515793D01*
X7169706Y-7515793D02*
X7160182Y-7496746D01*
X7160182Y-7496746D02*
X7160182Y-7487222D01*
X7160182Y-7487222D02*
X7169706Y-7468174D01*
X7169706Y-7468174D02*
X7188753Y-7458650D01*
X7188753Y-7458650D02*
X7217325Y-7458650D01*
X7217325Y-7458650D02*
X7236372Y-7468174D01*
X7312563Y-7668174D02*
X7322087Y-7658650D01*
X7322087Y-7658650D02*
X7341134Y-7630079D01*
X7341134Y-7630079D02*
X7350658Y-7611031D01*
X7350658Y-7611031D02*
X7360182Y-7582460D01*
X7360182Y-7582460D02*
X7369706Y-7534841D01*
X7369706Y-7534841D02*
X7369706Y-7496746D01*
X7369706Y-7496746D02*
X7360182Y-7449127D01*
X7360182Y-7449127D02*
X7350658Y-7420555D01*
X7350658Y-7420555D02*
X7341134Y-7401508D01*
X7341134Y-7401508D02*
X7322087Y-7372936D01*
X7322087Y-7372936D02*
X7312563Y-7363412D01*
D12*
X2537500Y-7764500D02*
G75*
G02*
X2467500Y-7764500I-35000J0D01*
G01*
X2467500Y-7764500D02*
G75*
G02*
X2537500Y-7764500I35000J0D01*
G01*
D11*
X2836372Y-7655984D02*
X2855420Y-7655984D01*
X2855420Y-7655984D02*
X2874467Y-7665508D01*
X2874467Y-7665508D02*
X2883991Y-7675031D01*
X2883991Y-7675031D02*
X2893515Y-7694079D01*
X2893515Y-7694079D02*
X2903039Y-7732174D01*
X2903039Y-7732174D02*
X2903039Y-7779793D01*
X2903039Y-7779793D02*
X2893515Y-7817888D01*
X2893515Y-7817888D02*
X2883991Y-7836936D01*
X2883991Y-7836936D02*
X2874467Y-7846460D01*
X2874467Y-7846460D02*
X2855420Y-7855984D01*
X2855420Y-7855984D02*
X2836372Y-7855984D01*
X2836372Y-7855984D02*
X2817324Y-7846460D01*
X2817324Y-7846460D02*
X2807801Y-7836936D01*
X2807801Y-7836936D02*
X2798277Y-7817888D01*
X2798277Y-7817888D02*
X2788753Y-7779793D01*
X2788753Y-7779793D02*
X2788753Y-7732174D01*
X2788753Y-7732174D02*
X2798277Y-7694079D01*
X2798277Y-7694079D02*
X2807801Y-7675031D01*
X2807801Y-7675031D02*
X2817324Y-7665508D01*
X2817324Y-7665508D02*
X2836372Y-7655984D01*
X2988753Y-7836936D02*
X2998277Y-7846460D01*
X2998277Y-7846460D02*
X2988753Y-7855984D01*
X2988753Y-7855984D02*
X2979229Y-7846460D01*
X2979229Y-7846460D02*
X2988753Y-7836936D01*
X2988753Y-7836936D02*
X2988753Y-7855984D01*
X3064943Y-7655984D02*
X3198277Y-7655984D01*
X3198277Y-7655984D02*
X3112562Y-7855984D01*
X3312562Y-7655984D02*
X3331610Y-7655984D01*
X3331610Y-7655984D02*
X3350658Y-7665508D01*
X3350658Y-7665508D02*
X3360182Y-7675031D01*
X3360182Y-7675031D02*
X3369705Y-7694079D01*
X3369705Y-7694079D02*
X3379229Y-7732174D01*
X3379229Y-7732174D02*
X3379229Y-7779793D01*
X3379229Y-7779793D02*
X3369705Y-7817888D01*
X3369705Y-7817888D02*
X3360182Y-7836936D01*
X3360182Y-7836936D02*
X3350658Y-7846460D01*
X3350658Y-7846460D02*
X3331610Y-7855984D01*
X3331610Y-7855984D02*
X3312562Y-7855984D01*
X3312562Y-7855984D02*
X3293515Y-7846460D01*
X3293515Y-7846460D02*
X3283991Y-7836936D01*
X3283991Y-7836936D02*
X3274467Y-7817888D01*
X3274467Y-7817888D02*
X3264943Y-7779793D01*
X3264943Y-7779793D02*
X3264943Y-7732174D01*
X3264943Y-7732174D02*
X3274467Y-7694079D01*
X3274467Y-7694079D02*
X3283991Y-7675031D01*
X3283991Y-7675031D02*
X3293515Y-7665508D01*
X3293515Y-7665508D02*
X3312562Y-7655984D01*
X3503039Y-7655984D02*
X3522086Y-7655984D01*
X3522086Y-7655984D02*
X3541134Y-7665508D01*
X3541134Y-7665508D02*
X3550658Y-7675031D01*
X3550658Y-7675031D02*
X3560182Y-7694079D01*
X3560182Y-7694079D02*
X3569705Y-7732174D01*
X3569705Y-7732174D02*
X3569705Y-7779793D01*
X3569705Y-7779793D02*
X3560182Y-7817888D01*
X3560182Y-7817888D02*
X3550658Y-7836936D01*
X3550658Y-7836936D02*
X3541134Y-7846460D01*
X3541134Y-7846460D02*
X3522086Y-7855984D01*
X3522086Y-7855984D02*
X3503039Y-7855984D01*
X3503039Y-7855984D02*
X3483991Y-7846460D01*
X3483991Y-7846460D02*
X3474467Y-7836936D01*
X3474467Y-7836936D02*
X3464943Y-7817888D01*
X3464943Y-7817888D02*
X3455420Y-7779793D01*
X3455420Y-7779793D02*
X3455420Y-7732174D01*
X3455420Y-7732174D02*
X3464943Y-7694079D01*
X3464943Y-7694079D02*
X3474467Y-7675031D01*
X3474467Y-7675031D02*
X3483991Y-7665508D01*
X3483991Y-7665508D02*
X3503039Y-7655984D01*
X3655420Y-7855984D02*
X3655420Y-7722650D01*
X3655420Y-7741698D02*
X3664943Y-7732174D01*
X3664943Y-7732174D02*
X3683991Y-7722650D01*
X3683991Y-7722650D02*
X3712563Y-7722650D01*
X3712563Y-7722650D02*
X3731610Y-7732174D01*
X3731610Y-7732174D02*
X3741134Y-7751222D01*
X3741134Y-7751222D02*
X3741134Y-7855984D01*
X3741134Y-7751222D02*
X3750658Y-7732174D01*
X3750658Y-7732174D02*
X3769705Y-7722650D01*
X3769705Y-7722650D02*
X3798277Y-7722650D01*
X3798277Y-7722650D02*
X3817324Y-7732174D01*
X3817324Y-7732174D02*
X3826848Y-7751222D01*
X3826848Y-7751222D02*
X3826848Y-7855984D01*
X3922086Y-7855984D02*
X3922086Y-7722650D01*
X3922086Y-7741698D02*
X3931610Y-7732174D01*
X3931610Y-7732174D02*
X3950658Y-7722650D01*
X3950658Y-7722650D02*
X3979229Y-7722650D01*
X3979229Y-7722650D02*
X3998277Y-7732174D01*
X3998277Y-7732174D02*
X4007801Y-7751222D01*
X4007801Y-7751222D02*
X4007801Y-7855984D01*
X4007801Y-7751222D02*
X4017324Y-7732174D01*
X4017324Y-7732174D02*
X4036372Y-7722650D01*
X4036372Y-7722650D02*
X4064943Y-7722650D01*
X4064943Y-7722650D02*
X4083991Y-7732174D01*
X4083991Y-7732174D02*
X4093515Y-7751222D01*
X4093515Y-7751222D02*
X4093515Y-7855984D01*
X4483991Y-7646460D02*
X4312563Y-7903603D01*
X4741134Y-7655984D02*
X4760182Y-7655984D01*
X4760182Y-7655984D02*
X4779229Y-7665508D01*
X4779229Y-7665508D02*
X4788753Y-7675031D01*
X4788753Y-7675031D02*
X4798277Y-7694079D01*
X4798277Y-7694079D02*
X4807801Y-7732174D01*
X4807801Y-7732174D02*
X4807801Y-7779793D01*
X4807801Y-7779793D02*
X4798277Y-7817888D01*
X4798277Y-7817888D02*
X4788753Y-7836936D01*
X4788753Y-7836936D02*
X4779229Y-7846460D01*
X4779229Y-7846460D02*
X4760182Y-7855984D01*
X4760182Y-7855984D02*
X4741134Y-7855984D01*
X4741134Y-7855984D02*
X4722087Y-7846460D01*
X4722087Y-7846460D02*
X4712563Y-7836936D01*
X4712563Y-7836936D02*
X4703039Y-7817888D01*
X4703039Y-7817888D02*
X4693515Y-7779793D01*
X4693515Y-7779793D02*
X4693515Y-7732174D01*
X4693515Y-7732174D02*
X4703039Y-7694079D01*
X4703039Y-7694079D02*
X4712563Y-7675031D01*
X4712563Y-7675031D02*
X4722087Y-7665508D01*
X4722087Y-7665508D02*
X4741134Y-7655984D01*
X4893515Y-7836936D02*
X4903039Y-7846460D01*
X4903039Y-7846460D02*
X4893515Y-7855984D01*
X4893515Y-7855984D02*
X4883991Y-7846460D01*
X4883991Y-7846460D02*
X4893515Y-7836936D01*
X4893515Y-7836936D02*
X4893515Y-7855984D01*
X5026848Y-7655984D02*
X5045896Y-7655984D01*
X5045896Y-7655984D02*
X5064944Y-7665508D01*
X5064944Y-7665508D02*
X5074468Y-7675031D01*
X5074468Y-7675031D02*
X5083991Y-7694079D01*
X5083991Y-7694079D02*
X5093515Y-7732174D01*
X5093515Y-7732174D02*
X5093515Y-7779793D01*
X5093515Y-7779793D02*
X5083991Y-7817888D01*
X5083991Y-7817888D02*
X5074468Y-7836936D01*
X5074468Y-7836936D02*
X5064944Y-7846460D01*
X5064944Y-7846460D02*
X5045896Y-7855984D01*
X5045896Y-7855984D02*
X5026848Y-7855984D01*
X5026848Y-7855984D02*
X5007801Y-7846460D01*
X5007801Y-7846460D02*
X4998277Y-7836936D01*
X4998277Y-7836936D02*
X4988753Y-7817888D01*
X4988753Y-7817888D02*
X4979229Y-7779793D01*
X4979229Y-7779793D02*
X4979229Y-7732174D01*
X4979229Y-7732174D02*
X4988753Y-7694079D01*
X4988753Y-7694079D02*
X4998277Y-7675031D01*
X4998277Y-7675031D02*
X5007801Y-7665508D01*
X5007801Y-7665508D02*
X5026848Y-7655984D01*
X5169706Y-7675031D02*
X5179229Y-7665508D01*
X5179229Y-7665508D02*
X5198277Y-7655984D01*
X5198277Y-7655984D02*
X5245896Y-7655984D01*
X5245896Y-7655984D02*
X5264944Y-7665508D01*
X5264944Y-7665508D02*
X5274468Y-7675031D01*
X5274468Y-7675031D02*
X5283991Y-7694079D01*
X5283991Y-7694079D02*
X5283991Y-7713127D01*
X5283991Y-7713127D02*
X5274468Y-7741698D01*
X5274468Y-7741698D02*
X5160182Y-7855984D01*
X5160182Y-7855984D02*
X5283991Y-7855984D01*
X5350658Y-7655984D02*
X5483991Y-7655984D01*
X5483991Y-7655984D02*
X5398277Y-7855984D01*
X5645896Y-7655984D02*
X5607801Y-7655984D01*
X5607801Y-7655984D02*
X5588753Y-7665508D01*
X5588753Y-7665508D02*
X5579229Y-7675031D01*
X5579229Y-7675031D02*
X5560182Y-7703603D01*
X5560182Y-7703603D02*
X5550658Y-7741698D01*
X5550658Y-7741698D02*
X5550658Y-7817888D01*
X5550658Y-7817888D02*
X5560182Y-7836936D01*
X5560182Y-7836936D02*
X5569706Y-7846460D01*
X5569706Y-7846460D02*
X5588753Y-7855984D01*
X5588753Y-7855984D02*
X5626848Y-7855984D01*
X5626848Y-7855984D02*
X5645896Y-7846460D01*
X5645896Y-7846460D02*
X5655420Y-7836936D01*
X5655420Y-7836936D02*
X5664944Y-7817888D01*
X5664944Y-7817888D02*
X5664944Y-7770269D01*
X5664944Y-7770269D02*
X5655420Y-7751222D01*
X5655420Y-7751222D02*
X5645896Y-7741698D01*
X5645896Y-7741698D02*
X5626848Y-7732174D01*
X5626848Y-7732174D02*
X5588753Y-7732174D01*
X5588753Y-7732174D02*
X5569706Y-7741698D01*
X5569706Y-7741698D02*
X5560182Y-7751222D01*
X5560182Y-7751222D02*
X5550658Y-7770269D01*
X5741134Y-7655984D02*
X5741134Y-7694079D01*
X5817325Y-7655984D02*
X5817325Y-7694079D01*
X6112563Y-7932174D02*
X6103039Y-7922650D01*
X6103039Y-7922650D02*
X6083991Y-7894079D01*
X6083991Y-7894079D02*
X6074468Y-7875031D01*
X6074468Y-7875031D02*
X6064944Y-7846460D01*
X6064944Y-7846460D02*
X6055420Y-7798841D01*
X6055420Y-7798841D02*
X6055420Y-7760746D01*
X6055420Y-7760746D02*
X6064944Y-7713127D01*
X6064944Y-7713127D02*
X6074468Y-7684555D01*
X6074468Y-7684555D02*
X6083991Y-7665508D01*
X6083991Y-7665508D02*
X6103039Y-7636936D01*
X6103039Y-7636936D02*
X6112563Y-7627412D01*
X6293515Y-7855984D02*
X6179229Y-7855984D01*
X6236372Y-7855984D02*
X6236372Y-7655984D01*
X6236372Y-7655984D02*
X6217325Y-7684555D01*
X6217325Y-7684555D02*
X6198277Y-7703603D01*
X6198277Y-7703603D02*
X6179229Y-7713127D01*
X6464944Y-7722650D02*
X6464944Y-7855984D01*
X6417325Y-7646460D02*
X6369706Y-7789317D01*
X6369706Y-7789317D02*
X6493515Y-7789317D01*
X6722087Y-7855984D02*
X6722087Y-7655984D01*
X6807801Y-7855984D02*
X6807801Y-7751222D01*
X6807801Y-7751222D02*
X6798277Y-7732174D01*
X6798277Y-7732174D02*
X6779230Y-7722650D01*
X6779230Y-7722650D02*
X6750658Y-7722650D01*
X6750658Y-7722650D02*
X6731610Y-7732174D01*
X6731610Y-7732174D02*
X6722087Y-7741698D01*
X6931610Y-7855984D02*
X6912563Y-7846460D01*
X6912563Y-7846460D02*
X6903039Y-7836936D01*
X6903039Y-7836936D02*
X6893515Y-7817888D01*
X6893515Y-7817888D02*
X6893515Y-7760746D01*
X6893515Y-7760746D02*
X6903039Y-7741698D01*
X6903039Y-7741698D02*
X6912563Y-7732174D01*
X6912563Y-7732174D02*
X6931610Y-7722650D01*
X6931610Y-7722650D02*
X6960182Y-7722650D01*
X6960182Y-7722650D02*
X6979230Y-7732174D01*
X6979230Y-7732174D02*
X6988753Y-7741698D01*
X6988753Y-7741698D02*
X6998277Y-7760746D01*
X6998277Y-7760746D02*
X6998277Y-7817888D01*
X6998277Y-7817888D02*
X6988753Y-7836936D01*
X6988753Y-7836936D02*
X6979230Y-7846460D01*
X6979230Y-7846460D02*
X6960182Y-7855984D01*
X6960182Y-7855984D02*
X6931610Y-7855984D01*
X7112563Y-7855984D02*
X7093515Y-7846460D01*
X7093515Y-7846460D02*
X7083991Y-7827412D01*
X7083991Y-7827412D02*
X7083991Y-7655984D01*
X7264944Y-7846460D02*
X7245896Y-7855984D01*
X7245896Y-7855984D02*
X7207801Y-7855984D01*
X7207801Y-7855984D02*
X7188753Y-7846460D01*
X7188753Y-7846460D02*
X7179230Y-7827412D01*
X7179230Y-7827412D02*
X7179230Y-7751222D01*
X7179230Y-7751222D02*
X7188753Y-7732174D01*
X7188753Y-7732174D02*
X7207801Y-7722650D01*
X7207801Y-7722650D02*
X7245896Y-7722650D01*
X7245896Y-7722650D02*
X7264944Y-7732174D01*
X7264944Y-7732174D02*
X7274468Y-7751222D01*
X7274468Y-7751222D02*
X7274468Y-7770269D01*
X7274468Y-7770269D02*
X7179230Y-7789317D01*
X7350658Y-7846460D02*
X7369706Y-7855984D01*
X7369706Y-7855984D02*
X7407801Y-7855984D01*
X7407801Y-7855984D02*
X7426849Y-7846460D01*
X7426849Y-7846460D02*
X7436372Y-7827412D01*
X7436372Y-7827412D02*
X7436372Y-7817888D01*
X7436372Y-7817888D02*
X7426849Y-7798841D01*
X7426849Y-7798841D02*
X7407801Y-7789317D01*
X7407801Y-7789317D02*
X7379230Y-7789317D01*
X7379230Y-7789317D02*
X7360182Y-7779793D01*
X7360182Y-7779793D02*
X7350658Y-7760746D01*
X7350658Y-7760746D02*
X7350658Y-7751222D01*
X7350658Y-7751222D02*
X7360182Y-7732174D01*
X7360182Y-7732174D02*
X7379230Y-7722650D01*
X7379230Y-7722650D02*
X7407801Y-7722650D01*
X7407801Y-7722650D02*
X7426849Y-7732174D01*
X7503039Y-7932174D02*
X7512563Y-7922650D01*
X7512563Y-7922650D02*
X7531611Y-7894079D01*
X7531611Y-7894079D02*
X7541134Y-7875031D01*
X7541134Y-7875031D02*
X7550658Y-7846460D01*
X7550658Y-7846460D02*
X7560182Y-7798841D01*
X7560182Y-7798841D02*
X7560182Y-7760746D01*
X7560182Y-7760746D02*
X7550658Y-7713127D01*
X7550658Y-7713127D02*
X7541134Y-7684555D01*
X7541134Y-7684555D02*
X7531611Y-7665508D01*
X7531611Y-7665508D02*
X7512563Y-7636936D01*
X7512563Y-7636936D02*
X7503039Y-7627412D01*
D12*
X2487500Y-7978500D02*
X2487500Y-8078500D01*
X2437500Y-8028500D02*
X2537500Y-8028500D01*
D11*
X2903039Y-8119984D02*
X2788753Y-8119984D01*
X2845896Y-8119984D02*
X2845896Y-7919984D01*
X2845896Y-7919984D02*
X2826848Y-7948555D01*
X2826848Y-7948555D02*
X2807801Y-7967603D01*
X2807801Y-7967603D02*
X2788753Y-7977127D01*
X2988753Y-8100936D02*
X2998277Y-8110460D01*
X2998277Y-8110460D02*
X2988753Y-8119984D01*
X2988753Y-8119984D02*
X2979229Y-8110460D01*
X2979229Y-8110460D02*
X2988753Y-8100936D01*
X2988753Y-8100936D02*
X2988753Y-8119984D01*
X3122086Y-7919984D02*
X3141134Y-7919984D01*
X3141134Y-7919984D02*
X3160182Y-7929508D01*
X3160182Y-7929508D02*
X3169705Y-7939031D01*
X3169705Y-7939031D02*
X3179229Y-7958079D01*
X3179229Y-7958079D02*
X3188753Y-7996174D01*
X3188753Y-7996174D02*
X3188753Y-8043793D01*
X3188753Y-8043793D02*
X3179229Y-8081888D01*
X3179229Y-8081888D02*
X3169705Y-8100936D01*
X3169705Y-8100936D02*
X3160182Y-8110460D01*
X3160182Y-8110460D02*
X3141134Y-8119984D01*
X3141134Y-8119984D02*
X3122086Y-8119984D01*
X3122086Y-8119984D02*
X3103039Y-8110460D01*
X3103039Y-8110460D02*
X3093515Y-8100936D01*
X3093515Y-8100936D02*
X3083991Y-8081888D01*
X3083991Y-8081888D02*
X3074467Y-8043793D01*
X3074467Y-8043793D02*
X3074467Y-7996174D01*
X3074467Y-7996174D02*
X3083991Y-7958079D01*
X3083991Y-7958079D02*
X3093515Y-7939031D01*
X3093515Y-7939031D02*
X3103039Y-7929508D01*
X3103039Y-7929508D02*
X3122086Y-7919984D01*
X3312562Y-7919984D02*
X3331610Y-7919984D01*
X3331610Y-7919984D02*
X3350658Y-7929508D01*
X3350658Y-7929508D02*
X3360182Y-7939031D01*
X3360182Y-7939031D02*
X3369705Y-7958079D01*
X3369705Y-7958079D02*
X3379229Y-7996174D01*
X3379229Y-7996174D02*
X3379229Y-8043793D01*
X3379229Y-8043793D02*
X3369705Y-8081888D01*
X3369705Y-8081888D02*
X3360182Y-8100936D01*
X3360182Y-8100936D02*
X3350658Y-8110460D01*
X3350658Y-8110460D02*
X3331610Y-8119984D01*
X3331610Y-8119984D02*
X3312562Y-8119984D01*
X3312562Y-8119984D02*
X3293515Y-8110460D01*
X3293515Y-8110460D02*
X3283991Y-8100936D01*
X3283991Y-8100936D02*
X3274467Y-8081888D01*
X3274467Y-8081888D02*
X3264943Y-8043793D01*
X3264943Y-8043793D02*
X3264943Y-7996174D01*
X3264943Y-7996174D02*
X3274467Y-7958079D01*
X3274467Y-7958079D02*
X3283991Y-7939031D01*
X3283991Y-7939031D02*
X3293515Y-7929508D01*
X3293515Y-7929508D02*
X3312562Y-7919984D01*
X3503039Y-7919984D02*
X3522086Y-7919984D01*
X3522086Y-7919984D02*
X3541134Y-7929508D01*
X3541134Y-7929508D02*
X3550658Y-7939031D01*
X3550658Y-7939031D02*
X3560182Y-7958079D01*
X3560182Y-7958079D02*
X3569705Y-7996174D01*
X3569705Y-7996174D02*
X3569705Y-8043793D01*
X3569705Y-8043793D02*
X3560182Y-8081888D01*
X3560182Y-8081888D02*
X3550658Y-8100936D01*
X3550658Y-8100936D02*
X3541134Y-8110460D01*
X3541134Y-8110460D02*
X3522086Y-8119984D01*
X3522086Y-8119984D02*
X3503039Y-8119984D01*
X3503039Y-8119984D02*
X3483991Y-8110460D01*
X3483991Y-8110460D02*
X3474467Y-8100936D01*
X3474467Y-8100936D02*
X3464943Y-8081888D01*
X3464943Y-8081888D02*
X3455420Y-8043793D01*
X3455420Y-8043793D02*
X3455420Y-7996174D01*
X3455420Y-7996174D02*
X3464943Y-7958079D01*
X3464943Y-7958079D02*
X3474467Y-7939031D01*
X3474467Y-7939031D02*
X3483991Y-7929508D01*
X3483991Y-7929508D02*
X3503039Y-7919984D01*
X3655420Y-8119984D02*
X3655420Y-7986650D01*
X3655420Y-8005698D02*
X3664943Y-7996174D01*
X3664943Y-7996174D02*
X3683991Y-7986650D01*
X3683991Y-7986650D02*
X3712563Y-7986650D01*
X3712563Y-7986650D02*
X3731610Y-7996174D01*
X3731610Y-7996174D02*
X3741134Y-8015222D01*
X3741134Y-8015222D02*
X3741134Y-8119984D01*
X3741134Y-8015222D02*
X3750658Y-7996174D01*
X3750658Y-7996174D02*
X3769705Y-7986650D01*
X3769705Y-7986650D02*
X3798277Y-7986650D01*
X3798277Y-7986650D02*
X3817324Y-7996174D01*
X3817324Y-7996174D02*
X3826848Y-8015222D01*
X3826848Y-8015222D02*
X3826848Y-8119984D01*
X3922086Y-8119984D02*
X3922086Y-7986650D01*
X3922086Y-8005698D02*
X3931610Y-7996174D01*
X3931610Y-7996174D02*
X3950658Y-7986650D01*
X3950658Y-7986650D02*
X3979229Y-7986650D01*
X3979229Y-7986650D02*
X3998277Y-7996174D01*
X3998277Y-7996174D02*
X4007801Y-8015222D01*
X4007801Y-8015222D02*
X4007801Y-8119984D01*
X4007801Y-8015222D02*
X4017324Y-7996174D01*
X4017324Y-7996174D02*
X4036372Y-7986650D01*
X4036372Y-7986650D02*
X4064943Y-7986650D01*
X4064943Y-7986650D02*
X4083991Y-7996174D01*
X4083991Y-7996174D02*
X4093515Y-8015222D01*
X4093515Y-8015222D02*
X4093515Y-8119984D01*
X4483991Y-7910460D02*
X4312563Y-8167603D01*
X4741134Y-7919984D02*
X4760182Y-7919984D01*
X4760182Y-7919984D02*
X4779229Y-7929508D01*
X4779229Y-7929508D02*
X4788753Y-7939031D01*
X4788753Y-7939031D02*
X4798277Y-7958079D01*
X4798277Y-7958079D02*
X4807801Y-7996174D01*
X4807801Y-7996174D02*
X4807801Y-8043793D01*
X4807801Y-8043793D02*
X4798277Y-8081888D01*
X4798277Y-8081888D02*
X4788753Y-8100936D01*
X4788753Y-8100936D02*
X4779229Y-8110460D01*
X4779229Y-8110460D02*
X4760182Y-8119984D01*
X4760182Y-8119984D02*
X4741134Y-8119984D01*
X4741134Y-8119984D02*
X4722087Y-8110460D01*
X4722087Y-8110460D02*
X4712563Y-8100936D01*
X4712563Y-8100936D02*
X4703039Y-8081888D01*
X4703039Y-8081888D02*
X4693515Y-8043793D01*
X4693515Y-8043793D02*
X4693515Y-7996174D01*
X4693515Y-7996174D02*
X4703039Y-7958079D01*
X4703039Y-7958079D02*
X4712563Y-7939031D01*
X4712563Y-7939031D02*
X4722087Y-7929508D01*
X4722087Y-7929508D02*
X4741134Y-7919984D01*
X4893515Y-8100936D02*
X4903039Y-8110460D01*
X4903039Y-8110460D02*
X4893515Y-8119984D01*
X4893515Y-8119984D02*
X4883991Y-8110460D01*
X4883991Y-8110460D02*
X4893515Y-8100936D01*
X4893515Y-8100936D02*
X4893515Y-8119984D01*
X5026848Y-7919984D02*
X5045896Y-7919984D01*
X5045896Y-7919984D02*
X5064944Y-7929508D01*
X5064944Y-7929508D02*
X5074468Y-7939031D01*
X5074468Y-7939031D02*
X5083991Y-7958079D01*
X5083991Y-7958079D02*
X5093515Y-7996174D01*
X5093515Y-7996174D02*
X5093515Y-8043793D01*
X5093515Y-8043793D02*
X5083991Y-8081888D01*
X5083991Y-8081888D02*
X5074468Y-8100936D01*
X5074468Y-8100936D02*
X5064944Y-8110460D01*
X5064944Y-8110460D02*
X5045896Y-8119984D01*
X5045896Y-8119984D02*
X5026848Y-8119984D01*
X5026848Y-8119984D02*
X5007801Y-8110460D01*
X5007801Y-8110460D02*
X4998277Y-8100936D01*
X4998277Y-8100936D02*
X4988753Y-8081888D01*
X4988753Y-8081888D02*
X4979229Y-8043793D01*
X4979229Y-8043793D02*
X4979229Y-7996174D01*
X4979229Y-7996174D02*
X4988753Y-7958079D01*
X4988753Y-7958079D02*
X4998277Y-7939031D01*
X4998277Y-7939031D02*
X5007801Y-7929508D01*
X5007801Y-7929508D02*
X5026848Y-7919984D01*
X5160182Y-7919984D02*
X5283991Y-7919984D01*
X5283991Y-7919984D02*
X5217325Y-7996174D01*
X5217325Y-7996174D02*
X5245896Y-7996174D01*
X5245896Y-7996174D02*
X5264944Y-8005698D01*
X5264944Y-8005698D02*
X5274468Y-8015222D01*
X5274468Y-8015222D02*
X5283991Y-8034269D01*
X5283991Y-8034269D02*
X5283991Y-8081888D01*
X5283991Y-8081888D02*
X5274468Y-8100936D01*
X5274468Y-8100936D02*
X5264944Y-8110460D01*
X5264944Y-8110460D02*
X5245896Y-8119984D01*
X5245896Y-8119984D02*
X5188753Y-8119984D01*
X5188753Y-8119984D02*
X5169706Y-8110460D01*
X5169706Y-8110460D02*
X5160182Y-8100936D01*
X5379229Y-8119984D02*
X5417325Y-8119984D01*
X5417325Y-8119984D02*
X5436372Y-8110460D01*
X5436372Y-8110460D02*
X5445896Y-8100936D01*
X5445896Y-8100936D02*
X5464944Y-8072365D01*
X5464944Y-8072365D02*
X5474468Y-8034269D01*
X5474468Y-8034269D02*
X5474468Y-7958079D01*
X5474468Y-7958079D02*
X5464944Y-7939031D01*
X5464944Y-7939031D02*
X5455420Y-7929508D01*
X5455420Y-7929508D02*
X5436372Y-7919984D01*
X5436372Y-7919984D02*
X5398277Y-7919984D01*
X5398277Y-7919984D02*
X5379229Y-7929508D01*
X5379229Y-7929508D02*
X5369706Y-7939031D01*
X5369706Y-7939031D02*
X5360182Y-7958079D01*
X5360182Y-7958079D02*
X5360182Y-8005698D01*
X5360182Y-8005698D02*
X5369706Y-8024746D01*
X5369706Y-8024746D02*
X5379229Y-8034269D01*
X5379229Y-8034269D02*
X5398277Y-8043793D01*
X5398277Y-8043793D02*
X5436372Y-8043793D01*
X5436372Y-8043793D02*
X5455420Y-8034269D01*
X5455420Y-8034269D02*
X5464944Y-8024746D01*
X5464944Y-8024746D02*
X5474468Y-8005698D01*
X5645896Y-7986650D02*
X5645896Y-8119984D01*
X5598277Y-7910460D02*
X5550658Y-8053317D01*
X5550658Y-8053317D02*
X5674467Y-8053317D01*
X5741134Y-7919984D02*
X5741134Y-7958079D01*
X5817325Y-7919984D02*
X5817325Y-7958079D01*
X6112563Y-8196174D02*
X6103039Y-8186650D01*
X6103039Y-8186650D02*
X6083991Y-8158079D01*
X6083991Y-8158079D02*
X6074468Y-8139031D01*
X6074468Y-8139031D02*
X6064944Y-8110460D01*
X6064944Y-8110460D02*
X6055420Y-8062841D01*
X6055420Y-8062841D02*
X6055420Y-8024746D01*
X6055420Y-8024746D02*
X6064944Y-7977127D01*
X6064944Y-7977127D02*
X6074468Y-7948555D01*
X6074468Y-7948555D02*
X6083991Y-7929508D01*
X6083991Y-7929508D02*
X6103039Y-7900936D01*
X6103039Y-7900936D02*
X6112563Y-7891412D01*
X6217325Y-8005698D02*
X6198277Y-7996174D01*
X6198277Y-7996174D02*
X6188753Y-7986650D01*
X6188753Y-7986650D02*
X6179229Y-7967603D01*
X6179229Y-7967603D02*
X6179229Y-7958079D01*
X6179229Y-7958079D02*
X6188753Y-7939031D01*
X6188753Y-7939031D02*
X6198277Y-7929508D01*
X6198277Y-7929508D02*
X6217325Y-7919984D01*
X6217325Y-7919984D02*
X6255420Y-7919984D01*
X6255420Y-7919984D02*
X6274468Y-7929508D01*
X6274468Y-7929508D02*
X6283991Y-7939031D01*
X6283991Y-7939031D02*
X6293515Y-7958079D01*
X6293515Y-7958079D02*
X6293515Y-7967603D01*
X6293515Y-7967603D02*
X6283991Y-7986650D01*
X6283991Y-7986650D02*
X6274468Y-7996174D01*
X6274468Y-7996174D02*
X6255420Y-8005698D01*
X6255420Y-8005698D02*
X6217325Y-8005698D01*
X6217325Y-8005698D02*
X6198277Y-8015222D01*
X6198277Y-8015222D02*
X6188753Y-8024746D01*
X6188753Y-8024746D02*
X6179229Y-8043793D01*
X6179229Y-8043793D02*
X6179229Y-8081888D01*
X6179229Y-8081888D02*
X6188753Y-8100936D01*
X6188753Y-8100936D02*
X6198277Y-8110460D01*
X6198277Y-8110460D02*
X6217325Y-8119984D01*
X6217325Y-8119984D02*
X6255420Y-8119984D01*
X6255420Y-8119984D02*
X6274468Y-8110460D01*
X6274468Y-8110460D02*
X6283991Y-8100936D01*
X6283991Y-8100936D02*
X6293515Y-8081888D01*
X6293515Y-8081888D02*
X6293515Y-8043793D01*
X6293515Y-8043793D02*
X6283991Y-8024746D01*
X6283991Y-8024746D02*
X6274468Y-8015222D01*
X6274468Y-8015222D02*
X6255420Y-8005698D01*
X6531610Y-8119984D02*
X6531610Y-7919984D01*
X6617325Y-8119984D02*
X6617325Y-8015222D01*
X6617325Y-8015222D02*
X6607801Y-7996174D01*
X6607801Y-7996174D02*
X6588753Y-7986650D01*
X6588753Y-7986650D02*
X6560182Y-7986650D01*
X6560182Y-7986650D02*
X6541134Y-7996174D01*
X6541134Y-7996174D02*
X6531610Y-8005698D01*
X6741134Y-8119984D02*
X6722087Y-8110460D01*
X6722087Y-8110460D02*
X6712563Y-8100936D01*
X6712563Y-8100936D02*
X6703039Y-8081888D01*
X6703039Y-8081888D02*
X6703039Y-8024746D01*
X6703039Y-8024746D02*
X6712563Y-8005698D01*
X6712563Y-8005698D02*
X6722087Y-7996174D01*
X6722087Y-7996174D02*
X6741134Y-7986650D01*
X6741134Y-7986650D02*
X6769706Y-7986650D01*
X6769706Y-7986650D02*
X6788753Y-7996174D01*
X6788753Y-7996174D02*
X6798277Y-8005698D01*
X6798277Y-8005698D02*
X6807801Y-8024746D01*
X6807801Y-8024746D02*
X6807801Y-8081888D01*
X6807801Y-8081888D02*
X6798277Y-8100936D01*
X6798277Y-8100936D02*
X6788753Y-8110460D01*
X6788753Y-8110460D02*
X6769706Y-8119984D01*
X6769706Y-8119984D02*
X6741134Y-8119984D01*
X6922087Y-8119984D02*
X6903039Y-8110460D01*
X6903039Y-8110460D02*
X6893515Y-8091412D01*
X6893515Y-8091412D02*
X6893515Y-7919984D01*
X7074468Y-8110460D02*
X7055420Y-8119984D01*
X7055420Y-8119984D02*
X7017325Y-8119984D01*
X7017325Y-8119984D02*
X6998277Y-8110460D01*
X6998277Y-8110460D02*
X6988753Y-8091412D01*
X6988753Y-8091412D02*
X6988753Y-8015222D01*
X6988753Y-8015222D02*
X6998277Y-7996174D01*
X6998277Y-7996174D02*
X7017325Y-7986650D01*
X7017325Y-7986650D02*
X7055420Y-7986650D01*
X7055420Y-7986650D02*
X7074468Y-7996174D01*
X7074468Y-7996174D02*
X7083991Y-8015222D01*
X7083991Y-8015222D02*
X7083991Y-8034269D01*
X7083991Y-8034269D02*
X6988753Y-8053317D01*
X7160182Y-8110460D02*
X7179230Y-8119984D01*
X7179230Y-8119984D02*
X7217325Y-8119984D01*
X7217325Y-8119984D02*
X7236372Y-8110460D01*
X7236372Y-8110460D02*
X7245896Y-8091412D01*
X7245896Y-8091412D02*
X7245896Y-8081888D01*
X7245896Y-8081888D02*
X7236372Y-8062841D01*
X7236372Y-8062841D02*
X7217325Y-8053317D01*
X7217325Y-8053317D02*
X7188753Y-8053317D01*
X7188753Y-8053317D02*
X7169706Y-8043793D01*
X7169706Y-8043793D02*
X7160182Y-8024746D01*
X7160182Y-8024746D02*
X7160182Y-8015222D01*
X7160182Y-8015222D02*
X7169706Y-7996174D01*
X7169706Y-7996174D02*
X7188753Y-7986650D01*
X7188753Y-7986650D02*
X7217325Y-7986650D01*
X7217325Y-7986650D02*
X7236372Y-7996174D01*
X7312563Y-8196174D02*
X7322087Y-8186650D01*
X7322087Y-8186650D02*
X7341134Y-8158079D01*
X7341134Y-8158079D02*
X7350658Y-8139031D01*
X7350658Y-8139031D02*
X7360182Y-8110460D01*
X7360182Y-8110460D02*
X7369706Y-8062841D01*
X7369706Y-8062841D02*
X7369706Y-8024746D01*
X7369706Y-8024746D02*
X7360182Y-7977127D01*
X7360182Y-7977127D02*
X7350658Y-7948555D01*
X7350658Y-7948555D02*
X7341134Y-7929508D01*
X7341134Y-7929508D02*
X7322087Y-7900936D01*
X7322087Y-7900936D02*
X7312563Y-7891412D01*
D13*
X2519927Y-8334927D02*
X2519927Y-8250073D01*
X2435073Y-8250073D01*
X2435073Y-8334927D01*
X2519927Y-8334927D01*
D11*
X2903039Y-8383984D02*
X2788753Y-8383984D01*
X2845896Y-8383984D02*
X2845896Y-8183984D01*
X2845896Y-8183984D02*
X2826848Y-8212555D01*
X2826848Y-8212555D02*
X2807801Y-8231603D01*
X2807801Y-8231603D02*
X2788753Y-8241127D01*
X2988753Y-8364936D02*
X2998277Y-8374460D01*
X2998277Y-8374460D02*
X2988753Y-8383984D01*
X2988753Y-8383984D02*
X2979229Y-8374460D01*
X2979229Y-8374460D02*
X2988753Y-8364936D01*
X2988753Y-8364936D02*
X2988753Y-8383984D01*
X3074467Y-8203031D02*
X3083991Y-8193508D01*
X3083991Y-8193508D02*
X3103039Y-8183984D01*
X3103039Y-8183984D02*
X3150658Y-8183984D01*
X3150658Y-8183984D02*
X3169705Y-8193508D01*
X3169705Y-8193508D02*
X3179229Y-8203031D01*
X3179229Y-8203031D02*
X3188753Y-8222079D01*
X3188753Y-8222079D02*
X3188753Y-8241127D01*
X3188753Y-8241127D02*
X3179229Y-8269698D01*
X3179229Y-8269698D02*
X3064943Y-8383984D01*
X3064943Y-8383984D02*
X3188753Y-8383984D01*
X3312562Y-8183984D02*
X3331610Y-8183984D01*
X3331610Y-8183984D02*
X3350658Y-8193508D01*
X3350658Y-8193508D02*
X3360182Y-8203031D01*
X3360182Y-8203031D02*
X3369705Y-8222079D01*
X3369705Y-8222079D02*
X3379229Y-8260174D01*
X3379229Y-8260174D02*
X3379229Y-8307793D01*
X3379229Y-8307793D02*
X3369705Y-8345888D01*
X3369705Y-8345888D02*
X3360182Y-8364936D01*
X3360182Y-8364936D02*
X3350658Y-8374460D01*
X3350658Y-8374460D02*
X3331610Y-8383984D01*
X3331610Y-8383984D02*
X3312562Y-8383984D01*
X3312562Y-8383984D02*
X3293515Y-8374460D01*
X3293515Y-8374460D02*
X3283991Y-8364936D01*
X3283991Y-8364936D02*
X3274467Y-8345888D01*
X3274467Y-8345888D02*
X3264943Y-8307793D01*
X3264943Y-8307793D02*
X3264943Y-8260174D01*
X3264943Y-8260174D02*
X3274467Y-8222079D01*
X3274467Y-8222079D02*
X3283991Y-8203031D01*
X3283991Y-8203031D02*
X3293515Y-8193508D01*
X3293515Y-8193508D02*
X3312562Y-8183984D01*
X3503039Y-8183984D02*
X3522086Y-8183984D01*
X3522086Y-8183984D02*
X3541134Y-8193508D01*
X3541134Y-8193508D02*
X3550658Y-8203031D01*
X3550658Y-8203031D02*
X3560182Y-8222079D01*
X3560182Y-8222079D02*
X3569705Y-8260174D01*
X3569705Y-8260174D02*
X3569705Y-8307793D01*
X3569705Y-8307793D02*
X3560182Y-8345888D01*
X3560182Y-8345888D02*
X3550658Y-8364936D01*
X3550658Y-8364936D02*
X3541134Y-8374460D01*
X3541134Y-8374460D02*
X3522086Y-8383984D01*
X3522086Y-8383984D02*
X3503039Y-8383984D01*
X3503039Y-8383984D02*
X3483991Y-8374460D01*
X3483991Y-8374460D02*
X3474467Y-8364936D01*
X3474467Y-8364936D02*
X3464943Y-8345888D01*
X3464943Y-8345888D02*
X3455420Y-8307793D01*
X3455420Y-8307793D02*
X3455420Y-8260174D01*
X3455420Y-8260174D02*
X3464943Y-8222079D01*
X3464943Y-8222079D02*
X3474467Y-8203031D01*
X3474467Y-8203031D02*
X3483991Y-8193508D01*
X3483991Y-8193508D02*
X3503039Y-8183984D01*
X3655420Y-8383984D02*
X3655420Y-8250650D01*
X3655420Y-8269698D02*
X3664943Y-8260174D01*
X3664943Y-8260174D02*
X3683991Y-8250650D01*
X3683991Y-8250650D02*
X3712563Y-8250650D01*
X3712563Y-8250650D02*
X3731610Y-8260174D01*
X3731610Y-8260174D02*
X3741134Y-8279222D01*
X3741134Y-8279222D02*
X3741134Y-8383984D01*
X3741134Y-8279222D02*
X3750658Y-8260174D01*
X3750658Y-8260174D02*
X3769705Y-8250650D01*
X3769705Y-8250650D02*
X3798277Y-8250650D01*
X3798277Y-8250650D02*
X3817324Y-8260174D01*
X3817324Y-8260174D02*
X3826848Y-8279222D01*
X3826848Y-8279222D02*
X3826848Y-8383984D01*
X3922086Y-8383984D02*
X3922086Y-8250650D01*
X3922086Y-8269698D02*
X3931610Y-8260174D01*
X3931610Y-8260174D02*
X3950658Y-8250650D01*
X3950658Y-8250650D02*
X3979229Y-8250650D01*
X3979229Y-8250650D02*
X3998277Y-8260174D01*
X3998277Y-8260174D02*
X4007801Y-8279222D01*
X4007801Y-8279222D02*
X4007801Y-8383984D01*
X4007801Y-8279222D02*
X4017324Y-8260174D01*
X4017324Y-8260174D02*
X4036372Y-8250650D01*
X4036372Y-8250650D02*
X4064943Y-8250650D01*
X4064943Y-8250650D02*
X4083991Y-8260174D01*
X4083991Y-8260174D02*
X4093515Y-8279222D01*
X4093515Y-8279222D02*
X4093515Y-8383984D01*
X4483991Y-8174460D02*
X4312563Y-8431603D01*
X4741134Y-8183984D02*
X4760182Y-8183984D01*
X4760182Y-8183984D02*
X4779229Y-8193508D01*
X4779229Y-8193508D02*
X4788753Y-8203031D01*
X4788753Y-8203031D02*
X4798277Y-8222079D01*
X4798277Y-8222079D02*
X4807801Y-8260174D01*
X4807801Y-8260174D02*
X4807801Y-8307793D01*
X4807801Y-8307793D02*
X4798277Y-8345888D01*
X4798277Y-8345888D02*
X4788753Y-8364936D01*
X4788753Y-8364936D02*
X4779229Y-8374460D01*
X4779229Y-8374460D02*
X4760182Y-8383984D01*
X4760182Y-8383984D02*
X4741134Y-8383984D01*
X4741134Y-8383984D02*
X4722087Y-8374460D01*
X4722087Y-8374460D02*
X4712563Y-8364936D01*
X4712563Y-8364936D02*
X4703039Y-8345888D01*
X4703039Y-8345888D02*
X4693515Y-8307793D01*
X4693515Y-8307793D02*
X4693515Y-8260174D01*
X4693515Y-8260174D02*
X4703039Y-8222079D01*
X4703039Y-8222079D02*
X4712563Y-8203031D01*
X4712563Y-8203031D02*
X4722087Y-8193508D01*
X4722087Y-8193508D02*
X4741134Y-8183984D01*
X4893515Y-8364936D02*
X4903039Y-8374460D01*
X4903039Y-8374460D02*
X4893515Y-8383984D01*
X4893515Y-8383984D02*
X4883991Y-8374460D01*
X4883991Y-8374460D02*
X4893515Y-8364936D01*
X4893515Y-8364936D02*
X4893515Y-8383984D01*
X5026848Y-8183984D02*
X5045896Y-8183984D01*
X5045896Y-8183984D02*
X5064944Y-8193508D01*
X5064944Y-8193508D02*
X5074468Y-8203031D01*
X5074468Y-8203031D02*
X5083991Y-8222079D01*
X5083991Y-8222079D02*
X5093515Y-8260174D01*
X5093515Y-8260174D02*
X5093515Y-8307793D01*
X5093515Y-8307793D02*
X5083991Y-8345888D01*
X5083991Y-8345888D02*
X5074468Y-8364936D01*
X5074468Y-8364936D02*
X5064944Y-8374460D01*
X5064944Y-8374460D02*
X5045896Y-8383984D01*
X5045896Y-8383984D02*
X5026848Y-8383984D01*
X5026848Y-8383984D02*
X5007801Y-8374460D01*
X5007801Y-8374460D02*
X4998277Y-8364936D01*
X4998277Y-8364936D02*
X4988753Y-8345888D01*
X4988753Y-8345888D02*
X4979229Y-8307793D01*
X4979229Y-8307793D02*
X4979229Y-8260174D01*
X4979229Y-8260174D02*
X4988753Y-8222079D01*
X4988753Y-8222079D02*
X4998277Y-8203031D01*
X4998277Y-8203031D02*
X5007801Y-8193508D01*
X5007801Y-8193508D02*
X5026848Y-8183984D01*
X5264944Y-8250650D02*
X5264944Y-8383984D01*
X5217325Y-8174460D02*
X5169706Y-8317317D01*
X5169706Y-8317317D02*
X5293515Y-8317317D01*
X5350658Y-8183984D02*
X5483991Y-8183984D01*
X5483991Y-8183984D02*
X5398277Y-8383984D01*
X5550658Y-8203031D02*
X5560182Y-8193508D01*
X5560182Y-8193508D02*
X5579229Y-8183984D01*
X5579229Y-8183984D02*
X5626848Y-8183984D01*
X5626848Y-8183984D02*
X5645896Y-8193508D01*
X5645896Y-8193508D02*
X5655420Y-8203031D01*
X5655420Y-8203031D02*
X5664944Y-8222079D01*
X5664944Y-8222079D02*
X5664944Y-8241127D01*
X5664944Y-8241127D02*
X5655420Y-8269698D01*
X5655420Y-8269698D02*
X5541134Y-8383984D01*
X5541134Y-8383984D02*
X5664944Y-8383984D01*
X5741134Y-8183984D02*
X5741134Y-8222079D01*
X5817325Y-8183984D02*
X5817325Y-8222079D01*
X6112563Y-8460174D02*
X6103039Y-8450650D01*
X6103039Y-8450650D02*
X6083991Y-8422079D01*
X6083991Y-8422079D02*
X6074468Y-8403031D01*
X6074468Y-8403031D02*
X6064944Y-8374460D01*
X6064944Y-8374460D02*
X6055420Y-8326841D01*
X6055420Y-8326841D02*
X6055420Y-8288746D01*
X6055420Y-8288746D02*
X6064944Y-8241127D01*
X6064944Y-8241127D02*
X6074468Y-8212555D01*
X6074468Y-8212555D02*
X6083991Y-8193508D01*
X6083991Y-8193508D02*
X6103039Y-8164936D01*
X6103039Y-8164936D02*
X6112563Y-8155412D01*
X6293515Y-8383984D02*
X6179229Y-8383984D01*
X6236372Y-8383984D02*
X6236372Y-8183984D01*
X6236372Y-8183984D02*
X6217325Y-8212555D01*
X6217325Y-8212555D02*
X6198277Y-8231603D01*
X6198277Y-8231603D02*
X6179229Y-8241127D01*
X6369706Y-8203031D02*
X6379229Y-8193508D01*
X6379229Y-8193508D02*
X6398277Y-8183984D01*
X6398277Y-8183984D02*
X6445896Y-8183984D01*
X6445896Y-8183984D02*
X6464944Y-8193508D01*
X6464944Y-8193508D02*
X6474468Y-8203031D01*
X6474468Y-8203031D02*
X6483991Y-8222079D01*
X6483991Y-8222079D02*
X6483991Y-8241127D01*
X6483991Y-8241127D02*
X6474468Y-8269698D01*
X6474468Y-8269698D02*
X6360182Y-8383984D01*
X6360182Y-8383984D02*
X6483991Y-8383984D01*
X6722087Y-8383984D02*
X6722087Y-8183984D01*
X6807801Y-8383984D02*
X6807801Y-8279222D01*
X6807801Y-8279222D02*
X6798277Y-8260174D01*
X6798277Y-8260174D02*
X6779230Y-8250650D01*
X6779230Y-8250650D02*
X6750658Y-8250650D01*
X6750658Y-8250650D02*
X6731610Y-8260174D01*
X6731610Y-8260174D02*
X6722087Y-8269698D01*
X6931610Y-8383984D02*
X6912563Y-8374460D01*
X6912563Y-8374460D02*
X6903039Y-8364936D01*
X6903039Y-8364936D02*
X6893515Y-8345888D01*
X6893515Y-8345888D02*
X6893515Y-8288746D01*
X6893515Y-8288746D02*
X6903039Y-8269698D01*
X6903039Y-8269698D02*
X6912563Y-8260174D01*
X6912563Y-8260174D02*
X6931610Y-8250650D01*
X6931610Y-8250650D02*
X6960182Y-8250650D01*
X6960182Y-8250650D02*
X6979230Y-8260174D01*
X6979230Y-8260174D02*
X6988753Y-8269698D01*
X6988753Y-8269698D02*
X6998277Y-8288746D01*
X6998277Y-8288746D02*
X6998277Y-8345888D01*
X6998277Y-8345888D02*
X6988753Y-8364936D01*
X6988753Y-8364936D02*
X6979230Y-8374460D01*
X6979230Y-8374460D02*
X6960182Y-8383984D01*
X6960182Y-8383984D02*
X6931610Y-8383984D01*
X7112563Y-8383984D02*
X7093515Y-8374460D01*
X7093515Y-8374460D02*
X7083991Y-8355412D01*
X7083991Y-8355412D02*
X7083991Y-8183984D01*
X7264944Y-8374460D02*
X7245896Y-8383984D01*
X7245896Y-8383984D02*
X7207801Y-8383984D01*
X7207801Y-8383984D02*
X7188753Y-8374460D01*
X7188753Y-8374460D02*
X7179230Y-8355412D01*
X7179230Y-8355412D02*
X7179230Y-8279222D01*
X7179230Y-8279222D02*
X7188753Y-8260174D01*
X7188753Y-8260174D02*
X7207801Y-8250650D01*
X7207801Y-8250650D02*
X7245896Y-8250650D01*
X7245896Y-8250650D02*
X7264944Y-8260174D01*
X7264944Y-8260174D02*
X7274468Y-8279222D01*
X7274468Y-8279222D02*
X7274468Y-8298269D01*
X7274468Y-8298269D02*
X7179230Y-8317317D01*
X7350658Y-8374460D02*
X7369706Y-8383984D01*
X7369706Y-8383984D02*
X7407801Y-8383984D01*
X7407801Y-8383984D02*
X7426849Y-8374460D01*
X7426849Y-8374460D02*
X7436372Y-8355412D01*
X7436372Y-8355412D02*
X7436372Y-8345888D01*
X7436372Y-8345888D02*
X7426849Y-8326841D01*
X7426849Y-8326841D02*
X7407801Y-8317317D01*
X7407801Y-8317317D02*
X7379230Y-8317317D01*
X7379230Y-8317317D02*
X7360182Y-8307793D01*
X7360182Y-8307793D02*
X7350658Y-8288746D01*
X7350658Y-8288746D02*
X7350658Y-8279222D01*
X7350658Y-8279222D02*
X7360182Y-8260174D01*
X7360182Y-8260174D02*
X7379230Y-8250650D01*
X7379230Y-8250650D02*
X7407801Y-8250650D01*
X7407801Y-8250650D02*
X7426849Y-8260174D01*
X7503039Y-8460174D02*
X7512563Y-8450650D01*
X7512563Y-8450650D02*
X7531611Y-8422079D01*
X7531611Y-8422079D02*
X7541134Y-8403031D01*
X7541134Y-8403031D02*
X7550658Y-8374460D01*
X7550658Y-8374460D02*
X7560182Y-8326841D01*
X7560182Y-8326841D02*
X7560182Y-8288746D01*
X7560182Y-8288746D02*
X7550658Y-8241127D01*
X7550658Y-8241127D02*
X7541134Y-8212555D01*
X7541134Y-8212555D02*
X7531611Y-8193508D01*
X7531611Y-8193508D02*
X7512563Y-8164936D01*
X7512563Y-8164936D02*
X7503039Y-8155412D01*
D14*
X2460000Y-8634000D02*
X2537500Y-8556500D01*
X2460000Y-8479000D01*
X2382500Y-8556500D01*
X2460000Y-8634000D01*
D11*
X2903039Y-8647984D02*
X2788753Y-8647984D01*
X2845896Y-8647984D02*
X2845896Y-8447984D01*
X2845896Y-8447984D02*
X2826848Y-8476555D01*
X2826848Y-8476555D02*
X2807801Y-8495603D01*
X2807801Y-8495603D02*
X2788753Y-8505127D01*
X2988753Y-8628936D02*
X2998277Y-8638460D01*
X2998277Y-8638460D02*
X2988753Y-8647984D01*
X2988753Y-8647984D02*
X2979229Y-8638460D01*
X2979229Y-8638460D02*
X2988753Y-8628936D01*
X2988753Y-8628936D02*
X2988753Y-8647984D01*
X3179229Y-8447984D02*
X3083991Y-8447984D01*
X3083991Y-8447984D02*
X3074467Y-8543222D01*
X3074467Y-8543222D02*
X3083991Y-8533698D01*
X3083991Y-8533698D02*
X3103039Y-8524174D01*
X3103039Y-8524174D02*
X3150658Y-8524174D01*
X3150658Y-8524174D02*
X3169705Y-8533698D01*
X3169705Y-8533698D02*
X3179229Y-8543222D01*
X3179229Y-8543222D02*
X3188753Y-8562270D01*
X3188753Y-8562270D02*
X3188753Y-8609889D01*
X3188753Y-8609889D02*
X3179229Y-8628936D01*
X3179229Y-8628936D02*
X3169705Y-8638460D01*
X3169705Y-8638460D02*
X3150658Y-8647984D01*
X3150658Y-8647984D02*
X3103039Y-8647984D01*
X3103039Y-8647984D02*
X3083991Y-8638460D01*
X3083991Y-8638460D02*
X3074467Y-8628936D01*
X3369705Y-8447984D02*
X3274467Y-8447984D01*
X3274467Y-8447984D02*
X3264943Y-8543222D01*
X3264943Y-8543222D02*
X3274467Y-8533698D01*
X3274467Y-8533698D02*
X3293515Y-8524174D01*
X3293515Y-8524174D02*
X3341134Y-8524174D01*
X3341134Y-8524174D02*
X3360182Y-8533698D01*
X3360182Y-8533698D02*
X3369705Y-8543222D01*
X3369705Y-8543222D02*
X3379229Y-8562270D01*
X3379229Y-8562270D02*
X3379229Y-8609889D01*
X3379229Y-8609889D02*
X3369705Y-8628936D01*
X3369705Y-8628936D02*
X3360182Y-8638460D01*
X3360182Y-8638460D02*
X3341134Y-8647984D01*
X3341134Y-8647984D02*
X3293515Y-8647984D01*
X3293515Y-8647984D02*
X3274467Y-8638460D01*
X3274467Y-8638460D02*
X3264943Y-8628936D01*
X3503039Y-8447984D02*
X3522086Y-8447984D01*
X3522086Y-8447984D02*
X3541134Y-8457508D01*
X3541134Y-8457508D02*
X3550658Y-8467031D01*
X3550658Y-8467031D02*
X3560182Y-8486079D01*
X3560182Y-8486079D02*
X3569705Y-8524174D01*
X3569705Y-8524174D02*
X3569705Y-8571793D01*
X3569705Y-8571793D02*
X3560182Y-8609889D01*
X3560182Y-8609889D02*
X3550658Y-8628936D01*
X3550658Y-8628936D02*
X3541134Y-8638460D01*
X3541134Y-8638460D02*
X3522086Y-8647984D01*
X3522086Y-8647984D02*
X3503039Y-8647984D01*
X3503039Y-8647984D02*
X3483991Y-8638460D01*
X3483991Y-8638460D02*
X3474467Y-8628936D01*
X3474467Y-8628936D02*
X3464943Y-8609889D01*
X3464943Y-8609889D02*
X3455420Y-8571793D01*
X3455420Y-8571793D02*
X3455420Y-8524174D01*
X3455420Y-8524174D02*
X3464943Y-8486079D01*
X3464943Y-8486079D02*
X3474467Y-8467031D01*
X3474467Y-8467031D02*
X3483991Y-8457508D01*
X3483991Y-8457508D02*
X3503039Y-8447984D01*
X3655420Y-8647984D02*
X3655420Y-8514650D01*
X3655420Y-8533698D02*
X3664943Y-8524174D01*
X3664943Y-8524174D02*
X3683991Y-8514650D01*
X3683991Y-8514650D02*
X3712563Y-8514650D01*
X3712563Y-8514650D02*
X3731610Y-8524174D01*
X3731610Y-8524174D02*
X3741134Y-8543222D01*
X3741134Y-8543222D02*
X3741134Y-8647984D01*
X3741134Y-8543222D02*
X3750658Y-8524174D01*
X3750658Y-8524174D02*
X3769705Y-8514650D01*
X3769705Y-8514650D02*
X3798277Y-8514650D01*
X3798277Y-8514650D02*
X3817324Y-8524174D01*
X3817324Y-8524174D02*
X3826848Y-8543222D01*
X3826848Y-8543222D02*
X3826848Y-8647984D01*
X3922086Y-8647984D02*
X3922086Y-8514650D01*
X3922086Y-8533698D02*
X3931610Y-8524174D01*
X3931610Y-8524174D02*
X3950658Y-8514650D01*
X3950658Y-8514650D02*
X3979229Y-8514650D01*
X3979229Y-8514650D02*
X3998277Y-8524174D01*
X3998277Y-8524174D02*
X4007801Y-8543222D01*
X4007801Y-8543222D02*
X4007801Y-8647984D01*
X4007801Y-8543222D02*
X4017324Y-8524174D01*
X4017324Y-8524174D02*
X4036372Y-8514650D01*
X4036372Y-8514650D02*
X4064943Y-8514650D01*
X4064943Y-8514650D02*
X4083991Y-8524174D01*
X4083991Y-8524174D02*
X4093515Y-8543222D01*
X4093515Y-8543222D02*
X4093515Y-8647984D01*
X4483991Y-8438460D02*
X4312563Y-8695603D01*
X4741134Y-8447984D02*
X4760182Y-8447984D01*
X4760182Y-8447984D02*
X4779229Y-8457508D01*
X4779229Y-8457508D02*
X4788753Y-8467031D01*
X4788753Y-8467031D02*
X4798277Y-8486079D01*
X4798277Y-8486079D02*
X4807801Y-8524174D01*
X4807801Y-8524174D02*
X4807801Y-8571793D01*
X4807801Y-8571793D02*
X4798277Y-8609889D01*
X4798277Y-8609889D02*
X4788753Y-8628936D01*
X4788753Y-8628936D02*
X4779229Y-8638460D01*
X4779229Y-8638460D02*
X4760182Y-8647984D01*
X4760182Y-8647984D02*
X4741134Y-8647984D01*
X4741134Y-8647984D02*
X4722087Y-8638460D01*
X4722087Y-8638460D02*
X4712563Y-8628936D01*
X4712563Y-8628936D02*
X4703039Y-8609889D01*
X4703039Y-8609889D02*
X4693515Y-8571793D01*
X4693515Y-8571793D02*
X4693515Y-8524174D01*
X4693515Y-8524174D02*
X4703039Y-8486079D01*
X4703039Y-8486079D02*
X4712563Y-8467031D01*
X4712563Y-8467031D02*
X4722087Y-8457508D01*
X4722087Y-8457508D02*
X4741134Y-8447984D01*
X4893515Y-8628936D02*
X4903039Y-8638460D01*
X4903039Y-8638460D02*
X4893515Y-8647984D01*
X4893515Y-8647984D02*
X4883991Y-8638460D01*
X4883991Y-8638460D02*
X4893515Y-8628936D01*
X4893515Y-8628936D02*
X4893515Y-8647984D01*
X5026848Y-8447984D02*
X5045896Y-8447984D01*
X5045896Y-8447984D02*
X5064944Y-8457508D01*
X5064944Y-8457508D02*
X5074468Y-8467031D01*
X5074468Y-8467031D02*
X5083991Y-8486079D01*
X5083991Y-8486079D02*
X5093515Y-8524174D01*
X5093515Y-8524174D02*
X5093515Y-8571793D01*
X5093515Y-8571793D02*
X5083991Y-8609889D01*
X5083991Y-8609889D02*
X5074468Y-8628936D01*
X5074468Y-8628936D02*
X5064944Y-8638460D01*
X5064944Y-8638460D02*
X5045896Y-8647984D01*
X5045896Y-8647984D02*
X5026848Y-8647984D01*
X5026848Y-8647984D02*
X5007801Y-8638460D01*
X5007801Y-8638460D02*
X4998277Y-8628936D01*
X4998277Y-8628936D02*
X4988753Y-8609889D01*
X4988753Y-8609889D02*
X4979229Y-8571793D01*
X4979229Y-8571793D02*
X4979229Y-8524174D01*
X4979229Y-8524174D02*
X4988753Y-8486079D01*
X4988753Y-8486079D02*
X4998277Y-8467031D01*
X4998277Y-8467031D02*
X5007801Y-8457508D01*
X5007801Y-8457508D02*
X5026848Y-8447984D01*
X5264944Y-8447984D02*
X5226848Y-8447984D01*
X5226848Y-8447984D02*
X5207801Y-8457508D01*
X5207801Y-8457508D02*
X5198277Y-8467031D01*
X5198277Y-8467031D02*
X5179229Y-8495603D01*
X5179229Y-8495603D02*
X5169706Y-8533698D01*
X5169706Y-8533698D02*
X5169706Y-8609889D01*
X5169706Y-8609889D02*
X5179229Y-8628936D01*
X5179229Y-8628936D02*
X5188753Y-8638460D01*
X5188753Y-8638460D02*
X5207801Y-8647984D01*
X5207801Y-8647984D02*
X5245896Y-8647984D01*
X5245896Y-8647984D02*
X5264944Y-8638460D01*
X5264944Y-8638460D02*
X5274468Y-8628936D01*
X5274468Y-8628936D02*
X5283991Y-8609889D01*
X5283991Y-8609889D02*
X5283991Y-8562270D01*
X5283991Y-8562270D02*
X5274468Y-8543222D01*
X5274468Y-8543222D02*
X5264944Y-8533698D01*
X5264944Y-8533698D02*
X5245896Y-8524174D01*
X5245896Y-8524174D02*
X5207801Y-8524174D01*
X5207801Y-8524174D02*
X5188753Y-8533698D01*
X5188753Y-8533698D02*
X5179229Y-8543222D01*
X5179229Y-8543222D02*
X5169706Y-8562270D01*
X5474468Y-8647984D02*
X5360182Y-8647984D01*
X5417325Y-8647984D02*
X5417325Y-8447984D01*
X5417325Y-8447984D02*
X5398277Y-8476555D01*
X5398277Y-8476555D02*
X5379229Y-8495603D01*
X5379229Y-8495603D02*
X5360182Y-8505127D01*
X5598277Y-8447984D02*
X5617325Y-8447984D01*
X5617325Y-8447984D02*
X5636372Y-8457508D01*
X5636372Y-8457508D02*
X5645896Y-8467031D01*
X5645896Y-8467031D02*
X5655420Y-8486079D01*
X5655420Y-8486079D02*
X5664944Y-8524174D01*
X5664944Y-8524174D02*
X5664944Y-8571793D01*
X5664944Y-8571793D02*
X5655420Y-8609889D01*
X5655420Y-8609889D02*
X5645896Y-8628936D01*
X5645896Y-8628936D02*
X5636372Y-8638460D01*
X5636372Y-8638460D02*
X5617325Y-8647984D01*
X5617325Y-8647984D02*
X5598277Y-8647984D01*
X5598277Y-8647984D02*
X5579229Y-8638460D01*
X5579229Y-8638460D02*
X5569706Y-8628936D01*
X5569706Y-8628936D02*
X5560182Y-8609889D01*
X5560182Y-8609889D02*
X5550658Y-8571793D01*
X5550658Y-8571793D02*
X5550658Y-8524174D01*
X5550658Y-8524174D02*
X5560182Y-8486079D01*
X5560182Y-8486079D02*
X5569706Y-8467031D01*
X5569706Y-8467031D02*
X5579229Y-8457508D01*
X5579229Y-8457508D02*
X5598277Y-8447984D01*
X5741134Y-8447984D02*
X5741134Y-8486079D01*
X5817325Y-8447984D02*
X5817325Y-8486079D01*
X6112563Y-8724174D02*
X6103039Y-8714650D01*
X6103039Y-8714650D02*
X6083991Y-8686079D01*
X6083991Y-8686079D02*
X6074468Y-8667031D01*
X6074468Y-8667031D02*
X6064944Y-8638460D01*
X6064944Y-8638460D02*
X6055420Y-8590841D01*
X6055420Y-8590841D02*
X6055420Y-8552746D01*
X6055420Y-8552746D02*
X6064944Y-8505127D01*
X6064944Y-8505127D02*
X6074468Y-8476555D01*
X6074468Y-8476555D02*
X6083991Y-8457508D01*
X6083991Y-8457508D02*
X6103039Y-8428936D01*
X6103039Y-8428936D02*
X6112563Y-8419412D01*
X6169706Y-8447984D02*
X6293515Y-8447984D01*
X6293515Y-8447984D02*
X6226848Y-8524174D01*
X6226848Y-8524174D02*
X6255420Y-8524174D01*
X6255420Y-8524174D02*
X6274468Y-8533698D01*
X6274468Y-8533698D02*
X6283991Y-8543222D01*
X6283991Y-8543222D02*
X6293515Y-8562270D01*
X6293515Y-8562270D02*
X6293515Y-8609889D01*
X6293515Y-8609889D02*
X6283991Y-8628936D01*
X6283991Y-8628936D02*
X6274468Y-8638460D01*
X6274468Y-8638460D02*
X6255420Y-8647984D01*
X6255420Y-8647984D02*
X6198277Y-8647984D01*
X6198277Y-8647984D02*
X6179229Y-8638460D01*
X6179229Y-8638460D02*
X6169706Y-8628936D01*
X6531610Y-8647984D02*
X6531610Y-8447984D01*
X6617325Y-8647984D02*
X6617325Y-8543222D01*
X6617325Y-8543222D02*
X6607801Y-8524174D01*
X6607801Y-8524174D02*
X6588753Y-8514650D01*
X6588753Y-8514650D02*
X6560182Y-8514650D01*
X6560182Y-8514650D02*
X6541134Y-8524174D01*
X6541134Y-8524174D02*
X6531610Y-8533698D01*
X6741134Y-8647984D02*
X6722087Y-8638460D01*
X6722087Y-8638460D02*
X6712563Y-8628936D01*
X6712563Y-8628936D02*
X6703039Y-8609889D01*
X6703039Y-8609889D02*
X6703039Y-8552746D01*
X6703039Y-8552746D02*
X6712563Y-8533698D01*
X6712563Y-8533698D02*
X6722087Y-8524174D01*
X6722087Y-8524174D02*
X6741134Y-8514650D01*
X6741134Y-8514650D02*
X6769706Y-8514650D01*
X6769706Y-8514650D02*
X6788753Y-8524174D01*
X6788753Y-8524174D02*
X6798277Y-8533698D01*
X6798277Y-8533698D02*
X6807801Y-8552746D01*
X6807801Y-8552746D02*
X6807801Y-8609889D01*
X6807801Y-8609889D02*
X6798277Y-8628936D01*
X6798277Y-8628936D02*
X6788753Y-8638460D01*
X6788753Y-8638460D02*
X6769706Y-8647984D01*
X6769706Y-8647984D02*
X6741134Y-8647984D01*
X6922087Y-8647984D02*
X6903039Y-8638460D01*
X6903039Y-8638460D02*
X6893515Y-8619412D01*
X6893515Y-8619412D02*
X6893515Y-8447984D01*
X7074468Y-8638460D02*
X7055420Y-8647984D01*
X7055420Y-8647984D02*
X7017325Y-8647984D01*
X7017325Y-8647984D02*
X6998277Y-8638460D01*
X6998277Y-8638460D02*
X6988753Y-8619412D01*
X6988753Y-8619412D02*
X6988753Y-8543222D01*
X6988753Y-8543222D02*
X6998277Y-8524174D01*
X6998277Y-8524174D02*
X7017325Y-8514650D01*
X7017325Y-8514650D02*
X7055420Y-8514650D01*
X7055420Y-8514650D02*
X7074468Y-8524174D01*
X7074468Y-8524174D02*
X7083991Y-8543222D01*
X7083991Y-8543222D02*
X7083991Y-8562270D01*
X7083991Y-8562270D02*
X6988753Y-8581317D01*
X7160182Y-8638460D02*
X7179230Y-8647984D01*
X7179230Y-8647984D02*
X7217325Y-8647984D01*
X7217325Y-8647984D02*
X7236372Y-8638460D01*
X7236372Y-8638460D02*
X7245896Y-8619412D01*
X7245896Y-8619412D02*
X7245896Y-8609889D01*
X7245896Y-8609889D02*
X7236372Y-8590841D01*
X7236372Y-8590841D02*
X7217325Y-8581317D01*
X7217325Y-8581317D02*
X7188753Y-8581317D01*
X7188753Y-8581317D02*
X7169706Y-8571793D01*
X7169706Y-8571793D02*
X7160182Y-8552746D01*
X7160182Y-8552746D02*
X7160182Y-8543222D01*
X7160182Y-8543222D02*
X7169706Y-8524174D01*
X7169706Y-8524174D02*
X7188753Y-8514650D01*
X7188753Y-8514650D02*
X7217325Y-8514650D01*
X7217325Y-8514650D02*
X7236372Y-8524174D01*
X7312563Y-8724174D02*
X7322087Y-8714650D01*
X7322087Y-8714650D02*
X7341134Y-8686079D01*
X7341134Y-8686079D02*
X7350658Y-8667031D01*
X7350658Y-8667031D02*
X7360182Y-8638460D01*
X7360182Y-8638460D02*
X7369706Y-8590841D01*
X7369706Y-8590841D02*
X7369706Y-8552746D01*
X7369706Y-8552746D02*
X7360182Y-8505127D01*
X7360182Y-8505127D02*
X7350658Y-8476555D01*
X7350658Y-8476555D02*
X7341134Y-8457508D01*
X7341134Y-8457508D02*
X7322087Y-8428936D01*
X7322087Y-8428936D02*
X7312563Y-8419412D01*
X2337500Y-8731500D02*
X2537500Y-8931500D01*
X2537500Y-8731500D02*
X2337500Y-8931500D01*
X2537500Y-8831500D02*
G75*
G02*
X2337500Y-8831500I-100000J0D01*
G01*
X2337500Y-8831500D02*
G75*
G02*
X2537500Y-8831500I100000J0D01*
G01*
X2779229Y-8722984D02*
X2903039Y-8722984D01*
X2903039Y-8722984D02*
X2836372Y-8799174D01*
X2836372Y-8799174D02*
X2864943Y-8799174D01*
X2864943Y-8799174D02*
X2883991Y-8808698D01*
X2883991Y-8808698D02*
X2893515Y-8818222D01*
X2893515Y-8818222D02*
X2903039Y-8837270D01*
X2903039Y-8837270D02*
X2903039Y-8884889D01*
X2903039Y-8884889D02*
X2893515Y-8903936D01*
X2893515Y-8903936D02*
X2883991Y-8913460D01*
X2883991Y-8913460D02*
X2864943Y-8922984D01*
X2864943Y-8922984D02*
X2807801Y-8922984D01*
X2807801Y-8922984D02*
X2788753Y-8913460D01*
X2788753Y-8913460D02*
X2779229Y-8903936D01*
X2988753Y-8903936D02*
X2998277Y-8913460D01*
X2998277Y-8913460D02*
X2988753Y-8922984D01*
X2988753Y-8922984D02*
X2979229Y-8913460D01*
X2979229Y-8913460D02*
X2988753Y-8903936D01*
X2988753Y-8903936D02*
X2988753Y-8922984D01*
X3074467Y-8742031D02*
X3083991Y-8732508D01*
X3083991Y-8732508D02*
X3103039Y-8722984D01*
X3103039Y-8722984D02*
X3150658Y-8722984D01*
X3150658Y-8722984D02*
X3169705Y-8732508D01*
X3169705Y-8732508D02*
X3179229Y-8742031D01*
X3179229Y-8742031D02*
X3188753Y-8761079D01*
X3188753Y-8761079D02*
X3188753Y-8780127D01*
X3188753Y-8780127D02*
X3179229Y-8808698D01*
X3179229Y-8808698D02*
X3064943Y-8922984D01*
X3064943Y-8922984D02*
X3188753Y-8922984D01*
X3312562Y-8722984D02*
X3331610Y-8722984D01*
X3331610Y-8722984D02*
X3350658Y-8732508D01*
X3350658Y-8732508D02*
X3360182Y-8742031D01*
X3360182Y-8742031D02*
X3369705Y-8761079D01*
X3369705Y-8761079D02*
X3379229Y-8799174D01*
X3379229Y-8799174D02*
X3379229Y-8846793D01*
X3379229Y-8846793D02*
X3369705Y-8884889D01*
X3369705Y-8884889D02*
X3360182Y-8903936D01*
X3360182Y-8903936D02*
X3350658Y-8913460D01*
X3350658Y-8913460D02*
X3331610Y-8922984D01*
X3331610Y-8922984D02*
X3312562Y-8922984D01*
X3312562Y-8922984D02*
X3293515Y-8913460D01*
X3293515Y-8913460D02*
X3283991Y-8903936D01*
X3283991Y-8903936D02*
X3274467Y-8884889D01*
X3274467Y-8884889D02*
X3264943Y-8846793D01*
X3264943Y-8846793D02*
X3264943Y-8799174D01*
X3264943Y-8799174D02*
X3274467Y-8761079D01*
X3274467Y-8761079D02*
X3283991Y-8742031D01*
X3283991Y-8742031D02*
X3293515Y-8732508D01*
X3293515Y-8732508D02*
X3312562Y-8722984D01*
X3503039Y-8722984D02*
X3522086Y-8722984D01*
X3522086Y-8722984D02*
X3541134Y-8732508D01*
X3541134Y-8732508D02*
X3550658Y-8742031D01*
X3550658Y-8742031D02*
X3560182Y-8761079D01*
X3560182Y-8761079D02*
X3569705Y-8799174D01*
X3569705Y-8799174D02*
X3569705Y-8846793D01*
X3569705Y-8846793D02*
X3560182Y-8884889D01*
X3560182Y-8884889D02*
X3550658Y-8903936D01*
X3550658Y-8903936D02*
X3541134Y-8913460D01*
X3541134Y-8913460D02*
X3522086Y-8922984D01*
X3522086Y-8922984D02*
X3503039Y-8922984D01*
X3503039Y-8922984D02*
X3483991Y-8913460D01*
X3483991Y-8913460D02*
X3474467Y-8903936D01*
X3474467Y-8903936D02*
X3464943Y-8884889D01*
X3464943Y-8884889D02*
X3455420Y-8846793D01*
X3455420Y-8846793D02*
X3455420Y-8799174D01*
X3455420Y-8799174D02*
X3464943Y-8761079D01*
X3464943Y-8761079D02*
X3474467Y-8742031D01*
X3474467Y-8742031D02*
X3483991Y-8732508D01*
X3483991Y-8732508D02*
X3503039Y-8722984D01*
X3655420Y-8922984D02*
X3655420Y-8789650D01*
X3655420Y-8808698D02*
X3664943Y-8799174D01*
X3664943Y-8799174D02*
X3683991Y-8789650D01*
X3683991Y-8789650D02*
X3712563Y-8789650D01*
X3712563Y-8789650D02*
X3731610Y-8799174D01*
X3731610Y-8799174D02*
X3741134Y-8818222D01*
X3741134Y-8818222D02*
X3741134Y-8922984D01*
X3741134Y-8818222D02*
X3750658Y-8799174D01*
X3750658Y-8799174D02*
X3769705Y-8789650D01*
X3769705Y-8789650D02*
X3798277Y-8789650D01*
X3798277Y-8789650D02*
X3817324Y-8799174D01*
X3817324Y-8799174D02*
X3826848Y-8818222D01*
X3826848Y-8818222D02*
X3826848Y-8922984D01*
X3922086Y-8922984D02*
X3922086Y-8789650D01*
X3922086Y-8808698D02*
X3931610Y-8799174D01*
X3931610Y-8799174D02*
X3950658Y-8789650D01*
X3950658Y-8789650D02*
X3979229Y-8789650D01*
X3979229Y-8789650D02*
X3998277Y-8799174D01*
X3998277Y-8799174D02*
X4007801Y-8818222D01*
X4007801Y-8818222D02*
X4007801Y-8922984D01*
X4007801Y-8818222D02*
X4017324Y-8799174D01*
X4017324Y-8799174D02*
X4036372Y-8789650D01*
X4036372Y-8789650D02*
X4064943Y-8789650D01*
X4064943Y-8789650D02*
X4083991Y-8799174D01*
X4083991Y-8799174D02*
X4093515Y-8818222D01*
X4093515Y-8818222D02*
X4093515Y-8922984D01*
X4483991Y-8713460D02*
X4312563Y-8970603D01*
X4741134Y-8722984D02*
X4760182Y-8722984D01*
X4760182Y-8722984D02*
X4779229Y-8732508D01*
X4779229Y-8732508D02*
X4788753Y-8742031D01*
X4788753Y-8742031D02*
X4798277Y-8761079D01*
X4798277Y-8761079D02*
X4807801Y-8799174D01*
X4807801Y-8799174D02*
X4807801Y-8846793D01*
X4807801Y-8846793D02*
X4798277Y-8884889D01*
X4798277Y-8884889D02*
X4788753Y-8903936D01*
X4788753Y-8903936D02*
X4779229Y-8913460D01*
X4779229Y-8913460D02*
X4760182Y-8922984D01*
X4760182Y-8922984D02*
X4741134Y-8922984D01*
X4741134Y-8922984D02*
X4722087Y-8913460D01*
X4722087Y-8913460D02*
X4712563Y-8903936D01*
X4712563Y-8903936D02*
X4703039Y-8884889D01*
X4703039Y-8884889D02*
X4693515Y-8846793D01*
X4693515Y-8846793D02*
X4693515Y-8799174D01*
X4693515Y-8799174D02*
X4703039Y-8761079D01*
X4703039Y-8761079D02*
X4712563Y-8742031D01*
X4712563Y-8742031D02*
X4722087Y-8732508D01*
X4722087Y-8732508D02*
X4741134Y-8722984D01*
X4893515Y-8903936D02*
X4903039Y-8913460D01*
X4903039Y-8913460D02*
X4893515Y-8922984D01*
X4893515Y-8922984D02*
X4883991Y-8913460D01*
X4883991Y-8913460D02*
X4893515Y-8903936D01*
X4893515Y-8903936D02*
X4893515Y-8922984D01*
X5093515Y-8922984D02*
X4979229Y-8922984D01*
X5036372Y-8922984D02*
X5036372Y-8722984D01*
X5036372Y-8722984D02*
X5017325Y-8751555D01*
X5017325Y-8751555D02*
X4998277Y-8770603D01*
X4998277Y-8770603D02*
X4979229Y-8780127D01*
X5169706Y-8742031D02*
X5179229Y-8732508D01*
X5179229Y-8732508D02*
X5198277Y-8722984D01*
X5198277Y-8722984D02*
X5245896Y-8722984D01*
X5245896Y-8722984D02*
X5264944Y-8732508D01*
X5264944Y-8732508D02*
X5274468Y-8742031D01*
X5274468Y-8742031D02*
X5283991Y-8761079D01*
X5283991Y-8761079D02*
X5283991Y-8780127D01*
X5283991Y-8780127D02*
X5274468Y-8808698D01*
X5274468Y-8808698D02*
X5160182Y-8922984D01*
X5160182Y-8922984D02*
X5283991Y-8922984D01*
X5455420Y-8722984D02*
X5417325Y-8722984D01*
X5417325Y-8722984D02*
X5398277Y-8732508D01*
X5398277Y-8732508D02*
X5388753Y-8742031D01*
X5388753Y-8742031D02*
X5369706Y-8770603D01*
X5369706Y-8770603D02*
X5360182Y-8808698D01*
X5360182Y-8808698D02*
X5360182Y-8884889D01*
X5360182Y-8884889D02*
X5369706Y-8903936D01*
X5369706Y-8903936D02*
X5379229Y-8913460D01*
X5379229Y-8913460D02*
X5398277Y-8922984D01*
X5398277Y-8922984D02*
X5436372Y-8922984D01*
X5436372Y-8922984D02*
X5455420Y-8913460D01*
X5455420Y-8913460D02*
X5464944Y-8903936D01*
X5464944Y-8903936D02*
X5474468Y-8884889D01*
X5474468Y-8884889D02*
X5474468Y-8837270D01*
X5474468Y-8837270D02*
X5464944Y-8818222D01*
X5464944Y-8818222D02*
X5455420Y-8808698D01*
X5455420Y-8808698D02*
X5436372Y-8799174D01*
X5436372Y-8799174D02*
X5398277Y-8799174D01*
X5398277Y-8799174D02*
X5379229Y-8808698D01*
X5379229Y-8808698D02*
X5369706Y-8818222D01*
X5369706Y-8818222D02*
X5360182Y-8837270D01*
X5598277Y-8722984D02*
X5617325Y-8722984D01*
X5617325Y-8722984D02*
X5636372Y-8732508D01*
X5636372Y-8732508D02*
X5645896Y-8742031D01*
X5645896Y-8742031D02*
X5655420Y-8761079D01*
X5655420Y-8761079D02*
X5664944Y-8799174D01*
X5664944Y-8799174D02*
X5664944Y-8846793D01*
X5664944Y-8846793D02*
X5655420Y-8884889D01*
X5655420Y-8884889D02*
X5645896Y-8903936D01*
X5645896Y-8903936D02*
X5636372Y-8913460D01*
X5636372Y-8913460D02*
X5617325Y-8922984D01*
X5617325Y-8922984D02*
X5598277Y-8922984D01*
X5598277Y-8922984D02*
X5579229Y-8913460D01*
X5579229Y-8913460D02*
X5569706Y-8903936D01*
X5569706Y-8903936D02*
X5560182Y-8884889D01*
X5560182Y-8884889D02*
X5550658Y-8846793D01*
X5550658Y-8846793D02*
X5550658Y-8799174D01*
X5550658Y-8799174D02*
X5560182Y-8761079D01*
X5560182Y-8761079D02*
X5569706Y-8742031D01*
X5569706Y-8742031D02*
X5579229Y-8732508D01*
X5579229Y-8732508D02*
X5598277Y-8722984D01*
X5741134Y-8722984D02*
X5741134Y-8761079D01*
X5817325Y-8722984D02*
X5817325Y-8761079D01*
X6112563Y-8999174D02*
X6103039Y-8989650D01*
X6103039Y-8989650D02*
X6083991Y-8961079D01*
X6083991Y-8961079D02*
X6074468Y-8942031D01*
X6074468Y-8942031D02*
X6064944Y-8913460D01*
X6064944Y-8913460D02*
X6055420Y-8865841D01*
X6055420Y-8865841D02*
X6055420Y-8827746D01*
X6055420Y-8827746D02*
X6064944Y-8780127D01*
X6064944Y-8780127D02*
X6074468Y-8751555D01*
X6074468Y-8751555D02*
X6083991Y-8732508D01*
X6083991Y-8732508D02*
X6103039Y-8703936D01*
X6103039Y-8703936D02*
X6112563Y-8694412D01*
X6179229Y-8742031D02*
X6188753Y-8732508D01*
X6188753Y-8732508D02*
X6207801Y-8722984D01*
X6207801Y-8722984D02*
X6255420Y-8722984D01*
X6255420Y-8722984D02*
X6274468Y-8732508D01*
X6274468Y-8732508D02*
X6283991Y-8742031D01*
X6283991Y-8742031D02*
X6293515Y-8761079D01*
X6293515Y-8761079D02*
X6293515Y-8780127D01*
X6293515Y-8780127D02*
X6283991Y-8808698D01*
X6283991Y-8808698D02*
X6169706Y-8922984D01*
X6169706Y-8922984D02*
X6293515Y-8922984D01*
X6531610Y-8922984D02*
X6531610Y-8722984D01*
X6617325Y-8922984D02*
X6617325Y-8818222D01*
X6617325Y-8818222D02*
X6607801Y-8799174D01*
X6607801Y-8799174D02*
X6588753Y-8789650D01*
X6588753Y-8789650D02*
X6560182Y-8789650D01*
X6560182Y-8789650D02*
X6541134Y-8799174D01*
X6541134Y-8799174D02*
X6531610Y-8808698D01*
X6741134Y-8922984D02*
X6722087Y-8913460D01*
X6722087Y-8913460D02*
X6712563Y-8903936D01*
X6712563Y-8903936D02*
X6703039Y-8884889D01*
X6703039Y-8884889D02*
X6703039Y-8827746D01*
X6703039Y-8827746D02*
X6712563Y-8808698D01*
X6712563Y-8808698D02*
X6722087Y-8799174D01*
X6722087Y-8799174D02*
X6741134Y-8789650D01*
X6741134Y-8789650D02*
X6769706Y-8789650D01*
X6769706Y-8789650D02*
X6788753Y-8799174D01*
X6788753Y-8799174D02*
X6798277Y-8808698D01*
X6798277Y-8808698D02*
X6807801Y-8827746D01*
X6807801Y-8827746D02*
X6807801Y-8884889D01*
X6807801Y-8884889D02*
X6798277Y-8903936D01*
X6798277Y-8903936D02*
X6788753Y-8913460D01*
X6788753Y-8913460D02*
X6769706Y-8922984D01*
X6769706Y-8922984D02*
X6741134Y-8922984D01*
X6922087Y-8922984D02*
X6903039Y-8913460D01*
X6903039Y-8913460D02*
X6893515Y-8894412D01*
X6893515Y-8894412D02*
X6893515Y-8722984D01*
X7074468Y-8913460D02*
X7055420Y-8922984D01*
X7055420Y-8922984D02*
X7017325Y-8922984D01*
X7017325Y-8922984D02*
X6998277Y-8913460D01*
X6998277Y-8913460D02*
X6988753Y-8894412D01*
X6988753Y-8894412D02*
X6988753Y-8818222D01*
X6988753Y-8818222D02*
X6998277Y-8799174D01*
X6998277Y-8799174D02*
X7017325Y-8789650D01*
X7017325Y-8789650D02*
X7055420Y-8789650D01*
X7055420Y-8789650D02*
X7074468Y-8799174D01*
X7074468Y-8799174D02*
X7083991Y-8818222D01*
X7083991Y-8818222D02*
X7083991Y-8837270D01*
X7083991Y-8837270D02*
X6988753Y-8856317D01*
X7160182Y-8913460D02*
X7179230Y-8922984D01*
X7179230Y-8922984D02*
X7217325Y-8922984D01*
X7217325Y-8922984D02*
X7236372Y-8913460D01*
X7236372Y-8913460D02*
X7245896Y-8894412D01*
X7245896Y-8894412D02*
X7245896Y-8884889D01*
X7245896Y-8884889D02*
X7236372Y-8865841D01*
X7236372Y-8865841D02*
X7217325Y-8856317D01*
X7217325Y-8856317D02*
X7188753Y-8856317D01*
X7188753Y-8856317D02*
X7169706Y-8846793D01*
X7169706Y-8846793D02*
X7160182Y-8827746D01*
X7160182Y-8827746D02*
X7160182Y-8818222D01*
X7160182Y-8818222D02*
X7169706Y-8799174D01*
X7169706Y-8799174D02*
X7188753Y-8789650D01*
X7188753Y-8789650D02*
X7217325Y-8789650D01*
X7217325Y-8789650D02*
X7236372Y-8799174D01*
X7312563Y-8999174D02*
X7322087Y-8989650D01*
X7322087Y-8989650D02*
X7341134Y-8961079D01*
X7341134Y-8961079D02*
X7350658Y-8942031D01*
X7350658Y-8942031D02*
X7360182Y-8913460D01*
X7360182Y-8913460D02*
X7369706Y-8865841D01*
X7369706Y-8865841D02*
X7369706Y-8827746D01*
X7369706Y-8827746D02*
X7360182Y-8780127D01*
X7360182Y-8780127D02*
X7350658Y-8751555D01*
X7350658Y-8751555D02*
X7341134Y-8732508D01*
X7341134Y-8732508D02*
X7322087Y-8703936D01*
X7322087Y-8703936D02*
X7312563Y-8694412D01*
M02*
