%TF.GenerationSoftware,KiCad,Pcbnew,8.0.6*%
%TF.CreationDate,2024-11-29T18:38:07+11:00*%
%TF.ProjectId,pcb,7063622e-6b69-4636-9164-5f7063625858,rev?*%
%TF.SameCoordinates,Original*%
%TF.FileFunction,Copper,L1,Top*%
%TF.FilePolarity,Positive*%
%FSLAX46Y46*%
G04 Gerber Fmt 4.6, Leading zero omitted, Abs format (unit mm)*
G04 Created by KiCad (PCBNEW 8.0.6) date 2024-11-29 18:38:07*
%MOMM*%
%LPD*%
G01*
G04 APERTURE LIST*
G04 Aperture macros list*
%AMRoundRect*
0 Rectangle with rounded corners*
0 $1 Rounding radius*
0 $2 $3 $4 $5 $6 $7 $8 $9 X,Y pos of 4 corners*
0 Add a 4 corners polygon primitive as box body*
4,1,4,$2,$3,$4,$5,$6,$7,$8,$9,$2,$3,0*
0 Add four circle primitives for the rounded corners*
1,1,$1+$1,$2,$3*
1,1,$1+$1,$4,$5*
1,1,$1+$1,$6,$7*
1,1,$1+$1,$8,$9*
0 Add four rect primitives between the rounded corners*
20,1,$1+$1,$2,$3,$4,$5,0*
20,1,$1+$1,$4,$5,$6,$7,0*
20,1,$1+$1,$6,$7,$8,$9,0*
20,1,$1+$1,$8,$9,$2,$3,0*%
G04 Aperture macros list end*
%TA.AperFunction,ComponentPad*%
%ADD10C,1.400000*%
%TD*%
%TA.AperFunction,ComponentPad*%
%ADD11O,1.400000X1.400000*%
%TD*%
%TA.AperFunction,ComponentPad*%
%ADD12C,6.400000*%
%TD*%
%TA.AperFunction,ComponentPad*%
%ADD13C,1.879600*%
%TD*%
%TA.AperFunction,ComponentPad*%
%ADD14C,2.000000*%
%TD*%
%TA.AperFunction,ComponentPad*%
%ADD15C,2.159000*%
%TD*%
%TA.AperFunction,ComponentPad*%
%ADD16RoundRect,0.249999X-1.025001X-1.025001X1.025001X-1.025001X1.025001X1.025001X-1.025001X1.025001X0*%
%TD*%
%TA.AperFunction,ComponentPad*%
%ADD17C,2.550000*%
%TD*%
%TA.AperFunction,SMDPad,CuDef*%
%ADD18RoundRect,0.635000X-0.000010X0.635000X-0.000010X-0.635000X0.000010X-0.635000X0.000010X0.635000X0*%
%TD*%
%TA.AperFunction,ViaPad*%
%ADD19C,1.000000*%
%TD*%
%TA.AperFunction,Conductor*%
%ADD20C,0.400000*%
%TD*%
%TA.AperFunction,Conductor*%
%ADD21C,1.000000*%
%TD*%
%TA.AperFunction,Conductor*%
%ADD22C,2.000000*%
%TD*%
G04 APERTURE END LIST*
D10*
%TO.P,R7,1*%
%TO.N,SCL*%
X74930000Y-30480000D03*
D11*
%TO.P,R7,2*%
%TO.N,VCC*%
X69850000Y-30480000D03*
%TD*%
D12*
%TO.P,H2,1*%
%TO.N,N/C*%
X61900000Y-34580000D03*
%TD*%
D13*
%TO.P,SW4,1,A*%
%TO.N,Net-(SW4-A)*%
X55880000Y-40640000D03*
%TO.P,SW4,2,B*%
%TO.N,SW4*%
X58420000Y-40640000D03*
%TO.P,SW4,3,C*%
%TO.N,Net-(SW4-C)*%
X60960000Y-40640000D03*
%TD*%
D14*
%TO.P,A1,1,Pin_1*%
%TO.N,VCC*%
X85090000Y-40720000D03*
%TO.P,A1,2,Pin_2*%
%TO.N,SDA*%
X85090000Y-38100000D03*
%TO.P,A1,3,Pin_3*%
%TO.N,SCL*%
X85090000Y-35560000D03*
%TO.P,A1,4,Pin_4*%
%TO.N,INT*%
X85090000Y-33020000D03*
%TO.P,A1,5,Pin_5*%
%TO.N,GND*%
X85090000Y-30480000D03*
%TD*%
D15*
%TO.P,SW2,1,1*%
%TO.N,VCC*%
X31850000Y-44410000D03*
X44350000Y-44410000D03*
%TO.P,SW2,2,2*%
%TO.N,SW2*%
X31850000Y-49410000D03*
X44350000Y-49410000D03*
%TD*%
D10*
%TO.P,R3,1*%
%TO.N,SW3*%
X48260000Y-64770000D03*
D11*
%TO.P,R3,2*%
%TO.N,GND*%
X48260000Y-59690000D03*
%TD*%
D10*
%TO.P,R4,1*%
%TO.N,Net-(SW4-A)*%
X69850000Y-40640000D03*
D11*
%TO.P,R4,2*%
%TO.N,VCC*%
X74930000Y-40640000D03*
%TD*%
D12*
%TO.P,H1,1*%
%TO.N,N/C*%
X49900000Y-54580000D03*
%TD*%
D16*
%TO.P,J1,1,Pin_1*%
%TO.N,VCC*%
X53620000Y-27940000D03*
D17*
%TO.P,J1,2,Pin_2*%
%TO.N,LEDDATA*%
X58420000Y-27940000D03*
%TO.P,J1,3,Pin_3*%
%TO.N,GND*%
X63220000Y-27940000D03*
%TD*%
D10*
%TO.P,R1,1*%
%TO.N,SW1*%
X48260000Y-35480000D03*
D11*
%TO.P,R1,2*%
%TO.N,GND*%
X48260000Y-30400000D03*
%TD*%
D10*
%TO.P,R5,1*%
%TO.N,GND*%
X74930000Y-38100000D03*
D11*
%TO.P,R5,2*%
%TO.N,Net-(SW4-C)*%
X69850000Y-38100000D03*
%TD*%
D18*
%TO.P,U1,1,TX*%
%TO.N,unconnected-(U1-TX-Pad1)*%
X85090000Y-48180000D03*
%TO.P,U1,2,RX*%
%TO.N,unconnected-(U1-RX-Pad2)*%
X82550000Y-48180000D03*
%TO.P,U1,3,GND*%
%TO.N,GND*%
X80010000Y-48180000D03*
%TO.P,U1,4,GND*%
X77470000Y-48180000D03*
%TO.P,U1,5,D2*%
%TO.N,SDA*%
X74930000Y-48180000D03*
%TO.P,U1,6,D3*%
%TO.N,SCL*%
X72390000Y-48180000D03*
%TO.P,U1,7,D4/A6*%
%TO.N,unconnected-(U1-D4{slash}A6-Pad7)*%
X69850000Y-48180000D03*
%TO.P,U1,8,D5*%
%TO.N,unconnected-(U1-D5-Pad8)*%
X67310000Y-48180000D03*
%TO.P,U1,9,D6/A7*%
%TO.N,LEDDATA*%
X64770000Y-48180000D03*
%TO.P,U1,10,D7*%
%TO.N,INT*%
X62230000Y-48180000D03*
%TO.P,U1,11,D8/A8*%
%TO.N,unconnected-(U1-D8{slash}A8-Pad11)*%
X59690000Y-48180000D03*
%TO.P,U1,12,D9/A9*%
%TO.N,unconnected-(U1-D9{slash}A9-Pad12)*%
X57150000Y-48180000D03*
%TO.P,U1,13,D10/A10*%
%TO.N,SW4*%
X57150000Y-65960000D03*
%TO.P,U1,14,D16*%
%TO.N,SW1*%
X59690000Y-65960000D03*
%TO.P,U1,15,D14*%
%TO.N,SW2*%
X62230000Y-65960000D03*
%TO.P,U1,16,D15*%
%TO.N,SW3*%
X64770000Y-65960000D03*
%TO.P,U1,17,A0*%
%TO.N,unconnected-(U1-A0-Pad17)*%
X67310000Y-65960000D03*
%TO.P,U1,18,A1*%
%TO.N,unconnected-(U1-A1-Pad18)*%
X69850000Y-65960000D03*
%TO.P,U1,19,A2*%
%TO.N,unconnected-(U1-A2-Pad19)*%
X72390000Y-65960000D03*
%TO.P,U1,20,A3*%
%TO.N,unconnected-(U1-A3-Pad20)*%
X74930000Y-65960000D03*
%TO.P,U1,21,5V*%
%TO.N,VCC*%
X77470000Y-65960000D03*
%TO.P,U1,22,RST*%
%TO.N,unconnected-(U1-RST-Pad22)*%
X80010000Y-65960000D03*
%TO.P,U1,23,GND*%
%TO.N,GND*%
X82550000Y-65960000D03*
%TO.P,U1,24,RAW*%
%TO.N,unconnected-(U1-RAW-Pad24)*%
X85090000Y-65960000D03*
%TD*%
D15*
%TO.P,SW1,1,1*%
%TO.N,VCC*%
X31850000Y-30440000D03*
X44350000Y-30440000D03*
%TO.P,SW1,2,2*%
%TO.N,SW1*%
X31850000Y-35440000D03*
X44350000Y-35440000D03*
%TD*%
D10*
%TO.P,R6,1*%
%TO.N,VCC*%
X69850000Y-33020000D03*
D11*
%TO.P,R6,2*%
%TO.N,SDA*%
X74930000Y-33020000D03*
%TD*%
D15*
%TO.P,SW3,1,1*%
%TO.N,VCC*%
X31850000Y-58380000D03*
X44350000Y-58380000D03*
%TO.P,SW3,2,2*%
%TO.N,SW3*%
X31850000Y-63380000D03*
X44350000Y-63380000D03*
%TD*%
D10*
%TO.P,R2,1*%
%TO.N,SW2*%
X48260000Y-49450000D03*
D11*
%TO.P,R2,2*%
%TO.N,GND*%
X48260000Y-44370000D03*
%TD*%
D19*
%TO.N,GND*%
X80010000Y-45720000D03*
%TO.N,INT*%
X62230000Y-45720000D03*
%TO.N,LEDDATA*%
X56134000Y-43942000D03*
%TO.N,SCL*%
X72390000Y-45720000D03*
%TO.N,SW4*%
X54610000Y-66040000D03*
%TD*%
D20*
%TO.N,SW4*%
X57070000Y-66040000D02*
X57150000Y-65960000D01*
X54610000Y-66040000D02*
X57070000Y-66040000D01*
%TO.N,SW1*%
X31850000Y-35440000D02*
X27940000Y-39350000D01*
X27940000Y-57720000D02*
X30926000Y-60706000D01*
X30926000Y-60706000D02*
X44916000Y-60706000D01*
X27940000Y-39350000D02*
X27940000Y-57720000D01*
X44916000Y-60706000D02*
X47202000Y-62992000D01*
X47202000Y-62992000D02*
X58547000Y-62992000D01*
X58547000Y-62992000D02*
X59690000Y-64135000D01*
X59690000Y-64135000D02*
X59690000Y-65960000D01*
%TO.N,SW2*%
X62230000Y-65960000D02*
X62230000Y-64135000D01*
X44350000Y-55526000D02*
X44350000Y-49410000D01*
X62230000Y-64135000D02*
X60325000Y-62230000D01*
X46355000Y-60960000D02*
X46355000Y-57531000D01*
X60325000Y-62230000D02*
X47625000Y-62230000D01*
X47625000Y-62230000D02*
X46355000Y-60960000D01*
X46355000Y-57531000D02*
X44350000Y-55526000D01*
%TO.N,SCL*%
X72390000Y-45720000D02*
X72390000Y-48180000D01*
%TO.N,INT*%
X62230000Y-48180000D02*
X62230000Y-45720000D01*
D21*
%TO.N,LEDDATA*%
X56134000Y-43942000D02*
X63500000Y-43942000D01*
X63500000Y-43942000D02*
X64770000Y-45212000D01*
X64770000Y-45212000D02*
X64770000Y-48180000D01*
D20*
%TO.N,VCC*%
X53620000Y-33020000D02*
X56668000Y-29972000D01*
X56668000Y-29972000D02*
X69342000Y-29972000D01*
X69342000Y-29972000D02*
X69850000Y-30480000D01*
X69850000Y-33020000D02*
X69850000Y-35560000D01*
X69850000Y-35560000D02*
X74930000Y-40640000D01*
D21*
X87630000Y-43260000D02*
X87630000Y-51117500D01*
D20*
X45075000Y-44410000D02*
X47575000Y-41910000D01*
D22*
X53620000Y-50127500D02*
X60642500Y-57150000D01*
D20*
X47575000Y-41910000D02*
X53620000Y-41910000D01*
D22*
X53620000Y-46990000D02*
X53620000Y-50127500D01*
X73660000Y-57150000D02*
X77470000Y-60960000D01*
D20*
X29210000Y-55740000D02*
X31850000Y-58380000D01*
X44350000Y-58380000D02*
X31850000Y-58380000D01*
X45075000Y-44410000D02*
X41910000Y-44410000D01*
X31850000Y-44410000D02*
X29270000Y-46990000D01*
D22*
X53620000Y-33020000D02*
X53620000Y-46990000D01*
D20*
X45075000Y-58380000D02*
X44410000Y-58380000D01*
X41910000Y-44410000D02*
X31125000Y-44410000D01*
D21*
X77787500Y-60960000D02*
X77470000Y-60960000D01*
D20*
X44350000Y-44410000D02*
X44350000Y-44550000D01*
D22*
X60642500Y-57150000D02*
X73660000Y-57150000D01*
D20*
X45075000Y-30440000D02*
X47655000Y-33020000D01*
D21*
X87630000Y-51117500D02*
X77787500Y-60960000D01*
D20*
X69850000Y-30480000D02*
X69850000Y-33020000D01*
X47655000Y-33020000D02*
X53620000Y-33020000D01*
D22*
X53620000Y-27940000D02*
X53620000Y-33020000D01*
D20*
X29210000Y-46990000D02*
X29210000Y-55740000D01*
X29270000Y-46990000D02*
X29210000Y-46990000D01*
D21*
X85090000Y-40720000D02*
X87630000Y-43260000D01*
D22*
X77470000Y-60960000D02*
X77470000Y-65960000D01*
D20*
X31125000Y-30440000D02*
X45075000Y-30440000D01*
%TO.N,SDA*%
X74930000Y-33020000D02*
X80010000Y-38100000D01*
X74930000Y-48180000D02*
X80010000Y-43100000D01*
X80010000Y-38100000D02*
X85090000Y-38100000D01*
X80010000Y-43100000D02*
X80010000Y-38100000D01*
%TO.N,SCL*%
X80010000Y-35560000D02*
X85090000Y-35560000D01*
X74930000Y-30480000D02*
X80010000Y-35560000D01*
%TO.N,Net-(SW4-A)*%
X67945000Y-42545000D02*
X69850000Y-40640000D01*
X55880000Y-40640000D02*
X57785000Y-42545000D01*
X57785000Y-42545000D02*
X67945000Y-42545000D01*
%TO.N,Net-(SW4-C)*%
X60960000Y-40640000D02*
X67310000Y-40640000D01*
X67310000Y-40640000D02*
X69850000Y-38100000D01*
%TO.N,SW1*%
X45075000Y-35440000D02*
X48220000Y-35440000D01*
X48220000Y-35440000D02*
X48260000Y-35480000D01*
%TO.N,SW2*%
X45075000Y-49410000D02*
X48220000Y-49410000D01*
X48220000Y-49410000D02*
X48260000Y-49450000D01*
%TO.N,SW3*%
X51370000Y-67880000D02*
X64200000Y-67880000D01*
X45075000Y-63490000D02*
X46355000Y-64770000D01*
X46355000Y-64770000D02*
X48260000Y-64770000D01*
X45075000Y-63380000D02*
X45075000Y-63490000D01*
X64200000Y-67880000D02*
X64770000Y-67310000D01*
X48260000Y-64770000D02*
X51370000Y-67880000D01*
X64770000Y-67310000D02*
X64770000Y-65960000D01*
%TD*%
%TA.AperFunction,Conductor*%
%TO.N,GND*%
G36*
X86364042Y-25900765D02*
G01*
X86386774Y-25902254D01*
X86618114Y-25917417D01*
X86634172Y-25919532D01*
X86879888Y-25968408D01*
X86895554Y-25972606D01*
X87046736Y-26023925D01*
X87132788Y-26053136D01*
X87147765Y-26059339D01*
X87361011Y-26164500D01*
X87372460Y-26170146D01*
X87386508Y-26178256D01*
X87594815Y-26317443D01*
X87607679Y-26327314D01*
X87796033Y-26492497D01*
X87807502Y-26503966D01*
X87972685Y-26692320D01*
X87982559Y-26705188D01*
X88121743Y-26913492D01*
X88129853Y-26927539D01*
X88240657Y-27152227D01*
X88246864Y-27167213D01*
X88327393Y-27404445D01*
X88331591Y-27420111D01*
X88380465Y-27665813D01*
X88382583Y-27681895D01*
X88399235Y-27935956D01*
X88399500Y-27944066D01*
X88399500Y-42315217D01*
X88379815Y-42382256D01*
X88327011Y-42428011D01*
X88257853Y-42437955D01*
X88194297Y-42408930D01*
X88187819Y-42402898D01*
X86629342Y-40844422D01*
X86595857Y-40783099D01*
X86593447Y-40746499D01*
X86595643Y-40720003D01*
X86595643Y-40719995D01*
X86575109Y-40472187D01*
X86575107Y-40472175D01*
X86514063Y-40231118D01*
X86414173Y-40003393D01*
X86278166Y-39795217D01*
X86259014Y-39774413D01*
X86109744Y-39612262D01*
X86109739Y-39612258D01*
X86109737Y-39612256D01*
X85975600Y-39507853D01*
X85934787Y-39451143D01*
X85931112Y-39381370D01*
X85965744Y-39320687D01*
X85975600Y-39312147D01*
X86043089Y-39259618D01*
X86109744Y-39207738D01*
X86278164Y-39024785D01*
X86414173Y-38816607D01*
X86514063Y-38588881D01*
X86575108Y-38347821D01*
X86577294Y-38321439D01*
X86595643Y-38100005D01*
X86595643Y-38099994D01*
X86575109Y-37852187D01*
X86575107Y-37852175D01*
X86514063Y-37611118D01*
X86414173Y-37383393D01*
X86278166Y-37175217D01*
X86139776Y-37024886D01*
X86109744Y-36992262D01*
X86026991Y-36927852D01*
X85986179Y-36871143D01*
X85982504Y-36801370D01*
X86017136Y-36740687D01*
X86026985Y-36732151D01*
X86109744Y-36667738D01*
X86278164Y-36484785D01*
X86414173Y-36276607D01*
X86514063Y-36048881D01*
X86575108Y-35807821D01*
X86578712Y-35764328D01*
X86595643Y-35560005D01*
X86595643Y-35559994D01*
X86575109Y-35312187D01*
X86575107Y-35312175D01*
X86514063Y-35071118D01*
X86414173Y-34843393D01*
X86278166Y-34635217D01*
X86227335Y-34580000D01*
X86109744Y-34452262D01*
X86026991Y-34387852D01*
X85986179Y-34331143D01*
X85982504Y-34261370D01*
X86017136Y-34200687D01*
X86026985Y-34192151D01*
X86109744Y-34127738D01*
X86278164Y-33944785D01*
X86414173Y-33736607D01*
X86514063Y-33508881D01*
X86575108Y-33267821D01*
X86579340Y-33216754D01*
X86595643Y-33020005D01*
X86595643Y-33019994D01*
X86575109Y-32772187D01*
X86575107Y-32772175D01*
X86514063Y-32531118D01*
X86414173Y-32303393D01*
X86278166Y-32095217D01*
X86228936Y-32041739D01*
X86109744Y-31912262D01*
X86006253Y-31831712D01*
X85965442Y-31775003D01*
X85958655Y-31726176D01*
X85960056Y-31703609D01*
X85219409Y-30962962D01*
X85282993Y-30945925D01*
X85397007Y-30880099D01*
X85490099Y-30787007D01*
X85555925Y-30672993D01*
X85572962Y-30609410D01*
X86313434Y-31349882D01*
X86413731Y-31196369D01*
X86513587Y-30968717D01*
X86574612Y-30727738D01*
X86574614Y-30727729D01*
X86595141Y-30480005D01*
X86595141Y-30479994D01*
X86574614Y-30232270D01*
X86574612Y-30232261D01*
X86513587Y-29991282D01*
X86413731Y-29763630D01*
X86313434Y-29610116D01*
X85572962Y-30350589D01*
X85555925Y-30287007D01*
X85490099Y-30172993D01*
X85397007Y-30079901D01*
X85282993Y-30014075D01*
X85219410Y-29997037D01*
X85960057Y-29256390D01*
X85960056Y-29256389D01*
X85913229Y-29219943D01*
X85694614Y-29101635D01*
X85694603Y-29101630D01*
X85459493Y-29020916D01*
X85214293Y-28980000D01*
X84965707Y-28980000D01*
X84720506Y-29020916D01*
X84485396Y-29101630D01*
X84485390Y-29101632D01*
X84266761Y-29219949D01*
X84219942Y-29256388D01*
X84219942Y-29256390D01*
X84960590Y-29997037D01*
X84897007Y-30014075D01*
X84782993Y-30079901D01*
X84689901Y-30172993D01*
X84624075Y-30287007D01*
X84607037Y-30350589D01*
X83866564Y-29610116D01*
X83766267Y-29763632D01*
X83666412Y-29991282D01*
X83605387Y-30232261D01*
X83605385Y-30232270D01*
X83584859Y-30479994D01*
X83584859Y-30480005D01*
X83605385Y-30727729D01*
X83605387Y-30727738D01*
X83666412Y-30968717D01*
X83766266Y-31196364D01*
X83866564Y-31349882D01*
X84607037Y-30609409D01*
X84624075Y-30672993D01*
X84689901Y-30787007D01*
X84782993Y-30880099D01*
X84897007Y-30945925D01*
X84960590Y-30962962D01*
X84219942Y-31703609D01*
X84221343Y-31726177D01*
X84205850Y-31794307D01*
X84173744Y-31831713D01*
X84070258Y-31912260D01*
X83901833Y-32095217D01*
X83765826Y-32303393D01*
X83665936Y-32531118D01*
X83604892Y-32772175D01*
X83604890Y-32772187D01*
X83584357Y-33019994D01*
X83584357Y-33020005D01*
X83604890Y-33267812D01*
X83604892Y-33267824D01*
X83665936Y-33508881D01*
X83765826Y-33736606D01*
X83901833Y-33944782D01*
X83901836Y-33944785D01*
X84070256Y-34127738D01*
X84153008Y-34192147D01*
X84193821Y-34248857D01*
X84197496Y-34318630D01*
X84162864Y-34379313D01*
X84153014Y-34387848D01*
X84094400Y-34433469D01*
X84070257Y-34452261D01*
X83901833Y-34635217D01*
X83792007Y-34803321D01*
X83738861Y-34848678D01*
X83688198Y-34859500D01*
X80351519Y-34859500D01*
X80284480Y-34839815D01*
X80263838Y-34823181D01*
X76158571Y-30717914D01*
X76125086Y-30656591D01*
X76122781Y-30618798D01*
X76135643Y-30480000D01*
X76135642Y-30479994D01*
X76115115Y-30258464D01*
X76115114Y-30258462D01*
X76107659Y-30232261D01*
X76054229Y-30044472D01*
X76039093Y-30014075D01*
X75955061Y-29845316D01*
X75955056Y-29845308D01*
X75820979Y-29667761D01*
X75656562Y-29517876D01*
X75656560Y-29517874D01*
X75467404Y-29400754D01*
X75467398Y-29400752D01*
X75259940Y-29320382D01*
X75041243Y-29279500D01*
X74818757Y-29279500D01*
X74600060Y-29320382D01*
X74468864Y-29371207D01*
X74392601Y-29400752D01*
X74392595Y-29400754D01*
X74203439Y-29517874D01*
X74203437Y-29517876D01*
X74039020Y-29667761D01*
X73904943Y-29845308D01*
X73904938Y-29845316D01*
X73805775Y-30044461D01*
X73805769Y-30044476D01*
X73744885Y-30258462D01*
X73744884Y-30258464D01*
X73724357Y-30479999D01*
X73724357Y-30480000D01*
X73744884Y-30701535D01*
X73744885Y-30701537D01*
X73805769Y-30915523D01*
X73805775Y-30915538D01*
X73904938Y-31114683D01*
X73904943Y-31114691D01*
X74039020Y-31292238D01*
X74203437Y-31442123D01*
X74203439Y-31442125D01*
X74392595Y-31559245D01*
X74392596Y-31559245D01*
X74392599Y-31559247D01*
X74586524Y-31634374D01*
X74641924Y-31676946D01*
X74665515Y-31742713D01*
X74649804Y-31810793D01*
X74599780Y-31859572D01*
X74586533Y-31865622D01*
X74466143Y-31912262D01*
X74392601Y-31940752D01*
X74392595Y-31940754D01*
X74203439Y-32057874D01*
X74203437Y-32057876D01*
X74039020Y-32207761D01*
X73904943Y-32385308D01*
X73904938Y-32385316D01*
X73805775Y-32584461D01*
X73805769Y-32584476D01*
X73744885Y-32798462D01*
X73744884Y-32798464D01*
X73724357Y-33019999D01*
X73724357Y-33020000D01*
X73744884Y-33241535D01*
X73744885Y-33241537D01*
X73805769Y-33455523D01*
X73805775Y-33455538D01*
X73904938Y-33654683D01*
X73904943Y-33654691D01*
X74039020Y-33832238D01*
X74203437Y-33982123D01*
X74203439Y-33982125D01*
X74392595Y-34099245D01*
X74392596Y-34099245D01*
X74392599Y-34099247D01*
X74600060Y-34179618D01*
X74818757Y-34220500D01*
X74818759Y-34220500D01*
X75041241Y-34220500D01*
X75041243Y-34220500D01*
X75060067Y-34216981D01*
X75129581Y-34224012D01*
X75170532Y-34251189D01*
X79273181Y-38353838D01*
X79306666Y-38415161D01*
X79309500Y-38441519D01*
X79309500Y-42758480D01*
X79289815Y-42825519D01*
X79273181Y-42846161D01*
X75605195Y-46514146D01*
X75543872Y-46547631D01*
X75474180Y-46542647D01*
X75468718Y-46540460D01*
X75345983Y-46487902D01*
X75277321Y-46458499D01*
X75277309Y-46458495D01*
X75065424Y-46412403D01*
X75065423Y-46412402D01*
X75065419Y-46412402D01*
X75016704Y-46409500D01*
X74843296Y-46409500D01*
X74794581Y-46412402D01*
X74794576Y-46412402D01*
X74794575Y-46412403D01*
X74582690Y-46458495D01*
X74582674Y-46458500D01*
X74383346Y-46543857D01*
X74383330Y-46543866D01*
X74203747Y-46665412D01*
X74050412Y-46818747D01*
X73928866Y-46998330D01*
X73928857Y-46998346D01*
X73843500Y-47197674D01*
X73843495Y-47197690D01*
X73812504Y-47340157D01*
X73797402Y-47409581D01*
X73794500Y-47458296D01*
X73794500Y-48901704D01*
X73797402Y-48950419D01*
X73797402Y-48950423D01*
X73797403Y-48950424D01*
X73843495Y-49162309D01*
X73843500Y-49162325D01*
X73928857Y-49361653D01*
X73928860Y-49361658D01*
X73928862Y-49361663D01*
X73928865Y-49361668D01*
X73928866Y-49361669D01*
X74050412Y-49541252D01*
X74203747Y-49694587D01*
X74203750Y-49694589D01*
X74383337Y-49816138D01*
X74383344Y-49816141D01*
X74383346Y-49816142D01*
X74582674Y-49901499D01*
X74582681Y-49901501D01*
X74582683Y-49901502D01*
X74582684Y-49901502D01*
X74582690Y-49901504D01*
X74668968Y-49920272D01*
X74794581Y-49947598D01*
X74843296Y-49950500D01*
X74843308Y-49950500D01*
X75016692Y-49950500D01*
X75016704Y-49950500D01*
X75065419Y-49947598D01*
X75230359Y-49911717D01*
X75277309Y-49901504D01*
X75277311Y-49901503D01*
X75277317Y-49901502D01*
X75277321Y-49901500D01*
X75277325Y-49901499D01*
X75397198Y-49850166D01*
X75476663Y-49816138D01*
X75656250Y-49694589D01*
X75809589Y-49541250D01*
X75931138Y-49361663D01*
X75988177Y-49228464D01*
X76016499Y-49162325D01*
X76016500Y-49162321D01*
X76016502Y-49162317D01*
X76062598Y-48950419D01*
X76065500Y-48901704D01*
X76065500Y-48901664D01*
X76335001Y-48901664D01*
X76337901Y-48950363D01*
X76383974Y-49162160D01*
X76383976Y-49162167D01*
X76469300Y-49361416D01*
X76469306Y-49361426D01*
X76590792Y-49540924D01*
X76590800Y-49540933D01*
X76744066Y-49694199D01*
X76744075Y-49694207D01*
X76923573Y-49815693D01*
X76923583Y-49815699D01*
X77122832Y-49901023D01*
X77122839Y-49901025D01*
X77219999Y-49922161D01*
X77720000Y-49922161D01*
X77817160Y-49901025D01*
X77817167Y-49901023D01*
X78016416Y-49815699D01*
X78016426Y-49815693D01*
X78195924Y-49694207D01*
X78195933Y-49694199D01*
X78349199Y-49540933D01*
X78349207Y-49540924D01*
X78470693Y-49361426D01*
X78470699Y-49361416D01*
X78556023Y-49162167D01*
X78556025Y-49162160D01*
X78602099Y-48950364D01*
X78605000Y-48901664D01*
X78875001Y-48901664D01*
X78877901Y-48950363D01*
X78923974Y-49162160D01*
X78923976Y-49162167D01*
X79009300Y-49361416D01*
X79009306Y-49361426D01*
X79130792Y-49540924D01*
X79130800Y-49540933D01*
X79284066Y-49694199D01*
X79284075Y-49694207D01*
X79463573Y-49815693D01*
X79463583Y-49815699D01*
X79662832Y-49901023D01*
X79662839Y-49901025D01*
X79759999Y-49922161D01*
X80260000Y-49922161D01*
X80357160Y-49901025D01*
X80357167Y-49901023D01*
X80556416Y-49815699D01*
X80556426Y-49815693D01*
X80735924Y-49694207D01*
X80735933Y-49694199D01*
X80889199Y-49540933D01*
X80889207Y-49540924D01*
X81010693Y-49361426D01*
X81010699Y-49361416D01*
X81096023Y-49162167D01*
X81096025Y-49162160D01*
X81142099Y-48950364D01*
X81145000Y-48901663D01*
X81145000Y-48430000D01*
X80260000Y-48430000D01*
X80260000Y-49922161D01*
X79759999Y-49922161D01*
X79760000Y-49922160D01*
X79760000Y-48430000D01*
X78875001Y-48430000D01*
X78875001Y-48901664D01*
X78605000Y-48901664D01*
X78605000Y-48901663D01*
X78605000Y-48430000D01*
X77720000Y-48430000D01*
X77720000Y-49922161D01*
X77219999Y-49922161D01*
X77220000Y-49922160D01*
X77220000Y-48430000D01*
X76335001Y-48430000D01*
X76335001Y-48901664D01*
X76065500Y-48901664D01*
X76065500Y-48086518D01*
X76085185Y-48019479D01*
X76101814Y-47998842D01*
X76165149Y-47935507D01*
X76226470Y-47902024D01*
X76296162Y-47907008D01*
X76331937Y-47930000D01*
X78604999Y-47930000D01*
X78604999Y-47458338D01*
X78604998Y-47458336D01*
X78875000Y-47458336D01*
X78875000Y-47930000D01*
X79760000Y-47930000D01*
X80260000Y-47930000D01*
X81144999Y-47930000D01*
X81144999Y-47458338D01*
X81144998Y-47458335D01*
X81144996Y-47458296D01*
X81414500Y-47458296D01*
X81414500Y-48901704D01*
X81417402Y-48950419D01*
X81417402Y-48950423D01*
X81417403Y-48950424D01*
X81463495Y-49162309D01*
X81463500Y-49162325D01*
X81548857Y-49361653D01*
X81548860Y-49361658D01*
X81548862Y-49361663D01*
X81548865Y-49361668D01*
X81548866Y-49361669D01*
X81670412Y-49541252D01*
X81823747Y-49694587D01*
X81823750Y-49694589D01*
X82003337Y-49816138D01*
X82003344Y-49816141D01*
X82003346Y-49816142D01*
X82202674Y-49901499D01*
X82202681Y-49901501D01*
X82202683Y-49901502D01*
X82202684Y-49901502D01*
X82202690Y-49901504D01*
X82288968Y-49920272D01*
X82414581Y-49947598D01*
X82463296Y-49950500D01*
X82463308Y-49950500D01*
X82636692Y-49950500D01*
X82636704Y-49950500D01*
X82685419Y-49947598D01*
X82850359Y-49911717D01*
X82897309Y-49901504D01*
X82897311Y-49901503D01*
X82897317Y-49901502D01*
X82897321Y-49901500D01*
X82897325Y-49901499D01*
X83017198Y-49850166D01*
X83096663Y-49816138D01*
X83276250Y-49694589D01*
X83429589Y-49541250D01*
X83551138Y-49361663D01*
X83608177Y-49228464D01*
X83636499Y-49162325D01*
X83636500Y-49162321D01*
X83636502Y-49162317D01*
X83682598Y-48950419D01*
X83685500Y-48901704D01*
X83685500Y-47458296D01*
X83954500Y-47458296D01*
X83954500Y-48901704D01*
X83957402Y-48950419D01*
X83957402Y-48950423D01*
X83957403Y-48950424D01*
X84003495Y-49162309D01*
X84003500Y-49162325D01*
X84088857Y-49361653D01*
X84088860Y-49361658D01*
X84088862Y-49361663D01*
X84088865Y-49361668D01*
X84088866Y-49361669D01*
X84210412Y-49541252D01*
X84363747Y-49694587D01*
X84363750Y-49694589D01*
X84543337Y-49816138D01*
X84543344Y-49816141D01*
X84543346Y-49816142D01*
X84742674Y-49901499D01*
X84742681Y-49901501D01*
X84742683Y-49901502D01*
X84742684Y-49901502D01*
X84742690Y-49901504D01*
X84828968Y-49920272D01*
X84954581Y-49947598D01*
X85003296Y-49950500D01*
X85003308Y-49950500D01*
X85176692Y-49950500D01*
X85176704Y-49950500D01*
X85225419Y-49947598D01*
X85390359Y-49911717D01*
X85437309Y-49901504D01*
X85437311Y-49901503D01*
X85437317Y-49901502D01*
X85437321Y-49901500D01*
X85437325Y-49901499D01*
X85557198Y-49850166D01*
X85636663Y-49816138D01*
X85816250Y-49694589D01*
X85969589Y-49541250D01*
X86091138Y-49361663D01*
X86148177Y-49228464D01*
X86176499Y-49162325D01*
X86176500Y-49162321D01*
X86176502Y-49162317D01*
X86222598Y-48950419D01*
X86225500Y-48901704D01*
X86225500Y-47458296D01*
X86222598Y-47409581D01*
X86176536Y-47197839D01*
X86176504Y-47197690D01*
X86176499Y-47197674D01*
X86091142Y-46998346D01*
X86091141Y-46998344D01*
X86091138Y-46998337D01*
X85969589Y-46818750D01*
X85969587Y-46818747D01*
X85816252Y-46665412D01*
X85636669Y-46543866D01*
X85636668Y-46543865D01*
X85636663Y-46543862D01*
X85636658Y-46543860D01*
X85636653Y-46543857D01*
X85437325Y-46458500D01*
X85437309Y-46458495D01*
X85225424Y-46412403D01*
X85225423Y-46412402D01*
X85225419Y-46412402D01*
X85176704Y-46409500D01*
X85003296Y-46409500D01*
X84954581Y-46412402D01*
X84954576Y-46412402D01*
X84954575Y-46412403D01*
X84742690Y-46458495D01*
X84742674Y-46458500D01*
X84543346Y-46543857D01*
X84543330Y-46543866D01*
X84363747Y-46665412D01*
X84210412Y-46818747D01*
X84088866Y-46998330D01*
X84088857Y-46998346D01*
X84003500Y-47197674D01*
X84003495Y-47197690D01*
X83972504Y-47340157D01*
X83957402Y-47409581D01*
X83954500Y-47458296D01*
X83685500Y-47458296D01*
X83682598Y-47409581D01*
X83636536Y-47197839D01*
X83636504Y-47197690D01*
X83636499Y-47197674D01*
X83551142Y-46998346D01*
X83551141Y-46998344D01*
X83551138Y-46998337D01*
X83429589Y-46818750D01*
X83429587Y-46818747D01*
X83276252Y-46665412D01*
X83096669Y-46543866D01*
X83096668Y-46543865D01*
X83096663Y-46543862D01*
X83096658Y-46543860D01*
X83096653Y-46543857D01*
X82897325Y-46458500D01*
X82897309Y-46458495D01*
X82685424Y-46412403D01*
X82685423Y-46412402D01*
X82685419Y-46412402D01*
X82636704Y-46409500D01*
X82463296Y-46409500D01*
X82414581Y-46412402D01*
X82414576Y-46412402D01*
X82414575Y-46412403D01*
X82202690Y-46458495D01*
X82202674Y-46458500D01*
X82003346Y-46543857D01*
X82003330Y-46543866D01*
X81823747Y-46665412D01*
X81670412Y-46818747D01*
X81548866Y-46998330D01*
X81548857Y-46998346D01*
X81463500Y-47197674D01*
X81463495Y-47197690D01*
X81432504Y-47340157D01*
X81417402Y-47409581D01*
X81414500Y-47458296D01*
X81144996Y-47458296D01*
X81142098Y-47409636D01*
X81096025Y-47197839D01*
X81096023Y-47197832D01*
X81010699Y-46998583D01*
X81010693Y-46998573D01*
X80889207Y-46819075D01*
X80889199Y-46819066D01*
X80735933Y-46665800D01*
X80735924Y-46665792D01*
X80556426Y-46544306D01*
X80556412Y-46544298D01*
X80357173Y-46458979D01*
X80357161Y-46458975D01*
X80260000Y-46437838D01*
X80260000Y-47930000D01*
X79760000Y-47930000D01*
X79760000Y-46437838D01*
X79662838Y-46458975D01*
X79662826Y-46458979D01*
X79463587Y-46544298D01*
X79463573Y-46544306D01*
X79284075Y-46665792D01*
X79284066Y-46665800D01*
X79130800Y-46819066D01*
X79130792Y-46819075D01*
X79009306Y-46998573D01*
X79009300Y-46998583D01*
X78923976Y-47197832D01*
X78923974Y-47197839D01*
X78877900Y-47409635D01*
X78875000Y-47458336D01*
X78604998Y-47458336D01*
X78604998Y-47458335D01*
X78602098Y-47409636D01*
X78556025Y-47197839D01*
X78556023Y-47197832D01*
X78470699Y-46998583D01*
X78470693Y-46998573D01*
X78349207Y-46819075D01*
X78349199Y-46819066D01*
X78195933Y-46665800D01*
X78195924Y-46665792D01*
X78016426Y-46544306D01*
X78016416Y-46544300D01*
X77862712Y-46478480D01*
X77808834Y-46433995D01*
X77787560Y-46367442D01*
X77805644Y-46299954D01*
X77823836Y-46276820D01*
X80554114Y-43546543D01*
X80630775Y-43431811D01*
X80683580Y-43304328D01*
X80698143Y-43231117D01*
X80710500Y-43168996D01*
X80710500Y-38924500D01*
X80730185Y-38857461D01*
X80782989Y-38811706D01*
X80834500Y-38800500D01*
X83688198Y-38800500D01*
X83755237Y-38820185D01*
X83792007Y-38856679D01*
X83901833Y-39024782D01*
X83901836Y-39024785D01*
X84070256Y-39207738D01*
X84070259Y-39207740D01*
X84070262Y-39207743D01*
X84204400Y-39312147D01*
X84245213Y-39368857D01*
X84248888Y-39438630D01*
X84214256Y-39499313D01*
X84204400Y-39507853D01*
X84070262Y-39612256D01*
X84070259Y-39612259D01*
X84070256Y-39612261D01*
X84070256Y-39612262D01*
X84044577Y-39640157D01*
X83901833Y-39795217D01*
X83765826Y-40003393D01*
X83665936Y-40231118D01*
X83604892Y-40472175D01*
X83604890Y-40472187D01*
X83584357Y-40719994D01*
X83584357Y-40720005D01*
X83604890Y-40967812D01*
X83604892Y-40967824D01*
X83665936Y-41208881D01*
X83765826Y-41436606D01*
X83901833Y-41644782D01*
X83901836Y-41644785D01*
X84070256Y-41827738D01*
X84266491Y-41980474D01*
X84485190Y-42098828D01*
X84720386Y-42179571D01*
X84965665Y-42220500D01*
X85124218Y-42220500D01*
X85191257Y-42240185D01*
X85211899Y-42256819D01*
X86593181Y-43638101D01*
X86626666Y-43699424D01*
X86629500Y-43725782D01*
X86629500Y-50651717D01*
X86609815Y-50718756D01*
X86593181Y-50739398D01*
X78069984Y-59262595D01*
X78008661Y-59296080D01*
X77938969Y-59291096D01*
X77894622Y-59262595D01*
X74637511Y-56005484D01*
X74446434Y-55866657D01*
X74235996Y-55759433D01*
X74011368Y-55686446D01*
X73778097Y-55649500D01*
X73778092Y-55649500D01*
X61315390Y-55649500D01*
X61248351Y-55629815D01*
X61227709Y-55613181D01*
X55156819Y-49542291D01*
X55123334Y-49480968D01*
X55120500Y-49454610D01*
X55120500Y-47458296D01*
X56014500Y-47458296D01*
X56014500Y-48901704D01*
X56017402Y-48950419D01*
X56017402Y-48950423D01*
X56017403Y-48950424D01*
X56063495Y-49162309D01*
X56063500Y-49162325D01*
X56148857Y-49361653D01*
X56148860Y-49361658D01*
X56148862Y-49361663D01*
X56148865Y-49361668D01*
X56148866Y-49361669D01*
X56270412Y-49541252D01*
X56423747Y-49694587D01*
X56423750Y-49694589D01*
X56603337Y-49816138D01*
X56603344Y-49816141D01*
X56603346Y-49816142D01*
X56802674Y-49901499D01*
X56802681Y-49901501D01*
X56802683Y-49901502D01*
X56802684Y-49901502D01*
X56802690Y-49901504D01*
X56888968Y-49920272D01*
X57014581Y-49947598D01*
X57063296Y-49950500D01*
X57063308Y-49950500D01*
X57236692Y-49950500D01*
X57236704Y-49950500D01*
X57285419Y-49947598D01*
X57450359Y-49911717D01*
X57497309Y-49901504D01*
X57497311Y-49901503D01*
X57497317Y-49901502D01*
X57497321Y-49901500D01*
X57497325Y-49901499D01*
X57617198Y-49850166D01*
X57696663Y-49816138D01*
X57876250Y-49694589D01*
X58029589Y-49541250D01*
X58151138Y-49361663D01*
X58208177Y-49228464D01*
X58236499Y-49162325D01*
X58236500Y-49162321D01*
X58236502Y-49162317D01*
X58282598Y-48950419D01*
X58285500Y-48901704D01*
X58285500Y-47458296D01*
X58554500Y-47458296D01*
X58554500Y-48901704D01*
X58557402Y-48950419D01*
X58557402Y-48950423D01*
X58557403Y-48950424D01*
X58603495Y-49162309D01*
X58603500Y-49162325D01*
X58688857Y-49361653D01*
X58688860Y-49361658D01*
X58688862Y-49361663D01*
X58688865Y-49361668D01*
X58688866Y-49361669D01*
X58810412Y-49541252D01*
X58963747Y-49694587D01*
X58963750Y-49694589D01*
X59143337Y-49816138D01*
X59143344Y-49816141D01*
X59143346Y-49816142D01*
X59342674Y-49901499D01*
X59342681Y-49901501D01*
X59342683Y-49901502D01*
X59342684Y-49901502D01*
X59342690Y-49901504D01*
X59428968Y-49920272D01*
X59554581Y-49947598D01*
X59603296Y-49950500D01*
X59603308Y-49950500D01*
X59776692Y-49950500D01*
X59776704Y-49950500D01*
X59825419Y-49947598D01*
X59990359Y-49911717D01*
X60037309Y-49901504D01*
X60037311Y-49901503D01*
X60037317Y-49901502D01*
X60037321Y-49901500D01*
X60037325Y-49901499D01*
X60157198Y-49850166D01*
X60236663Y-49816138D01*
X60416250Y-49694589D01*
X60569589Y-49541250D01*
X60691138Y-49361663D01*
X60748177Y-49228464D01*
X60776499Y-49162325D01*
X60776500Y-49162321D01*
X60776502Y-49162317D01*
X60822598Y-48950419D01*
X60825500Y-48901704D01*
X60825500Y-47458296D01*
X60822598Y-47409581D01*
X60776536Y-47197839D01*
X60776504Y-47197690D01*
X60776499Y-47197674D01*
X60691142Y-46998346D01*
X60691141Y-46998344D01*
X60691138Y-46998337D01*
X60569589Y-46818750D01*
X60569587Y-46818747D01*
X60416252Y-46665412D01*
X60236669Y-46543866D01*
X60236668Y-46543865D01*
X60236663Y-46543862D01*
X60236658Y-46543860D01*
X60236653Y-46543857D01*
X60037325Y-46458500D01*
X60037309Y-46458495D01*
X59825424Y-46412403D01*
X59825423Y-46412402D01*
X59825419Y-46412402D01*
X59776704Y-46409500D01*
X59603296Y-46409500D01*
X59554581Y-46412402D01*
X59554576Y-46412402D01*
X59554575Y-46412403D01*
X59342690Y-46458495D01*
X59342674Y-46458500D01*
X59143346Y-46543857D01*
X59143330Y-46543866D01*
X58963747Y-46665412D01*
X58810412Y-46818747D01*
X58688866Y-46998330D01*
X58688857Y-46998346D01*
X58603500Y-47197674D01*
X58603495Y-47197690D01*
X58572504Y-47340157D01*
X58557402Y-47409581D01*
X58554500Y-47458296D01*
X58285500Y-47458296D01*
X58282598Y-47409581D01*
X58236536Y-47197839D01*
X58236504Y-47197690D01*
X58236499Y-47197674D01*
X58151142Y-46998346D01*
X58151141Y-46998344D01*
X58151138Y-46998337D01*
X58029589Y-46818750D01*
X58029587Y-46818747D01*
X57876252Y-46665412D01*
X57696669Y-46543866D01*
X57696668Y-46543865D01*
X57696663Y-46543862D01*
X57696658Y-46543860D01*
X57696653Y-46543857D01*
X57497325Y-46458500D01*
X57497309Y-46458495D01*
X57285424Y-46412403D01*
X57285423Y-46412402D01*
X57285419Y-46412402D01*
X57236704Y-46409500D01*
X57063296Y-46409500D01*
X57014581Y-46412402D01*
X57014576Y-46412402D01*
X57014575Y-46412403D01*
X56802690Y-46458495D01*
X56802674Y-46458500D01*
X56603346Y-46543857D01*
X56603330Y-46543866D01*
X56423747Y-46665412D01*
X56270412Y-46818747D01*
X56148866Y-46998330D01*
X56148857Y-46998346D01*
X56063500Y-47197674D01*
X56063495Y-47197690D01*
X56032504Y-47340157D01*
X56017402Y-47409581D01*
X56014500Y-47458296D01*
X55120500Y-47458296D01*
X55120500Y-44634816D01*
X55140185Y-44567777D01*
X55192989Y-44522022D01*
X55262147Y-44512078D01*
X55325703Y-44541103D01*
X55347602Y-44565925D01*
X55356861Y-44579782D01*
X55356865Y-44579787D01*
X55387479Y-44610401D01*
X55395651Y-44619416D01*
X55420808Y-44650070D01*
X55423118Y-44652884D01*
X55456581Y-44680346D01*
X55465599Y-44688520D01*
X55496214Y-44719136D01*
X55496219Y-44719140D01*
X55514852Y-44731590D01*
X55524584Y-44738093D01*
X55532219Y-44743194D01*
X55541988Y-44750438D01*
X55575462Y-44777910D01*
X55575464Y-44777911D01*
X55613640Y-44798316D01*
X55624078Y-44804572D01*
X55660086Y-44828632D01*
X55700095Y-44845203D01*
X55711091Y-44850404D01*
X55749273Y-44870814D01*
X55790710Y-44883383D01*
X55802160Y-44887480D01*
X55842165Y-44904051D01*
X55884640Y-44912499D01*
X55896414Y-44915448D01*
X55937868Y-44928024D01*
X55980964Y-44932268D01*
X55992990Y-44934052D01*
X56023480Y-44940117D01*
X56035458Y-44942500D01*
X56035459Y-44942500D01*
X56078756Y-44942500D01*
X56090909Y-44943096D01*
X56134000Y-44947341D01*
X56177090Y-44943096D01*
X56189244Y-44942500D01*
X61311611Y-44942500D01*
X61378650Y-44962185D01*
X61424405Y-45014989D01*
X61434349Y-45084147D01*
X61407465Y-45145164D01*
X61394090Y-45161461D01*
X61394086Y-45161467D01*
X61301188Y-45335266D01*
X61243975Y-45523870D01*
X61224659Y-45720000D01*
X61243975Y-45916129D01*
X61301188Y-46104733D01*
X61394086Y-46278532D01*
X61394090Y-46278539D01*
X61441475Y-46336277D01*
X61501353Y-46409238D01*
X61528666Y-46473546D01*
X61529500Y-46487902D01*
X61529500Y-46588298D01*
X61509815Y-46655337D01*
X61493181Y-46675979D01*
X61350413Y-46818746D01*
X61350412Y-46818747D01*
X61228866Y-46998330D01*
X61228857Y-46998346D01*
X61143500Y-47197674D01*
X61143495Y-47197690D01*
X61112504Y-47340157D01*
X61097402Y-47409581D01*
X61094500Y-47458296D01*
X61094500Y-48901704D01*
X61097402Y-48950419D01*
X61097402Y-48950423D01*
X61097403Y-48950424D01*
X61143495Y-49162309D01*
X61143500Y-49162325D01*
X61228857Y-49361653D01*
X61228860Y-49361658D01*
X61228862Y-49361663D01*
X61228865Y-49361668D01*
X61228866Y-49361669D01*
X61350412Y-49541252D01*
X61503747Y-49694587D01*
X61503750Y-49694589D01*
X61683337Y-49816138D01*
X61683344Y-49816141D01*
X61683346Y-49816142D01*
X61882674Y-49901499D01*
X61882681Y-49901501D01*
X61882683Y-49901502D01*
X61882684Y-49901502D01*
X61882690Y-49901504D01*
X61968968Y-49920272D01*
X62094581Y-49947598D01*
X62143296Y-49950500D01*
X62143308Y-49950500D01*
X62316692Y-49950500D01*
X62316704Y-49950500D01*
X62365419Y-49947598D01*
X62530359Y-49911717D01*
X62577309Y-49901504D01*
X62577311Y-49901503D01*
X62577317Y-49901502D01*
X62577321Y-49901500D01*
X62577325Y-49901499D01*
X62697198Y-49850166D01*
X62776663Y-49816138D01*
X62956250Y-49694589D01*
X63109589Y-49541250D01*
X63231138Y-49361663D01*
X63288177Y-49228464D01*
X63316499Y-49162325D01*
X63316500Y-49162321D01*
X63316502Y-49162317D01*
X63362598Y-48950419D01*
X63365500Y-48901704D01*
X63365500Y-47458296D01*
X63362598Y-47409581D01*
X63316536Y-47197839D01*
X63316504Y-47197690D01*
X63316499Y-47197674D01*
X63231142Y-46998346D01*
X63231141Y-46998344D01*
X63231138Y-46998337D01*
X63109589Y-46818750D01*
X63109587Y-46818747D01*
X62966819Y-46675979D01*
X62933334Y-46614656D01*
X62930500Y-46588298D01*
X62930500Y-46487902D01*
X62950185Y-46420863D01*
X62958642Y-46409242D01*
X63065910Y-46278538D01*
X63158814Y-46104727D01*
X63216024Y-45916132D01*
X63235341Y-45720000D01*
X63216024Y-45523868D01*
X63163377Y-45350315D01*
X63162753Y-45280448D01*
X63200001Y-45221335D01*
X63263295Y-45191744D01*
X63332539Y-45201069D01*
X63369718Y-45226638D01*
X63733181Y-45590101D01*
X63766666Y-45651424D01*
X63769500Y-45677782D01*
X63769500Y-46971415D01*
X63759488Y-47020227D01*
X63683500Y-47197674D01*
X63683495Y-47197690D01*
X63652504Y-47340157D01*
X63637402Y-47409581D01*
X63634500Y-47458296D01*
X63634500Y-48901704D01*
X63637402Y-48950419D01*
X63637402Y-48950423D01*
X63637403Y-48950424D01*
X63683495Y-49162309D01*
X63683500Y-49162325D01*
X63768857Y-49361653D01*
X63768860Y-49361658D01*
X63768862Y-49361663D01*
X63768865Y-49361668D01*
X63768866Y-49361669D01*
X63890412Y-49541252D01*
X64043747Y-49694587D01*
X64043750Y-49694589D01*
X64223337Y-49816138D01*
X64223344Y-49816141D01*
X64223346Y-49816142D01*
X64422674Y-49901499D01*
X64422681Y-49901501D01*
X64422683Y-49901502D01*
X64422684Y-49901502D01*
X64422690Y-49901504D01*
X64508968Y-49920272D01*
X64634581Y-49947598D01*
X64683296Y-49950500D01*
X64683308Y-49950500D01*
X64856692Y-49950500D01*
X64856704Y-49950500D01*
X64905419Y-49947598D01*
X65070359Y-49911717D01*
X65117309Y-49901504D01*
X65117311Y-49901503D01*
X65117317Y-49901502D01*
X65117321Y-49901500D01*
X65117325Y-49901499D01*
X65237198Y-49850166D01*
X65316663Y-49816138D01*
X65496250Y-49694589D01*
X65649589Y-49541250D01*
X65771138Y-49361663D01*
X65828177Y-49228464D01*
X65856499Y-49162325D01*
X65856500Y-49162321D01*
X65856502Y-49162317D01*
X65902598Y-48950419D01*
X65905500Y-48901704D01*
X65905500Y-47458296D01*
X66174500Y-47458296D01*
X66174500Y-48901704D01*
X66177402Y-48950419D01*
X66177402Y-48950423D01*
X66177403Y-48950424D01*
X66223495Y-49162309D01*
X66223500Y-49162325D01*
X66308857Y-49361653D01*
X66308860Y-49361658D01*
X66308862Y-49361663D01*
X66308865Y-49361668D01*
X66308866Y-49361669D01*
X66430412Y-49541252D01*
X66583747Y-49694587D01*
X66583750Y-49694589D01*
X66763337Y-49816138D01*
X66763344Y-49816141D01*
X66763346Y-49816142D01*
X66962674Y-49901499D01*
X66962681Y-49901501D01*
X66962683Y-49901502D01*
X66962684Y-49901502D01*
X66962690Y-49901504D01*
X67048968Y-49920272D01*
X67174581Y-49947598D01*
X67223296Y-49950500D01*
X67223308Y-49950500D01*
X67396692Y-49950500D01*
X67396704Y-49950500D01*
X67445419Y-49947598D01*
X67610359Y-49911717D01*
X67657309Y-49901504D01*
X67657311Y-49901503D01*
X67657317Y-49901502D01*
X67657321Y-49901500D01*
X67657325Y-49901499D01*
X67777198Y-49850166D01*
X67856663Y-49816138D01*
X68036250Y-49694589D01*
X68189589Y-49541250D01*
X68311138Y-49361663D01*
X68368177Y-49228464D01*
X68396499Y-49162325D01*
X68396500Y-49162321D01*
X68396502Y-49162317D01*
X68442598Y-48950419D01*
X68445500Y-48901704D01*
X68445500Y-47458296D01*
X68714500Y-47458296D01*
X68714500Y-48901704D01*
X68717402Y-48950419D01*
X68717402Y-48950423D01*
X68717403Y-48950424D01*
X68763495Y-49162309D01*
X68763500Y-49162325D01*
X68848857Y-49361653D01*
X68848860Y-49361658D01*
X68848862Y-49361663D01*
X68848865Y-49361668D01*
X68848866Y-49361669D01*
X68970412Y-49541252D01*
X69123747Y-49694587D01*
X69123750Y-49694589D01*
X69303337Y-49816138D01*
X69303344Y-49816141D01*
X69303346Y-49816142D01*
X69502674Y-49901499D01*
X69502681Y-49901501D01*
X69502683Y-49901502D01*
X69502684Y-49901502D01*
X69502690Y-49901504D01*
X69588968Y-49920272D01*
X69714581Y-49947598D01*
X69763296Y-49950500D01*
X69763308Y-49950500D01*
X69936692Y-49950500D01*
X69936704Y-49950500D01*
X69985419Y-49947598D01*
X70150359Y-49911717D01*
X70197309Y-49901504D01*
X70197311Y-49901503D01*
X70197317Y-49901502D01*
X70197321Y-49901500D01*
X70197325Y-49901499D01*
X70317198Y-49850166D01*
X70396663Y-49816138D01*
X70576250Y-49694589D01*
X70729589Y-49541250D01*
X70851138Y-49361663D01*
X70908177Y-49228464D01*
X70936499Y-49162325D01*
X70936500Y-49162321D01*
X70936502Y-49162317D01*
X70982598Y-48950419D01*
X70985500Y-48901704D01*
X70985500Y-47458296D01*
X71254500Y-47458296D01*
X71254500Y-48901704D01*
X71257402Y-48950419D01*
X71257402Y-48950423D01*
X71257403Y-48950424D01*
X71303495Y-49162309D01*
X71303500Y-49162325D01*
X71388857Y-49361653D01*
X71388860Y-49361658D01*
X71388862Y-49361663D01*
X71388865Y-49361668D01*
X71388866Y-49361669D01*
X71510412Y-49541252D01*
X71663747Y-49694587D01*
X71663750Y-49694589D01*
X71843337Y-49816138D01*
X71843344Y-49816141D01*
X71843346Y-49816142D01*
X72042674Y-49901499D01*
X72042681Y-49901501D01*
X72042683Y-49901502D01*
X72042684Y-49901502D01*
X72042690Y-49901504D01*
X72128968Y-49920272D01*
X72254581Y-49947598D01*
X72303296Y-49950500D01*
X72303308Y-49950500D01*
X72476692Y-49950500D01*
X72476704Y-49950500D01*
X72525419Y-49947598D01*
X72690359Y-49911717D01*
X72737309Y-49901504D01*
X72737311Y-49901503D01*
X72737317Y-49901502D01*
X72737321Y-49901500D01*
X72737325Y-49901499D01*
X72857198Y-49850166D01*
X72936663Y-49816138D01*
X73116250Y-49694589D01*
X73269589Y-49541250D01*
X73391138Y-49361663D01*
X73448177Y-49228464D01*
X73476499Y-49162325D01*
X73476500Y-49162321D01*
X73476502Y-49162317D01*
X73522598Y-48950419D01*
X73525500Y-48901704D01*
X73525500Y-47458296D01*
X73522598Y-47409581D01*
X73476536Y-47197839D01*
X73476504Y-47197690D01*
X73476499Y-47197674D01*
X73391142Y-46998346D01*
X73391141Y-46998344D01*
X73391138Y-46998337D01*
X73269589Y-46818750D01*
X73269587Y-46818747D01*
X73126819Y-46675979D01*
X73093334Y-46614656D01*
X73090500Y-46588298D01*
X73090500Y-46487902D01*
X73110185Y-46420863D01*
X73118642Y-46409242D01*
X73225910Y-46278538D01*
X73318814Y-46104727D01*
X73376024Y-45916132D01*
X73395341Y-45720000D01*
X73376024Y-45523868D01*
X73318814Y-45335273D01*
X73318811Y-45335269D01*
X73318811Y-45335266D01*
X73225913Y-45161467D01*
X73225909Y-45161460D01*
X73100883Y-45009116D01*
X72948539Y-44884090D01*
X72948532Y-44884086D01*
X72774733Y-44791188D01*
X72774727Y-44791186D01*
X72627682Y-44746580D01*
X72586129Y-44733975D01*
X72390000Y-44714659D01*
X72193870Y-44733975D01*
X72005266Y-44791188D01*
X71831467Y-44884086D01*
X71831460Y-44884090D01*
X71679116Y-45009116D01*
X71554090Y-45161460D01*
X71554086Y-45161467D01*
X71461188Y-45335266D01*
X71403975Y-45523870D01*
X71384659Y-45720000D01*
X71403975Y-45916129D01*
X71461188Y-46104733D01*
X71554086Y-46278532D01*
X71554090Y-46278539D01*
X71601475Y-46336277D01*
X71661353Y-46409238D01*
X71688666Y-46473546D01*
X71689500Y-46487902D01*
X71689500Y-46588298D01*
X71669815Y-46655337D01*
X71653181Y-46675979D01*
X71510413Y-46818746D01*
X71510412Y-46818747D01*
X71388866Y-46998330D01*
X71388857Y-46998346D01*
X71303500Y-47197674D01*
X71303495Y-47197690D01*
X71272504Y-47340157D01*
X71257402Y-47409581D01*
X71254500Y-47458296D01*
X70985500Y-47458296D01*
X70982598Y-47409581D01*
X70936536Y-47197839D01*
X70936504Y-47197690D01*
X70936499Y-47197674D01*
X70851142Y-46998346D01*
X70851141Y-46998344D01*
X70851138Y-46998337D01*
X70729589Y-46818750D01*
X70729587Y-46818747D01*
X70576252Y-46665412D01*
X70396669Y-46543866D01*
X70396668Y-46543865D01*
X70396663Y-46543862D01*
X70396658Y-46543860D01*
X70396653Y-46543857D01*
X70197325Y-46458500D01*
X70197309Y-46458495D01*
X69985424Y-46412403D01*
X69985423Y-46412402D01*
X69985419Y-46412402D01*
X69936704Y-46409500D01*
X69763296Y-46409500D01*
X69714581Y-46412402D01*
X69714576Y-46412402D01*
X69714575Y-46412403D01*
X69502690Y-46458495D01*
X69502674Y-46458500D01*
X69303346Y-46543857D01*
X69303330Y-46543866D01*
X69123747Y-46665412D01*
X68970412Y-46818747D01*
X68848866Y-46998330D01*
X68848857Y-46998346D01*
X68763500Y-47197674D01*
X68763495Y-47197690D01*
X68732504Y-47340157D01*
X68717402Y-47409581D01*
X68714500Y-47458296D01*
X68445500Y-47458296D01*
X68442598Y-47409581D01*
X68396536Y-47197839D01*
X68396504Y-47197690D01*
X68396499Y-47197674D01*
X68311142Y-46998346D01*
X68311141Y-46998344D01*
X68311138Y-46998337D01*
X68189589Y-46818750D01*
X68189587Y-46818747D01*
X68036252Y-46665412D01*
X67856669Y-46543866D01*
X67856668Y-46543865D01*
X67856663Y-46543862D01*
X67856658Y-46543860D01*
X67856653Y-46543857D01*
X67657325Y-46458500D01*
X67657309Y-46458495D01*
X67445424Y-46412403D01*
X67445423Y-46412402D01*
X67445419Y-46412402D01*
X67396704Y-46409500D01*
X67223296Y-46409500D01*
X67174581Y-46412402D01*
X67174576Y-46412402D01*
X67174575Y-46412403D01*
X66962690Y-46458495D01*
X66962674Y-46458500D01*
X66763346Y-46543857D01*
X66763330Y-46543866D01*
X66583747Y-46665412D01*
X66430412Y-46818747D01*
X66308866Y-46998330D01*
X66308857Y-46998346D01*
X66223500Y-47197674D01*
X66223495Y-47197690D01*
X66192504Y-47340157D01*
X66177402Y-47409581D01*
X66174500Y-47458296D01*
X65905500Y-47458296D01*
X65902598Y-47409581D01*
X65856536Y-47197839D01*
X65856504Y-47197690D01*
X65856499Y-47197674D01*
X65780512Y-47020227D01*
X65770500Y-46971415D01*
X65770500Y-45113456D01*
X65770499Y-45113454D01*
X65749745Y-45009116D01*
X65732051Y-44920165D01*
X65725376Y-44904051D01*
X65723597Y-44899757D01*
X65694137Y-44828632D01*
X65656635Y-44738093D01*
X65656634Y-44738092D01*
X65656632Y-44738086D01*
X65620633Y-44684210D01*
X65547139Y-44574217D01*
X65404686Y-44431764D01*
X65404655Y-44431735D01*
X64430101Y-43457181D01*
X64396616Y-43395858D01*
X64401600Y-43326166D01*
X64443472Y-43270233D01*
X64508936Y-43245816D01*
X64517782Y-43245500D01*
X68013996Y-43245500D01*
X68105040Y-43227389D01*
X68149328Y-43218580D01*
X68213069Y-43192177D01*
X68276807Y-43165777D01*
X68276808Y-43165776D01*
X68276811Y-43165775D01*
X68391543Y-43089114D01*
X69609469Y-41871186D01*
X69670790Y-41837703D01*
X69719932Y-41836981D01*
X69738757Y-41840500D01*
X69738759Y-41840500D01*
X69961241Y-41840500D01*
X69961243Y-41840500D01*
X70179940Y-41799618D01*
X70387401Y-41719247D01*
X70576562Y-41602124D01*
X70740981Y-41452236D01*
X70875058Y-41274689D01*
X70974229Y-41075528D01*
X71035115Y-40861536D01*
X71055643Y-40640000D01*
X71035115Y-40418464D01*
X70974229Y-40204472D01*
X70974224Y-40204461D01*
X70875061Y-40005316D01*
X70875056Y-40005308D01*
X70740979Y-39827761D01*
X70576562Y-39677876D01*
X70576560Y-39677874D01*
X70387404Y-39560754D01*
X70387395Y-39560750D01*
X70277533Y-39518190D01*
X70193475Y-39485625D01*
X70138075Y-39443054D01*
X70114484Y-39377288D01*
X70130195Y-39309207D01*
X70180219Y-39260428D01*
X70193466Y-39254377D01*
X70387401Y-39179247D01*
X70576562Y-39062124D01*
X70740981Y-38912236D01*
X70875058Y-38734689D01*
X70974229Y-38535528D01*
X71035115Y-38321536D01*
X71055643Y-38100000D01*
X71052229Y-38063159D01*
X71065643Y-37994591D01*
X71114000Y-37944159D01*
X71181946Y-37927876D01*
X71247909Y-37950913D01*
X71263381Y-37964038D01*
X73701427Y-40402084D01*
X73734912Y-40463407D01*
X73737217Y-40501205D01*
X73724357Y-40639998D01*
X73724357Y-40640000D01*
X73744884Y-40861535D01*
X73744885Y-40861537D01*
X73805769Y-41075523D01*
X73805775Y-41075538D01*
X73904938Y-41274683D01*
X73904943Y-41274691D01*
X74039020Y-41452238D01*
X74203437Y-41602123D01*
X74203439Y-41602125D01*
X74392595Y-41719245D01*
X74392596Y-41719245D01*
X74392599Y-41719247D01*
X74600060Y-41799618D01*
X74818757Y-41840500D01*
X74818759Y-41840500D01*
X75041241Y-41840500D01*
X75041243Y-41840500D01*
X75259940Y-41799618D01*
X75467401Y-41719247D01*
X75656562Y-41602124D01*
X75820981Y-41452236D01*
X75955058Y-41274689D01*
X76054229Y-41075528D01*
X76115115Y-40861536D01*
X76135643Y-40640000D01*
X76115115Y-40418464D01*
X76054229Y-40204472D01*
X76054224Y-40204461D01*
X75955061Y-40005316D01*
X75955056Y-40005308D01*
X75820979Y-39827761D01*
X75656562Y-39677876D01*
X75656560Y-39677874D01*
X75467404Y-39560754D01*
X75467398Y-39560751D01*
X75308806Y-39499313D01*
X75272784Y-39485358D01*
X75217385Y-39442786D01*
X75193794Y-39377019D01*
X75209505Y-39308939D01*
X75259529Y-39260160D01*
X75272786Y-39254105D01*
X75467177Y-39178797D01*
X75467181Y-39178795D01*
X75583326Y-39106879D01*
X74926447Y-38450000D01*
X74976078Y-38450000D01*
X75065095Y-38426148D01*
X75144905Y-38380070D01*
X75210070Y-38314905D01*
X75256148Y-38235095D01*
X75280000Y-38146078D01*
X75280000Y-38099999D01*
X75283553Y-38099999D01*
X75283553Y-38100000D01*
X75938861Y-38755308D01*
X75954631Y-38734425D01*
X75954633Y-38734422D01*
X76053759Y-38535350D01*
X76114621Y-38321439D01*
X76135141Y-38100000D01*
X76135141Y-38099999D01*
X76114621Y-37878560D01*
X76053759Y-37664649D01*
X75954635Y-37465580D01*
X75954630Y-37465572D01*
X75938860Y-37444690D01*
X75283553Y-38099999D01*
X75280000Y-38099999D01*
X75280000Y-38053922D01*
X75256148Y-37964905D01*
X75210070Y-37885095D01*
X75144905Y-37819930D01*
X75065095Y-37773852D01*
X74976078Y-37750000D01*
X74883922Y-37750000D01*
X74794905Y-37773852D01*
X74715095Y-37819930D01*
X74649930Y-37885095D01*
X74603852Y-37964905D01*
X74580000Y-38053922D01*
X74580000Y-38103553D01*
X73921138Y-37444691D01*
X73921137Y-37444691D01*
X73905368Y-37465574D01*
X73806240Y-37664649D01*
X73745378Y-37878560D01*
X73724859Y-38099999D01*
X73724859Y-38100003D01*
X73728323Y-38137394D01*
X73714907Y-38205964D01*
X73666549Y-38256394D01*
X73598603Y-38272675D01*
X73532641Y-38249637D01*
X73517171Y-38236514D01*
X72373776Y-37093119D01*
X74276671Y-37093119D01*
X74930000Y-37746447D01*
X74930001Y-37746447D01*
X75583327Y-37093119D01*
X75467178Y-37021202D01*
X75467177Y-37021201D01*
X75259804Y-36940865D01*
X75041193Y-36900000D01*
X74818807Y-36900000D01*
X74600195Y-36940865D01*
X74392824Y-37021200D01*
X74392823Y-37021201D01*
X74276671Y-37093119D01*
X72373776Y-37093119D01*
X70586819Y-35306162D01*
X70553334Y-35244839D01*
X70550500Y-35218481D01*
X70550500Y-34060634D01*
X70570185Y-33993595D01*
X70590962Y-33968997D01*
X70740979Y-33832238D01*
X70770619Y-33792989D01*
X70875058Y-33654689D01*
X70974229Y-33455528D01*
X71035115Y-33241536D01*
X71055643Y-33020000D01*
X71055642Y-33019994D01*
X71035115Y-32798464D01*
X71035114Y-32798462D01*
X71027638Y-32772187D01*
X70974229Y-32584472D01*
X70962800Y-32561519D01*
X70875061Y-32385316D01*
X70875056Y-32385308D01*
X70740981Y-32207764D01*
X70590961Y-32071002D01*
X70554680Y-32011290D01*
X70550500Y-31979365D01*
X70550500Y-31520634D01*
X70570185Y-31453595D01*
X70590962Y-31428997D01*
X70740979Y-31292238D01*
X70801648Y-31211900D01*
X70875058Y-31114689D01*
X70974229Y-30915528D01*
X71035115Y-30701536D01*
X71055643Y-30480000D01*
X71055642Y-30479994D01*
X71035115Y-30258464D01*
X71035114Y-30258462D01*
X71027659Y-30232261D01*
X70974229Y-30044472D01*
X70959093Y-30014075D01*
X70875061Y-29845316D01*
X70875056Y-29845308D01*
X70740979Y-29667761D01*
X70576562Y-29517876D01*
X70576560Y-29517874D01*
X70387404Y-29400754D01*
X70387398Y-29400752D01*
X70179940Y-29320382D01*
X69961243Y-29279500D01*
X69738757Y-29279500D01*
X69717820Y-29283413D01*
X69610888Y-29303402D01*
X69552107Y-29300173D01*
X69546325Y-29298419D01*
X69410996Y-29271500D01*
X69410994Y-29271500D01*
X69410993Y-29271500D01*
X64685962Y-29271500D01*
X64618923Y-29251815D01*
X64573168Y-29199011D01*
X64563224Y-29129853D01*
X64589015Y-29070187D01*
X64690685Y-28942696D01*
X64823703Y-28712303D01*
X64920895Y-28464662D01*
X64920901Y-28464643D01*
X64980096Y-28205292D01*
X64980096Y-28205290D01*
X64999977Y-27940004D01*
X64999977Y-27939995D01*
X64980096Y-27674709D01*
X64980096Y-27674707D01*
X64920901Y-27415356D01*
X64920895Y-27415337D01*
X64823703Y-27167696D01*
X64690683Y-26937299D01*
X64639915Y-26873637D01*
X63916712Y-27596839D01*
X63906796Y-27572900D01*
X63821982Y-27445966D01*
X63714034Y-27338018D01*
X63587100Y-27253204D01*
X63563159Y-27243287D01*
X64287158Y-26519287D01*
X64109984Y-26398492D01*
X63870299Y-26283066D01*
X63616090Y-26204653D01*
X63616084Y-26204652D01*
X63353023Y-26165000D01*
X63086976Y-26165000D01*
X62823915Y-26204652D01*
X62823909Y-26204653D01*
X62569699Y-26283067D01*
X62569695Y-26283068D01*
X62330015Y-26398493D01*
X62330011Y-26398495D01*
X62152840Y-26519287D01*
X62876841Y-27243287D01*
X62852900Y-27253204D01*
X62725966Y-27338018D01*
X62618018Y-27445966D01*
X62533204Y-27572900D01*
X62523287Y-27596841D01*
X61800084Y-26873638D01*
X61749314Y-26937302D01*
X61616296Y-27167696D01*
X61519104Y-27415337D01*
X61519098Y-27415356D01*
X61459903Y-27674707D01*
X61459903Y-27674709D01*
X61440023Y-27939995D01*
X61440023Y-27940004D01*
X61459903Y-28205290D01*
X61459903Y-28205292D01*
X61519098Y-28464643D01*
X61519104Y-28464662D01*
X61616296Y-28712303D01*
X61749314Y-28942696D01*
X61850985Y-29070187D01*
X61877393Y-29134873D01*
X61864638Y-29203569D01*
X61816767Y-29254463D01*
X61754038Y-29271500D01*
X59886603Y-29271500D01*
X59819564Y-29251815D01*
X59773809Y-29199011D01*
X59763865Y-29129853D01*
X59789656Y-29070187D01*
X59823414Y-29027856D01*
X59891101Y-28942980D01*
X60024156Y-28712521D01*
X60121377Y-28464805D01*
X60180593Y-28205367D01*
X60194759Y-28016331D01*
X60200479Y-27940004D01*
X60200479Y-27939995D01*
X60180594Y-27674642D01*
X60180594Y-27674640D01*
X60180593Y-27674636D01*
X60180593Y-27674633D01*
X60121377Y-27415195D01*
X60024156Y-27167479D01*
X59891101Y-26937020D01*
X59725183Y-26728967D01*
X59725182Y-26728966D01*
X59725179Y-26728962D01*
X59530110Y-26547965D01*
X59465575Y-26503966D01*
X59310240Y-26398060D01*
X59310236Y-26398058D01*
X59310233Y-26398056D01*
X59310232Y-26398055D01*
X59070484Y-26282600D01*
X59070486Y-26282600D01*
X58816195Y-26204161D01*
X58816189Y-26204159D01*
X58553062Y-26164500D01*
X58553055Y-26164500D01*
X58286945Y-26164500D01*
X58286937Y-26164500D01*
X58023810Y-26204159D01*
X58023804Y-26204161D01*
X57769514Y-26282600D01*
X57529769Y-26398055D01*
X57529760Y-26398060D01*
X57309892Y-26547963D01*
X57114820Y-26728962D01*
X56948899Y-26937020D01*
X56815844Y-27167478D01*
X56718625Y-27415189D01*
X56718620Y-27415206D01*
X56659405Y-27674640D01*
X56659405Y-27674642D01*
X56639521Y-27939995D01*
X56639521Y-27940004D01*
X56659405Y-28205357D01*
X56659405Y-28205359D01*
X56711599Y-28434034D01*
X56718623Y-28464805D01*
X56815844Y-28712521D01*
X56948899Y-28942980D01*
X57016585Y-29027855D01*
X57050344Y-29070187D01*
X57076752Y-29134874D01*
X57063997Y-29203569D01*
X57016126Y-29254463D01*
X56953397Y-29271500D01*
X56599004Y-29271500D01*
X56463677Y-29298418D01*
X56463667Y-29298421D01*
X56336192Y-29351222D01*
X56221454Y-29427887D01*
X56221453Y-29427888D01*
X55332181Y-30317161D01*
X55270858Y-30350646D01*
X55201166Y-30345662D01*
X55145233Y-30303790D01*
X55120816Y-30238326D01*
X55120500Y-30229480D01*
X55120500Y-29602230D01*
X55140185Y-29535191D01*
X55156819Y-29514549D01*
X55162941Y-29508427D01*
X55237712Y-29433656D01*
X55329814Y-29284335D01*
X55384999Y-29117798D01*
X55395500Y-29015010D01*
X55395500Y-26864990D01*
X55384999Y-26762202D01*
X55329814Y-26595665D01*
X55237712Y-26446344D01*
X55113656Y-26322288D01*
X54964335Y-26230186D01*
X54797798Y-26175001D01*
X54797796Y-26175000D01*
X54695017Y-26164500D01*
X54695010Y-26164500D01*
X52544990Y-26164500D01*
X52544982Y-26164500D01*
X52442203Y-26175000D01*
X52442202Y-26175001D01*
X52359669Y-26202349D01*
X52275667Y-26230185D01*
X52275662Y-26230187D01*
X52126342Y-26322289D01*
X52002289Y-26446342D01*
X51910187Y-26595662D01*
X51910186Y-26595665D01*
X51855001Y-26762202D01*
X51855001Y-26762203D01*
X51855000Y-26762203D01*
X51844500Y-26864982D01*
X51844500Y-29015017D01*
X51855000Y-29117796D01*
X51910185Y-29284332D01*
X51910187Y-29284337D01*
X51931762Y-29319316D01*
X51998730Y-29427888D01*
X52002289Y-29433657D01*
X52083181Y-29514549D01*
X52116666Y-29575872D01*
X52119500Y-29602230D01*
X52119500Y-32195500D01*
X52099815Y-32262539D01*
X52047011Y-32308294D01*
X51995500Y-32319500D01*
X47996519Y-32319500D01*
X47929480Y-32299815D01*
X47908838Y-32283181D01*
X46275657Y-30650000D01*
X47083505Y-30650000D01*
X47136239Y-30835349D01*
X47235368Y-31034425D01*
X47369391Y-31211900D01*
X47533738Y-31361721D01*
X47722820Y-31478797D01*
X47722822Y-31478798D01*
X47930195Y-31559135D01*
X48010000Y-31574052D01*
X48510000Y-31574052D01*
X48589804Y-31559135D01*
X48797177Y-31478798D01*
X48797179Y-31478797D01*
X48986261Y-31361721D01*
X49150608Y-31211900D01*
X49284631Y-31034425D01*
X49383760Y-30835349D01*
X49436495Y-30650000D01*
X48510000Y-30650000D01*
X48510000Y-31574052D01*
X48010000Y-31574052D01*
X48010000Y-30650000D01*
X47083505Y-30650000D01*
X46275657Y-30650000D01*
X45979579Y-30353922D01*
X47910000Y-30353922D01*
X47910000Y-30446078D01*
X47933852Y-30535095D01*
X47979930Y-30614905D01*
X48045095Y-30680070D01*
X48124905Y-30726148D01*
X48213922Y-30750000D01*
X48306078Y-30750000D01*
X48395095Y-30726148D01*
X48474905Y-30680070D01*
X48540070Y-30614905D01*
X48586148Y-30535095D01*
X48610000Y-30446078D01*
X48610000Y-30353922D01*
X48586148Y-30264905D01*
X48540070Y-30185095D01*
X48504975Y-30150000D01*
X48510000Y-30150000D01*
X49436495Y-30150000D01*
X49383760Y-29964650D01*
X49284631Y-29765574D01*
X49150608Y-29588099D01*
X48986261Y-29438278D01*
X48797179Y-29321202D01*
X48797177Y-29321201D01*
X48589799Y-29240864D01*
X48510000Y-29225946D01*
X48510000Y-30150000D01*
X48504975Y-30150000D01*
X48474905Y-30119930D01*
X48395095Y-30073852D01*
X48306078Y-30050000D01*
X48213922Y-30050000D01*
X48124905Y-30073852D01*
X48045095Y-30119930D01*
X47979930Y-30185095D01*
X47933852Y-30264905D01*
X47910000Y-30353922D01*
X45979579Y-30353922D01*
X45956062Y-30330405D01*
X45922577Y-30269082D01*
X45920125Y-30252452D01*
X45915373Y-30192071D01*
X45913698Y-30185095D01*
X45905273Y-30150000D01*
X47083505Y-30150000D01*
X48010000Y-30150000D01*
X48010000Y-29225946D01*
X47930200Y-29240864D01*
X47722822Y-29321201D01*
X47722820Y-29321202D01*
X47533738Y-29438278D01*
X47369391Y-29588099D01*
X47235368Y-29765574D01*
X47136239Y-29964650D01*
X47083505Y-30150000D01*
X45905273Y-30150000D01*
X45857316Y-29950243D01*
X45780824Y-29765574D01*
X45762144Y-29720476D01*
X45632203Y-29508431D01*
X45632202Y-29508429D01*
X45568340Y-29433657D01*
X45470684Y-29319316D01*
X45329825Y-29199011D01*
X45281570Y-29157797D01*
X45281568Y-29157796D01*
X45069523Y-29027855D01*
X44839759Y-28932684D01*
X44597934Y-28874627D01*
X44350000Y-28855114D01*
X44102065Y-28874627D01*
X43860240Y-28932684D01*
X43630476Y-29027855D01*
X43418431Y-29157796D01*
X43418429Y-29157797D01*
X43229316Y-29319316D01*
X43067797Y-29508429D01*
X43067796Y-29508431D01*
X42962482Y-29680290D01*
X42910671Y-29727165D01*
X42856755Y-29739500D01*
X33343245Y-29739500D01*
X33276206Y-29719815D01*
X33237518Y-29680290D01*
X33132203Y-29508431D01*
X33132202Y-29508429D01*
X33068340Y-29433657D01*
X32970684Y-29319316D01*
X32829825Y-29199011D01*
X32781570Y-29157797D01*
X32781568Y-29157796D01*
X32569523Y-29027855D01*
X32339759Y-28932684D01*
X32097934Y-28874627D01*
X31850000Y-28855114D01*
X31602065Y-28874627D01*
X31360240Y-28932684D01*
X31130476Y-29027855D01*
X30918431Y-29157796D01*
X30918429Y-29157797D01*
X30729316Y-29319316D01*
X30567797Y-29508429D01*
X30567796Y-29508431D01*
X30437855Y-29720476D01*
X30342684Y-29950240D01*
X30284627Y-30192065D01*
X30265114Y-30440000D01*
X30284627Y-30687934D01*
X30342684Y-30929759D01*
X30437855Y-31159523D01*
X30567796Y-31371568D01*
X30567797Y-31371570D01*
X30567800Y-31371573D01*
X30729316Y-31560684D01*
X30865441Y-31676946D01*
X30918429Y-31722202D01*
X30918431Y-31722203D01*
X31130476Y-31852144D01*
X31360240Y-31947315D01*
X31360241Y-31947315D01*
X31360243Y-31947316D01*
X31602069Y-32005373D01*
X31850000Y-32024886D01*
X32097931Y-32005373D01*
X32339757Y-31947316D01*
X32569523Y-31852144D01*
X32781573Y-31722200D01*
X32970684Y-31560684D01*
X33132200Y-31371573D01*
X33158256Y-31329054D01*
X33237518Y-31199710D01*
X33289329Y-31152835D01*
X33343245Y-31140500D01*
X42856755Y-31140500D01*
X42923794Y-31160185D01*
X42962482Y-31199710D01*
X43067796Y-31371568D01*
X43067797Y-31371570D01*
X43067800Y-31371573D01*
X43229316Y-31560684D01*
X43365441Y-31676946D01*
X43418429Y-31722202D01*
X43418431Y-31722203D01*
X43630476Y-31852144D01*
X43860240Y-31947315D01*
X43860241Y-31947315D01*
X43860243Y-31947316D01*
X44102069Y-32005373D01*
X44350000Y-32024886D01*
X44597931Y-32005373D01*
X44839757Y-31947316D01*
X45069523Y-31852144D01*
X45102862Y-31831714D01*
X45250909Y-31740991D01*
X45318355Y-31722746D01*
X45384957Y-31743862D01*
X45403380Y-31759037D01*
X47208453Y-33564111D01*
X47208454Y-33564112D01*
X47323192Y-33640777D01*
X47450667Y-33693578D01*
X47450672Y-33693580D01*
X47450676Y-33693580D01*
X47450677Y-33693581D01*
X47586003Y-33720500D01*
X47586006Y-33720500D01*
X47586007Y-33720500D01*
X51995500Y-33720500D01*
X52062539Y-33740185D01*
X52108294Y-33792989D01*
X52119500Y-33844500D01*
X52119500Y-41085500D01*
X52099815Y-41152539D01*
X52047011Y-41198294D01*
X51995500Y-41209500D01*
X47506004Y-41209500D01*
X47370677Y-41236418D01*
X47370667Y-41236421D01*
X47243192Y-41289222D01*
X47128454Y-41365887D01*
X45403379Y-43090962D01*
X45342056Y-43124447D01*
X45272364Y-43119463D01*
X45250908Y-43109008D01*
X45069523Y-42997855D01*
X44839759Y-42902684D01*
X44597934Y-42844627D01*
X44350000Y-42825114D01*
X44102065Y-42844627D01*
X43860240Y-42902684D01*
X43630476Y-42997855D01*
X43418431Y-43127796D01*
X43418429Y-43127797D01*
X43229316Y-43289316D01*
X43067797Y-43478429D01*
X43067796Y-43478431D01*
X42962482Y-43650290D01*
X42910671Y-43697165D01*
X42856755Y-43709500D01*
X33343245Y-43709500D01*
X33276206Y-43689815D01*
X33237518Y-43650290D01*
X33132203Y-43478431D01*
X33132202Y-43478429D01*
X33040949Y-43371586D01*
X32970684Y-43289316D01*
X32827401Y-43166941D01*
X32781570Y-43127797D01*
X32781568Y-43127796D01*
X32569523Y-42997855D01*
X32339759Y-42902684D01*
X32097934Y-42844627D01*
X31850000Y-42825114D01*
X31602065Y-42844627D01*
X31360240Y-42902684D01*
X31130476Y-42997855D01*
X30918431Y-43127796D01*
X30918429Y-43127797D01*
X30729316Y-43289316D01*
X30567797Y-43478429D01*
X30567796Y-43478431D01*
X30437855Y-43690476D01*
X30342684Y-43920240D01*
X30284627Y-44162065D01*
X30275388Y-44279462D01*
X30265114Y-44410000D01*
X30284627Y-44657931D01*
X30284628Y-44657935D01*
X30331680Y-44853927D01*
X30328189Y-44923709D01*
X30298787Y-44970554D01*
X28933064Y-46336277D01*
X28892841Y-46363155D01*
X28878192Y-46369223D01*
X28833390Y-46399159D01*
X28766713Y-46420036D01*
X28699333Y-46401551D01*
X28652643Y-46349572D01*
X28640500Y-46296056D01*
X28640500Y-39691518D01*
X28660185Y-39624479D01*
X28676814Y-39603842D01*
X31289446Y-36991209D01*
X31350767Y-36957726D01*
X31406069Y-36958317D01*
X31602069Y-37005373D01*
X31850000Y-37024886D01*
X32097931Y-37005373D01*
X32339757Y-36947316D01*
X32569523Y-36852144D01*
X32781573Y-36722200D01*
X32970684Y-36560684D01*
X33132200Y-36371573D01*
X33262144Y-36159523D01*
X33357316Y-35929757D01*
X33415373Y-35687931D01*
X33434886Y-35440000D01*
X42765114Y-35440000D01*
X42784627Y-35687934D01*
X42842684Y-35929759D01*
X42937855Y-36159523D01*
X43067796Y-36371568D01*
X43067797Y-36371570D01*
X43067800Y-36371573D01*
X43229316Y-36560684D01*
X43321735Y-36639617D01*
X43418429Y-36722202D01*
X43418431Y-36722203D01*
X43630476Y-36852144D01*
X43860240Y-36947315D01*
X43860241Y-36947315D01*
X43860243Y-36947316D01*
X44102069Y-37005373D01*
X44350000Y-37024886D01*
X44597931Y-37005373D01*
X44839757Y-36947316D01*
X45069523Y-36852144D01*
X45281573Y-36722200D01*
X45470684Y-36560684D01*
X45632200Y-36371573D01*
X45665839Y-36316679D01*
X45737518Y-36199710D01*
X45789329Y-36152835D01*
X45843245Y-36140500D01*
X47192689Y-36140500D01*
X47259728Y-36160185D01*
X47291643Y-36189774D01*
X47369016Y-36292233D01*
X47369018Y-36292236D01*
X47533437Y-36442123D01*
X47533439Y-36442125D01*
X47722595Y-36559245D01*
X47722596Y-36559245D01*
X47722599Y-36559247D01*
X47930060Y-36639618D01*
X48148757Y-36680500D01*
X48148759Y-36680500D01*
X48371241Y-36680500D01*
X48371243Y-36680500D01*
X48589940Y-36639618D01*
X48797401Y-36559247D01*
X48986562Y-36442124D01*
X49150981Y-36292236D01*
X49285058Y-36114689D01*
X49384229Y-35915528D01*
X49445115Y-35701536D01*
X49465643Y-35480000D01*
X49445115Y-35258464D01*
X49384229Y-35044472D01*
X49358214Y-34992227D01*
X49285061Y-34845316D01*
X49285056Y-34845308D01*
X49150979Y-34667761D01*
X48986562Y-34517876D01*
X48986560Y-34517874D01*
X48797404Y-34400754D01*
X48797398Y-34400752D01*
X48589940Y-34320382D01*
X48371243Y-34279500D01*
X48148757Y-34279500D01*
X47930060Y-34320382D01*
X47798864Y-34371207D01*
X47722601Y-34400752D01*
X47722595Y-34400754D01*
X47533439Y-34517874D01*
X47533437Y-34517876D01*
X47369020Y-34667761D01*
X47352057Y-34690226D01*
X47295948Y-34731862D01*
X47253102Y-34739500D01*
X45843245Y-34739500D01*
X45776206Y-34719815D01*
X45737518Y-34680290D01*
X45632203Y-34508431D01*
X45632202Y-34508429D01*
X45595713Y-34465706D01*
X45470684Y-34319316D01*
X45307119Y-34179618D01*
X45281570Y-34157797D01*
X45281568Y-34157796D01*
X45069523Y-34027855D01*
X44839759Y-33932684D01*
X44597934Y-33874627D01*
X44350000Y-33855114D01*
X44102065Y-33874627D01*
X43860240Y-33932684D01*
X43630476Y-34027855D01*
X43418431Y-34157796D01*
X43418429Y-34157797D01*
X43229316Y-34319316D01*
X43067797Y-34508429D01*
X43067796Y-34508431D01*
X42937855Y-34720476D01*
X42842684Y-34950240D01*
X42784627Y-35192065D01*
X42765114Y-35440000D01*
X33434886Y-35440000D01*
X33415373Y-35192069D01*
X33357316Y-34950243D01*
X33319729Y-34859500D01*
X33262144Y-34720476D01*
X33132203Y-34508431D01*
X33132202Y-34508429D01*
X33095713Y-34465706D01*
X32970684Y-34319316D01*
X32807119Y-34179618D01*
X32781570Y-34157797D01*
X32781568Y-34157796D01*
X32569523Y-34027855D01*
X32339759Y-33932684D01*
X32097934Y-33874627D01*
X31850000Y-33855114D01*
X31602065Y-33874627D01*
X31360240Y-33932684D01*
X31130476Y-34027855D01*
X30918431Y-34157796D01*
X30918429Y-34157797D01*
X30729316Y-34319316D01*
X30567797Y-34508429D01*
X30567796Y-34508431D01*
X30437855Y-34720476D01*
X30342684Y-34950240D01*
X30284627Y-35192065D01*
X30268225Y-35400471D01*
X30265114Y-35440000D01*
X30284627Y-35687931D01*
X30284628Y-35687934D01*
X30284628Y-35687935D01*
X30331680Y-35883927D01*
X30328189Y-35953709D01*
X30298787Y-36000554D01*
X27395887Y-38903454D01*
X27319222Y-39018192D01*
X27266421Y-39145667D01*
X27266418Y-39145679D01*
X27243755Y-39259615D01*
X27243755Y-39259618D01*
X27239500Y-39281007D01*
X27239500Y-57651006D01*
X27239500Y-57788994D01*
X27239500Y-57788996D01*
X27239499Y-57788996D01*
X27266418Y-57924322D01*
X27266421Y-57924332D01*
X27319222Y-58051807D01*
X27395887Y-58166545D01*
X30479454Y-61250112D01*
X30594192Y-61326777D01*
X30721667Y-61379578D01*
X30721672Y-61379580D01*
X30721676Y-61379580D01*
X30721677Y-61379581D01*
X30857003Y-61406500D01*
X30857006Y-61406500D01*
X30857007Y-61406500D01*
X44574481Y-61406500D01*
X44641520Y-61426185D01*
X44662162Y-61442819D01*
X44860831Y-61641488D01*
X44894316Y-61702811D01*
X44889332Y-61772503D01*
X44847460Y-61828436D01*
X44781996Y-61852853D01*
X44744204Y-61849743D01*
X44597935Y-61814628D01*
X44597931Y-61814627D01*
X44350000Y-61795114D01*
X44102065Y-61814627D01*
X43860240Y-61872684D01*
X43630476Y-61967855D01*
X43418431Y-62097796D01*
X43418429Y-62097797D01*
X43229316Y-62259316D01*
X43067797Y-62448429D01*
X43067796Y-62448431D01*
X42937855Y-62660476D01*
X42842684Y-62890240D01*
X42784627Y-63132065D01*
X42765114Y-63380000D01*
X42784627Y-63627934D01*
X42842684Y-63869759D01*
X42937855Y-64099523D01*
X43067796Y-64311568D01*
X43067797Y-64311570D01*
X43087361Y-64334476D01*
X43229316Y-64500684D01*
X43344137Y-64598750D01*
X43418429Y-64662202D01*
X43418431Y-64662203D01*
X43630476Y-64792144D01*
X43860240Y-64887315D01*
X43860241Y-64887315D01*
X43860243Y-64887316D01*
X44102069Y-64945373D01*
X44350000Y-64964886D01*
X44597931Y-64945373D01*
X44839757Y-64887316D01*
X45069523Y-64792144D01*
X45182705Y-64722785D01*
X45250149Y-64704541D01*
X45316752Y-64725657D01*
X45335175Y-64740832D01*
X45602258Y-65007914D01*
X45810886Y-65216542D01*
X45882969Y-65288625D01*
X45908459Y-65314115D01*
X46023184Y-65390772D01*
X46023185Y-65390772D01*
X46023189Y-65390775D01*
X46083813Y-65415886D01*
X46150671Y-65443580D01*
X46150680Y-65443581D01*
X46150681Y-65443582D01*
X46177545Y-65448925D01*
X46177551Y-65448926D01*
X46177591Y-65448934D01*
X46267937Y-65466905D01*
X46286006Y-65470500D01*
X46286007Y-65470500D01*
X47222895Y-65470500D01*
X47289934Y-65490185D01*
X47321849Y-65519773D01*
X47369020Y-65582238D01*
X47533437Y-65732123D01*
X47533439Y-65732125D01*
X47722595Y-65849245D01*
X47722596Y-65849245D01*
X47722599Y-65849247D01*
X47930060Y-65929618D01*
X48148757Y-65970500D01*
X48148759Y-65970500D01*
X48371241Y-65970500D01*
X48371243Y-65970500D01*
X48390067Y-65966981D01*
X48459581Y-65974012D01*
X48500532Y-66001189D01*
X50367162Y-67867819D01*
X50400647Y-67929142D01*
X50395663Y-67998834D01*
X50353791Y-68054767D01*
X50288327Y-68079184D01*
X50279481Y-68079500D01*
X27944067Y-68079500D01*
X27935957Y-68079235D01*
X27681895Y-68062583D01*
X27665814Y-68060465D01*
X27630770Y-68053494D01*
X27420111Y-68011591D01*
X27404445Y-68007393D01*
X27167213Y-67926864D01*
X27152227Y-67920657D01*
X26927539Y-67809853D01*
X26913492Y-67801743D01*
X26705188Y-67662559D01*
X26692320Y-67652685D01*
X26503966Y-67487502D01*
X26492497Y-67476033D01*
X26356755Y-67321250D01*
X26327311Y-67287675D01*
X26317440Y-67274811D01*
X26253755Y-67179500D01*
X26178256Y-67066507D01*
X26170146Y-67052460D01*
X26157109Y-67026024D01*
X26059339Y-66827765D01*
X26053135Y-66812786D01*
X26044360Y-66786937D01*
X25980408Y-66598539D01*
X25972606Y-66575554D01*
X25968408Y-66559888D01*
X25959736Y-66516292D01*
X25919532Y-66314172D01*
X25917417Y-66298114D01*
X25900765Y-66044042D01*
X25900500Y-66035933D01*
X25900500Y-63380000D01*
X30265114Y-63380000D01*
X30284627Y-63627934D01*
X30342684Y-63869759D01*
X30437855Y-64099523D01*
X30567796Y-64311568D01*
X30567797Y-64311570D01*
X30587361Y-64334476D01*
X30729316Y-64500684D01*
X30844137Y-64598750D01*
X30918429Y-64662202D01*
X30918431Y-64662203D01*
X31130476Y-64792144D01*
X31360240Y-64887315D01*
X31360241Y-64887315D01*
X31360243Y-64887316D01*
X31602069Y-64945373D01*
X31850000Y-64964886D01*
X32097931Y-64945373D01*
X32339757Y-64887316D01*
X32569523Y-64792144D01*
X32781573Y-64662200D01*
X32970684Y-64500684D01*
X33132200Y-64311573D01*
X33262144Y-64099523D01*
X33357316Y-63869757D01*
X33415373Y-63627931D01*
X33434886Y-63380000D01*
X33415373Y-63132069D01*
X33357316Y-62890243D01*
X33348587Y-62869169D01*
X33262144Y-62660476D01*
X33132203Y-62448431D01*
X33132202Y-62448429D01*
X33095713Y-62405706D01*
X32970684Y-62259316D01*
X32845653Y-62152530D01*
X32781570Y-62097797D01*
X32781568Y-62097796D01*
X32569523Y-61967855D01*
X32339759Y-61872684D01*
X32097934Y-61814627D01*
X31850000Y-61795114D01*
X31602065Y-61814627D01*
X31360240Y-61872684D01*
X31130476Y-61967855D01*
X30918431Y-62097796D01*
X30918429Y-62097797D01*
X30729316Y-62259316D01*
X30567797Y-62448429D01*
X30567796Y-62448431D01*
X30437855Y-62660476D01*
X30342684Y-62890240D01*
X30284627Y-63132065D01*
X30265114Y-63380000D01*
X25900500Y-63380000D01*
X25900500Y-27944066D01*
X25900765Y-27935957D01*
X25905503Y-27863669D01*
X25917417Y-27681883D01*
X25919531Y-27665829D01*
X25968409Y-27420107D01*
X25972606Y-27404445D01*
X26023945Y-27253204D01*
X26053138Y-27167205D01*
X26059336Y-27152239D01*
X26170149Y-26927533D01*
X26178252Y-26913498D01*
X26317448Y-26705176D01*
X26327305Y-26692331D01*
X26492502Y-26503960D01*
X26503960Y-26492502D01*
X26692331Y-26327305D01*
X26705176Y-26317448D01*
X26913498Y-26178252D01*
X26927533Y-26170149D01*
X27152239Y-26059336D01*
X27167205Y-26053138D01*
X27334945Y-25996197D01*
X27404445Y-25972606D01*
X27420107Y-25968409D01*
X27665829Y-25919531D01*
X27681883Y-25917417D01*
X27914848Y-25902148D01*
X27935958Y-25900765D01*
X27944067Y-25900500D01*
X28005892Y-25900500D01*
X86294108Y-25900500D01*
X86355933Y-25900500D01*
X86364042Y-25900765D01*
G37*
%TD.AperFunction*%
%TA.AperFunction,Conductor*%
G36*
X88318834Y-51946099D02*
G01*
X88374767Y-51987971D01*
X88399184Y-52053435D01*
X88399500Y-52062281D01*
X88399500Y-66035933D01*
X88399235Y-66044043D01*
X88382583Y-66298104D01*
X88380465Y-66314186D01*
X88331591Y-66559888D01*
X88327393Y-66575554D01*
X88246864Y-66812786D01*
X88240657Y-66827772D01*
X88129853Y-67052460D01*
X88121743Y-67066507D01*
X87982559Y-67274811D01*
X87972685Y-67287679D01*
X87807502Y-67476033D01*
X87796033Y-67487502D01*
X87607679Y-67652685D01*
X87594811Y-67662559D01*
X87386507Y-67801743D01*
X87372460Y-67809853D01*
X87147772Y-67920657D01*
X87132786Y-67926864D01*
X86895554Y-68007393D01*
X86879888Y-68011591D01*
X86634186Y-68060465D01*
X86618104Y-68062583D01*
X86364043Y-68079235D01*
X86355933Y-68079500D01*
X65290520Y-68079500D01*
X65223481Y-68059815D01*
X65177726Y-68007011D01*
X65167782Y-67937853D01*
X65196807Y-67874297D01*
X65202839Y-67867819D01*
X65314111Y-67756546D01*
X65314112Y-67756545D01*
X65314114Y-67756543D01*
X65390775Y-67641811D01*
X65431694Y-67543022D01*
X65475534Y-67488619D01*
X65476755Y-67487783D01*
X65496250Y-67474589D01*
X65649589Y-67321250D01*
X65771138Y-67141663D01*
X65820657Y-67026024D01*
X65856499Y-66942325D01*
X65856500Y-66942321D01*
X65856502Y-66942317D01*
X65857548Y-66937512D01*
X65881420Y-66827772D01*
X65902598Y-66730419D01*
X65905500Y-66681704D01*
X65905500Y-65238296D01*
X66174500Y-65238296D01*
X66174500Y-66681704D01*
X66177402Y-66730419D01*
X66177402Y-66730423D01*
X66177403Y-66730424D01*
X66223495Y-66942309D01*
X66223500Y-66942325D01*
X66308857Y-67141653D01*
X66308860Y-67141658D01*
X66308862Y-67141663D01*
X66308865Y-67141668D01*
X66308866Y-67141669D01*
X66430412Y-67321252D01*
X66583747Y-67474587D01*
X66583750Y-67474589D01*
X66763337Y-67596138D01*
X66763344Y-67596141D01*
X66763346Y-67596142D01*
X66962674Y-67681499D01*
X66962681Y-67681501D01*
X66962683Y-67681502D01*
X66962684Y-67681502D01*
X66962690Y-67681504D01*
X67039662Y-67698248D01*
X67174581Y-67727598D01*
X67223296Y-67730500D01*
X67223308Y-67730500D01*
X67396692Y-67730500D01*
X67396704Y-67730500D01*
X67445419Y-67727598D01*
X67610359Y-67691717D01*
X67657309Y-67681504D01*
X67657311Y-67681503D01*
X67657317Y-67681502D01*
X67657321Y-67681500D01*
X67657325Y-67681499D01*
X67777198Y-67630166D01*
X67856663Y-67596138D01*
X68036250Y-67474589D01*
X68189589Y-67321250D01*
X68311138Y-67141663D01*
X68360657Y-67026024D01*
X68396499Y-66942325D01*
X68396500Y-66942321D01*
X68396502Y-66942317D01*
X68397548Y-66937512D01*
X68421420Y-66827772D01*
X68442598Y-66730419D01*
X68445500Y-66681704D01*
X68445500Y-65238296D01*
X68714500Y-65238296D01*
X68714500Y-66681704D01*
X68717402Y-66730419D01*
X68717402Y-66730423D01*
X68717403Y-66730424D01*
X68763495Y-66942309D01*
X68763500Y-66942325D01*
X68848857Y-67141653D01*
X68848860Y-67141658D01*
X68848862Y-67141663D01*
X68848865Y-67141668D01*
X68848866Y-67141669D01*
X68970412Y-67321252D01*
X69123747Y-67474587D01*
X69123750Y-67474589D01*
X69303337Y-67596138D01*
X69303344Y-67596141D01*
X69303346Y-67596142D01*
X69502674Y-67681499D01*
X69502681Y-67681501D01*
X69502683Y-67681502D01*
X69502684Y-67681502D01*
X69502690Y-67681504D01*
X69579662Y-67698248D01*
X69714581Y-67727598D01*
X69763296Y-67730500D01*
X69763308Y-67730500D01*
X69936692Y-67730500D01*
X69936704Y-67730500D01*
X69985419Y-67727598D01*
X70150359Y-67691717D01*
X70197309Y-67681504D01*
X70197311Y-67681503D01*
X70197317Y-67681502D01*
X70197321Y-67681500D01*
X70197325Y-67681499D01*
X70317198Y-67630166D01*
X70396663Y-67596138D01*
X70576250Y-67474589D01*
X70729589Y-67321250D01*
X70851138Y-67141663D01*
X70900657Y-67026024D01*
X70936499Y-66942325D01*
X70936500Y-66942321D01*
X70936502Y-66942317D01*
X70937548Y-66937512D01*
X70961420Y-66827772D01*
X70982598Y-66730419D01*
X70985500Y-66681704D01*
X70985500Y-65238296D01*
X71254500Y-65238296D01*
X71254500Y-66681704D01*
X71257402Y-66730419D01*
X71257402Y-66730423D01*
X71257403Y-66730424D01*
X71303495Y-66942309D01*
X71303500Y-66942325D01*
X71388857Y-67141653D01*
X71388860Y-67141658D01*
X71388862Y-67141663D01*
X71388865Y-67141668D01*
X71388866Y-67141669D01*
X71510412Y-67321252D01*
X71663747Y-67474587D01*
X71663750Y-67474589D01*
X71843337Y-67596138D01*
X71843344Y-67596141D01*
X71843346Y-67596142D01*
X72042674Y-67681499D01*
X72042681Y-67681501D01*
X72042683Y-67681502D01*
X72042684Y-67681502D01*
X72042690Y-67681504D01*
X72119662Y-67698248D01*
X72254581Y-67727598D01*
X72303296Y-67730500D01*
X72303308Y-67730500D01*
X72476692Y-67730500D01*
X72476704Y-67730500D01*
X72525419Y-67727598D01*
X72690359Y-67691717D01*
X72737309Y-67681504D01*
X72737311Y-67681503D01*
X72737317Y-67681502D01*
X72737321Y-67681500D01*
X72737325Y-67681499D01*
X72857198Y-67630166D01*
X72936663Y-67596138D01*
X73116250Y-67474589D01*
X73269589Y-67321250D01*
X73391138Y-67141663D01*
X73440657Y-67026024D01*
X73476499Y-66942325D01*
X73476500Y-66942321D01*
X73476502Y-66942317D01*
X73477548Y-66937512D01*
X73501420Y-66827772D01*
X73522598Y-66730419D01*
X73525500Y-66681704D01*
X73525500Y-65238296D01*
X73522598Y-65189581D01*
X73493099Y-65053976D01*
X73476504Y-64977690D01*
X73476499Y-64977674D01*
X73391142Y-64778346D01*
X73391141Y-64778344D01*
X73391138Y-64778337D01*
X73269589Y-64598750D01*
X73269588Y-64598749D01*
X73269587Y-64598747D01*
X73116252Y-64445412D01*
X72936669Y-64323866D01*
X72936668Y-64323865D01*
X72936663Y-64323862D01*
X72936658Y-64323860D01*
X72936653Y-64323857D01*
X72737325Y-64238500D01*
X72737309Y-64238495D01*
X72525424Y-64192403D01*
X72525423Y-64192402D01*
X72525419Y-64192402D01*
X72476704Y-64189500D01*
X72303296Y-64189500D01*
X72254581Y-64192402D01*
X72254576Y-64192402D01*
X72254575Y-64192403D01*
X72042690Y-64238495D01*
X72042674Y-64238500D01*
X71843346Y-64323857D01*
X71843330Y-64323866D01*
X71663747Y-64445412D01*
X71510412Y-64598747D01*
X71388866Y-64778330D01*
X71388857Y-64778346D01*
X71303500Y-64977674D01*
X71303495Y-64977690D01*
X71257403Y-65189575D01*
X71257402Y-65189581D01*
X71254500Y-65238296D01*
X70985500Y-65238296D01*
X70982598Y-65189581D01*
X70953099Y-65053976D01*
X70936504Y-64977690D01*
X70936499Y-64977674D01*
X70851142Y-64778346D01*
X70851141Y-64778344D01*
X70851138Y-64778337D01*
X70729589Y-64598750D01*
X70729588Y-64598749D01*
X70729587Y-64598747D01*
X70576252Y-64445412D01*
X70396669Y-64323866D01*
X70396668Y-64323865D01*
X70396663Y-64323862D01*
X70396658Y-64323860D01*
X70396653Y-64323857D01*
X70197325Y-64238500D01*
X70197309Y-64238495D01*
X69985424Y-64192403D01*
X69985423Y-64192402D01*
X69985419Y-64192402D01*
X69936704Y-64189500D01*
X69763296Y-64189500D01*
X69714581Y-64192402D01*
X69714576Y-64192402D01*
X69714575Y-64192403D01*
X69502690Y-64238495D01*
X69502674Y-64238500D01*
X69303346Y-64323857D01*
X69303330Y-64323866D01*
X69123747Y-64445412D01*
X68970412Y-64598747D01*
X68848866Y-64778330D01*
X68848857Y-64778346D01*
X68763500Y-64977674D01*
X68763495Y-64977690D01*
X68717403Y-65189575D01*
X68717402Y-65189581D01*
X68714500Y-65238296D01*
X68445500Y-65238296D01*
X68442598Y-65189581D01*
X68413099Y-65053976D01*
X68396504Y-64977690D01*
X68396499Y-64977674D01*
X68311142Y-64778346D01*
X68311141Y-64778344D01*
X68311138Y-64778337D01*
X68189589Y-64598750D01*
X68189588Y-64598749D01*
X68189587Y-64598747D01*
X68036252Y-64445412D01*
X67856669Y-64323866D01*
X67856668Y-64323865D01*
X67856663Y-64323862D01*
X67856658Y-64323860D01*
X67856653Y-64323857D01*
X67657325Y-64238500D01*
X67657309Y-64238495D01*
X67445424Y-64192403D01*
X67445423Y-64192402D01*
X67445419Y-64192402D01*
X67396704Y-64189500D01*
X67223296Y-64189500D01*
X67174581Y-64192402D01*
X67174576Y-64192402D01*
X67174575Y-64192403D01*
X66962690Y-64238495D01*
X66962674Y-64238500D01*
X66763346Y-64323857D01*
X66763330Y-64323866D01*
X66583747Y-64445412D01*
X66430412Y-64598747D01*
X66308866Y-64778330D01*
X66308857Y-64778346D01*
X66223500Y-64977674D01*
X66223495Y-64977690D01*
X66177403Y-65189575D01*
X66177402Y-65189581D01*
X66174500Y-65238296D01*
X65905500Y-65238296D01*
X65902598Y-65189581D01*
X65873099Y-65053976D01*
X65856504Y-64977690D01*
X65856499Y-64977674D01*
X65771142Y-64778346D01*
X65771141Y-64778344D01*
X65771138Y-64778337D01*
X65649589Y-64598750D01*
X65649588Y-64598749D01*
X65649587Y-64598747D01*
X65496252Y-64445412D01*
X65316669Y-64323866D01*
X65316668Y-64323865D01*
X65316663Y-64323862D01*
X65316658Y-64323860D01*
X65316653Y-64323857D01*
X65117325Y-64238500D01*
X65117309Y-64238495D01*
X64905424Y-64192403D01*
X64905423Y-64192402D01*
X64905419Y-64192402D01*
X64856704Y-64189500D01*
X64683296Y-64189500D01*
X64634581Y-64192402D01*
X64634576Y-64192402D01*
X64634575Y-64192403D01*
X64422690Y-64238495D01*
X64422674Y-64238500D01*
X64223346Y-64323857D01*
X64223330Y-64323866D01*
X64043747Y-64445412D01*
X63890412Y-64598747D01*
X63768866Y-64778330D01*
X63768857Y-64778346D01*
X63683500Y-64977674D01*
X63683495Y-64977690D01*
X63637403Y-65189575D01*
X63637402Y-65189581D01*
X63634500Y-65238296D01*
X63634500Y-66681704D01*
X63637402Y-66730419D01*
X63637402Y-66730423D01*
X63637403Y-66730424D01*
X63683495Y-66942309D01*
X63683497Y-66942316D01*
X63711063Y-67006688D01*
X63719357Y-67076064D01*
X63688827Y-67138910D01*
X63629167Y-67175275D01*
X63597074Y-67179500D01*
X63402926Y-67179500D01*
X63335887Y-67159815D01*
X63290132Y-67107011D01*
X63280188Y-67037853D01*
X63288937Y-67006688D01*
X63316502Y-66942317D01*
X63317548Y-66937512D01*
X63341420Y-66827772D01*
X63362598Y-66730419D01*
X63365500Y-66681704D01*
X63365500Y-65238296D01*
X63362598Y-65189581D01*
X63333099Y-65053976D01*
X63316504Y-64977690D01*
X63316499Y-64977674D01*
X63231142Y-64778346D01*
X63231141Y-64778344D01*
X63231138Y-64778337D01*
X63109589Y-64598750D01*
X63109588Y-64598749D01*
X63109587Y-64598747D01*
X62966819Y-64455979D01*
X62933334Y-64394656D01*
X62930500Y-64368298D01*
X62930500Y-64066004D01*
X62903581Y-63930677D01*
X62903580Y-63930676D01*
X62903580Y-63930672D01*
X62850775Y-63803189D01*
X62850526Y-63802817D01*
X62850281Y-63802449D01*
X62850281Y-63802450D01*
X62850278Y-63802445D01*
X62774114Y-63688457D01*
X62774112Y-63688454D01*
X60771545Y-61685887D01*
X60656807Y-61609222D01*
X60529332Y-61556421D01*
X60529322Y-61556418D01*
X60393996Y-61529500D01*
X60393994Y-61529500D01*
X60393993Y-61529500D01*
X47966519Y-61529500D01*
X47899480Y-61509815D01*
X47878838Y-61493181D01*
X47091819Y-60706162D01*
X47058334Y-60644839D01*
X47055500Y-60618481D01*
X47055500Y-60456206D01*
X47075185Y-60389167D01*
X47127989Y-60343412D01*
X47197147Y-60333468D01*
X47260703Y-60362493D01*
X47278454Y-60381479D01*
X47369391Y-60501900D01*
X47533738Y-60651721D01*
X47722820Y-60768797D01*
X47722822Y-60768798D01*
X47930195Y-60849135D01*
X48010000Y-60864052D01*
X48510000Y-60864052D01*
X48589804Y-60849135D01*
X48797177Y-60768798D01*
X48797179Y-60768797D01*
X48986261Y-60651721D01*
X49150608Y-60501900D01*
X49284631Y-60324425D01*
X49383760Y-60125349D01*
X49436495Y-59940000D01*
X48510000Y-59940000D01*
X48510000Y-60864052D01*
X48010000Y-60864052D01*
X48010000Y-59934975D01*
X48045095Y-59970070D01*
X48124905Y-60016148D01*
X48213922Y-60040000D01*
X48306078Y-60040000D01*
X48395095Y-60016148D01*
X48474905Y-59970070D01*
X48540070Y-59904905D01*
X48586148Y-59825095D01*
X48610000Y-59736078D01*
X48610000Y-59643922D01*
X48586148Y-59554905D01*
X48540070Y-59475095D01*
X48504975Y-59440000D01*
X49436495Y-59440000D01*
X49383760Y-59254650D01*
X49284631Y-59055574D01*
X49194798Y-58936617D01*
X49170106Y-58871256D01*
X49184671Y-58802921D01*
X49233868Y-58753309D01*
X49302078Y-58738170D01*
X49311941Y-58739231D01*
X49487782Y-58765315D01*
X49900000Y-58785566D01*
X50312218Y-58765315D01*
X50720465Y-58704757D01*
X51120811Y-58604476D01*
X51337942Y-58526785D01*
X51509379Y-58465444D01*
X51509385Y-58465441D01*
X51509400Y-58465436D01*
X51882490Y-58288978D01*
X52236487Y-58076800D01*
X52567983Y-57830946D01*
X52873784Y-57553784D01*
X53150946Y-57247983D01*
X53396800Y-56916487D01*
X53608978Y-56562490D01*
X53785436Y-56189400D01*
X53786459Y-56186543D01*
X53924472Y-55800821D01*
X53924476Y-55800811D01*
X54024757Y-55400465D01*
X54085315Y-54992218D01*
X54105566Y-54580000D01*
X54085315Y-54167782D01*
X54024757Y-53759535D01*
X53924476Y-53359189D01*
X53914654Y-53331738D01*
X53785444Y-52970620D01*
X53785437Y-52970604D01*
X53785436Y-52970600D01*
X53608978Y-52597510D01*
X53588726Y-52563722D01*
X53571144Y-52496103D01*
X53592912Y-52429711D01*
X53647118Y-52385627D01*
X53716554Y-52377847D01*
X53779172Y-52408841D01*
X53782765Y-52412293D01*
X56362690Y-54992218D01*
X59664990Y-58294518D01*
X59801338Y-58393580D01*
X59801339Y-58393581D01*
X59856062Y-58433340D01*
X59856064Y-58433341D01*
X59856067Y-58433343D01*
X59919053Y-58465436D01*
X60066503Y-58540566D01*
X60066505Y-58540566D01*
X60066508Y-58540568D01*
X60186912Y-58579689D01*
X60291131Y-58613553D01*
X60524403Y-58650500D01*
X60524408Y-58650500D01*
X72987111Y-58650500D01*
X73054150Y-58670185D01*
X73074792Y-58686819D01*
X75933181Y-61545208D01*
X75966666Y-61606531D01*
X75969500Y-61632889D01*
X75969500Y-64459298D01*
X75949815Y-64526337D01*
X75897011Y-64572092D01*
X75827853Y-64582036D01*
X75764297Y-64553011D01*
X75757819Y-64546979D01*
X75656252Y-64445412D01*
X75476669Y-64323866D01*
X75476668Y-64323865D01*
X75476663Y-64323862D01*
X75476658Y-64323860D01*
X75476653Y-64323857D01*
X75277325Y-64238500D01*
X75277309Y-64238495D01*
X75065424Y-64192403D01*
X75065423Y-64192402D01*
X75065419Y-64192402D01*
X75016704Y-64189500D01*
X74843296Y-64189500D01*
X74794581Y-64192402D01*
X74794576Y-64192402D01*
X74794575Y-64192403D01*
X74582690Y-64238495D01*
X74582674Y-64238500D01*
X74383346Y-64323857D01*
X74383330Y-64323866D01*
X74203747Y-64445412D01*
X74050412Y-64598747D01*
X73928866Y-64778330D01*
X73928857Y-64778346D01*
X73843500Y-64977674D01*
X73843495Y-64977690D01*
X73797403Y-65189575D01*
X73797402Y-65189581D01*
X73794500Y-65238296D01*
X73794500Y-66681704D01*
X73797402Y-66730419D01*
X73797402Y-66730423D01*
X73797403Y-66730424D01*
X73843495Y-66942309D01*
X73843500Y-66942325D01*
X73928857Y-67141653D01*
X73928860Y-67141658D01*
X73928862Y-67141663D01*
X73928865Y-67141668D01*
X73928866Y-67141669D01*
X74050412Y-67321252D01*
X74203747Y-67474587D01*
X74203750Y-67474589D01*
X74383337Y-67596138D01*
X74383344Y-67596141D01*
X74383346Y-67596142D01*
X74582674Y-67681499D01*
X74582681Y-67681501D01*
X74582683Y-67681502D01*
X74582684Y-67681502D01*
X74582690Y-67681504D01*
X74659662Y-67698248D01*
X74794581Y-67727598D01*
X74843296Y-67730500D01*
X74843308Y-67730500D01*
X75016692Y-67730500D01*
X75016704Y-67730500D01*
X75065419Y-67727598D01*
X75230359Y-67691717D01*
X75277309Y-67681504D01*
X75277311Y-67681503D01*
X75277317Y-67681502D01*
X75277321Y-67681500D01*
X75277325Y-67681499D01*
X75397198Y-67630166D01*
X75476663Y-67596138D01*
X75656250Y-67474589D01*
X75809589Y-67321250D01*
X75931138Y-67141663D01*
X75980657Y-67026024D01*
X76016499Y-66942325D01*
X76016500Y-66942321D01*
X76016502Y-66942317D01*
X76017548Y-66937512D01*
X76029679Y-66881745D01*
X76063163Y-66820422D01*
X76124486Y-66786937D01*
X76194178Y-66791921D01*
X76250112Y-66833792D01*
X76251133Y-66835176D01*
X76325483Y-66937510D01*
X76325485Y-66937512D01*
X76406446Y-67018473D01*
X76432753Y-67057341D01*
X76468858Y-67141653D01*
X76468862Y-67141663D01*
X76494471Y-67179500D01*
X76590412Y-67321252D01*
X76743747Y-67474587D01*
X76743750Y-67474589D01*
X76923337Y-67596138D01*
X76923344Y-67596141D01*
X76923346Y-67596142D01*
X77122674Y-67681499D01*
X77122681Y-67681501D01*
X77122683Y-67681502D01*
X77122684Y-67681502D01*
X77122690Y-67681504D01*
X77199662Y-67698248D01*
X77334581Y-67727598D01*
X77383296Y-67730500D01*
X77383308Y-67730500D01*
X77556692Y-67730500D01*
X77556704Y-67730500D01*
X77605419Y-67727598D01*
X77770359Y-67691717D01*
X77817309Y-67681504D01*
X77817311Y-67681503D01*
X77817317Y-67681502D01*
X77817321Y-67681500D01*
X77817325Y-67681499D01*
X77937198Y-67630166D01*
X78016663Y-67596138D01*
X78196250Y-67474589D01*
X78349589Y-67321250D01*
X78471138Y-67141663D01*
X78507245Y-67057341D01*
X78533553Y-67018473D01*
X78614512Y-66937515D01*
X78614512Y-66937514D01*
X78614517Y-66937510D01*
X78688837Y-66835216D01*
X78744165Y-66792552D01*
X78813779Y-66786573D01*
X78875574Y-66819178D01*
X78909931Y-66880017D01*
X78910320Y-66881744D01*
X78923496Y-66942311D01*
X78923500Y-66942325D01*
X79008857Y-67141653D01*
X79008860Y-67141658D01*
X79008862Y-67141663D01*
X79008865Y-67141668D01*
X79008866Y-67141669D01*
X79130412Y-67321252D01*
X79283747Y-67474587D01*
X79283750Y-67474589D01*
X79463337Y-67596138D01*
X79463344Y-67596141D01*
X79463346Y-67596142D01*
X79662674Y-67681499D01*
X79662681Y-67681501D01*
X79662683Y-67681502D01*
X79662684Y-67681502D01*
X79662690Y-67681504D01*
X79739662Y-67698248D01*
X79874581Y-67727598D01*
X79923296Y-67730500D01*
X79923308Y-67730500D01*
X80096692Y-67730500D01*
X80096704Y-67730500D01*
X80145419Y-67727598D01*
X80310359Y-67691717D01*
X80357309Y-67681504D01*
X80357311Y-67681503D01*
X80357317Y-67681502D01*
X80357321Y-67681500D01*
X80357325Y-67681499D01*
X80477198Y-67630166D01*
X80556663Y-67596138D01*
X80736250Y-67474589D01*
X80889589Y-67321250D01*
X81011138Y-67141663D01*
X81060657Y-67026024D01*
X81096499Y-66942325D01*
X81096500Y-66942321D01*
X81096502Y-66942317D01*
X81097548Y-66937512D01*
X81121420Y-66827772D01*
X81142598Y-66730419D01*
X81145500Y-66681704D01*
X81145500Y-66681664D01*
X81415001Y-66681664D01*
X81417901Y-66730363D01*
X81463974Y-66942160D01*
X81463976Y-66942167D01*
X81549300Y-67141416D01*
X81549306Y-67141426D01*
X81670792Y-67320924D01*
X81670800Y-67320933D01*
X81824066Y-67474199D01*
X81824075Y-67474207D01*
X82003573Y-67595693D01*
X82003583Y-67595699D01*
X82202832Y-67681023D01*
X82202839Y-67681025D01*
X82299999Y-67702161D01*
X82800000Y-67702161D01*
X82897160Y-67681025D01*
X82897167Y-67681023D01*
X83096416Y-67595699D01*
X83096426Y-67595693D01*
X83275924Y-67474207D01*
X83275933Y-67474199D01*
X83429199Y-67320933D01*
X83429207Y-67320924D01*
X83550693Y-67141426D01*
X83550699Y-67141416D01*
X83636023Y-66942167D01*
X83636025Y-66942160D01*
X83682099Y-66730364D01*
X83685000Y-66681663D01*
X83685000Y-66210000D01*
X82800000Y-66210000D01*
X82800000Y-67702161D01*
X82299999Y-67702161D01*
X82300000Y-67702160D01*
X82300000Y-66210000D01*
X81415001Y-66210000D01*
X81415001Y-66681664D01*
X81145500Y-66681664D01*
X81145500Y-65238336D01*
X81415000Y-65238336D01*
X81415000Y-65710000D01*
X82300000Y-65710000D01*
X82800000Y-65710000D01*
X83684999Y-65710000D01*
X83684999Y-65238338D01*
X83684998Y-65238335D01*
X83684996Y-65238296D01*
X83954500Y-65238296D01*
X83954500Y-66681704D01*
X83957402Y-66730419D01*
X83957402Y-66730423D01*
X83957403Y-66730424D01*
X84003495Y-66942309D01*
X84003500Y-66942325D01*
X84088857Y-67141653D01*
X84088860Y-67141658D01*
X84088862Y-67141663D01*
X84088865Y-67141668D01*
X84088866Y-67141669D01*
X84210412Y-67321252D01*
X84363747Y-67474587D01*
X84363750Y-67474589D01*
X84543337Y-67596138D01*
X84543344Y-67596141D01*
X84543346Y-67596142D01*
X84742674Y-67681499D01*
X84742681Y-67681501D01*
X84742683Y-67681502D01*
X84742684Y-67681502D01*
X84742690Y-67681504D01*
X84819662Y-67698248D01*
X84954581Y-67727598D01*
X85003296Y-67730500D01*
X85003308Y-67730500D01*
X85176692Y-67730500D01*
X85176704Y-67730500D01*
X85225419Y-67727598D01*
X85390359Y-67691717D01*
X85437309Y-67681504D01*
X85437311Y-67681503D01*
X85437317Y-67681502D01*
X85437321Y-67681500D01*
X85437325Y-67681499D01*
X85557198Y-67630166D01*
X85636663Y-67596138D01*
X85816250Y-67474589D01*
X85969589Y-67321250D01*
X86091138Y-67141663D01*
X86140657Y-67026024D01*
X86176499Y-66942325D01*
X86176500Y-66942321D01*
X86176502Y-66942317D01*
X86177548Y-66937512D01*
X86201420Y-66827772D01*
X86222598Y-66730419D01*
X86225500Y-66681704D01*
X86225500Y-65238296D01*
X86222598Y-65189581D01*
X86193099Y-65053976D01*
X86176504Y-64977690D01*
X86176499Y-64977674D01*
X86091142Y-64778346D01*
X86091141Y-64778344D01*
X86091138Y-64778337D01*
X85969589Y-64598750D01*
X85969588Y-64598749D01*
X85969587Y-64598747D01*
X85816252Y-64445412D01*
X85636669Y-64323866D01*
X85636668Y-64323865D01*
X85636663Y-64323862D01*
X85636658Y-64323860D01*
X85636653Y-64323857D01*
X85437325Y-64238500D01*
X85437309Y-64238495D01*
X85225424Y-64192403D01*
X85225423Y-64192402D01*
X85225419Y-64192402D01*
X85176704Y-64189500D01*
X85003296Y-64189500D01*
X84954581Y-64192402D01*
X84954576Y-64192402D01*
X84954575Y-64192403D01*
X84742690Y-64238495D01*
X84742674Y-64238500D01*
X84543346Y-64323857D01*
X84543330Y-64323866D01*
X84363747Y-64445412D01*
X84210412Y-64598747D01*
X84088866Y-64778330D01*
X84088857Y-64778346D01*
X84003500Y-64977674D01*
X84003495Y-64977690D01*
X83957403Y-65189575D01*
X83957402Y-65189581D01*
X83954500Y-65238296D01*
X83684996Y-65238296D01*
X83682098Y-65189636D01*
X83636025Y-64977839D01*
X83636023Y-64977832D01*
X83550699Y-64778583D01*
X83550693Y-64778573D01*
X83429207Y-64599075D01*
X83429199Y-64599066D01*
X83275933Y-64445800D01*
X83275924Y-64445792D01*
X83096426Y-64324306D01*
X83096412Y-64324298D01*
X82897173Y-64238979D01*
X82897161Y-64238975D01*
X82800000Y-64217838D01*
X82800000Y-65710000D01*
X82300000Y-65710000D01*
X82300000Y-64217838D01*
X82202838Y-64238975D01*
X82202826Y-64238979D01*
X82003587Y-64324298D01*
X82003573Y-64324306D01*
X81824075Y-64445792D01*
X81824066Y-64445800D01*
X81670800Y-64599066D01*
X81670792Y-64599075D01*
X81549306Y-64778573D01*
X81549300Y-64778583D01*
X81463976Y-64977832D01*
X81463974Y-64977839D01*
X81417900Y-65189635D01*
X81415000Y-65238336D01*
X81145500Y-65238336D01*
X81145500Y-65238296D01*
X81142598Y-65189581D01*
X81113099Y-65053976D01*
X81096504Y-64977690D01*
X81096499Y-64977674D01*
X81011142Y-64778346D01*
X81011141Y-64778344D01*
X81011138Y-64778337D01*
X80889589Y-64598750D01*
X80889588Y-64598749D01*
X80889587Y-64598747D01*
X80736252Y-64445412D01*
X80556669Y-64323866D01*
X80556668Y-64323865D01*
X80556663Y-64323862D01*
X80556658Y-64323860D01*
X80556653Y-64323857D01*
X80357325Y-64238500D01*
X80357309Y-64238495D01*
X80145424Y-64192403D01*
X80145423Y-64192402D01*
X80145419Y-64192402D01*
X80096704Y-64189500D01*
X79923296Y-64189500D01*
X79874581Y-64192402D01*
X79874576Y-64192402D01*
X79874575Y-64192403D01*
X79662690Y-64238495D01*
X79662674Y-64238500D01*
X79463346Y-64323857D01*
X79463330Y-64323866D01*
X79283747Y-64445412D01*
X79283746Y-64445413D01*
X79182181Y-64546979D01*
X79120858Y-64580464D01*
X79051166Y-64575480D01*
X78995233Y-64533608D01*
X78970816Y-64468144D01*
X78970500Y-64459298D01*
X78970500Y-61243281D01*
X78990185Y-61176242D01*
X79006814Y-61155605D01*
X88187819Y-51974599D01*
X88249142Y-51941115D01*
X88318834Y-51946099D01*
G37*
%TD.AperFunction*%
%TA.AperFunction,Conductor*%
G36*
X52062539Y-42630185D02*
G01*
X52108294Y-42682989D01*
X52119500Y-42734500D01*
X52119500Y-50245597D01*
X52156446Y-50478868D01*
X52229433Y-50703496D01*
X52308944Y-50859544D01*
X52321840Y-50928214D01*
X52295563Y-50992954D01*
X52238457Y-51033211D01*
X52168651Y-51036203D01*
X52134710Y-51022197D01*
X51882493Y-50871024D01*
X51882494Y-50871024D01*
X51882490Y-50871022D01*
X51509400Y-50694564D01*
X51509396Y-50694562D01*
X51509395Y-50694562D01*
X51509379Y-50694555D01*
X51120821Y-50555527D01*
X51120815Y-50555525D01*
X51120811Y-50555524D01*
X50922205Y-50505776D01*
X50720471Y-50455244D01*
X50720466Y-50455243D01*
X50720465Y-50455243D01*
X50619577Y-50440277D01*
X50312227Y-50394686D01*
X50312223Y-50394685D01*
X50312218Y-50394685D01*
X49900000Y-50374434D01*
X49487782Y-50394685D01*
X49487776Y-50394685D01*
X49487772Y-50394686D01*
X49295644Y-50423186D01*
X49226442Y-50413551D01*
X49173434Y-50368032D01*
X49153450Y-50301082D01*
X49172835Y-50233955D01*
X49178495Y-50225801D01*
X49220853Y-50169710D01*
X49285058Y-50084689D01*
X49384229Y-49885528D01*
X49445115Y-49671536D01*
X49465643Y-49450000D01*
X49445115Y-49228464D01*
X49384229Y-49014472D01*
X49352337Y-48950424D01*
X49285061Y-48815316D01*
X49285056Y-48815308D01*
X49150979Y-48637761D01*
X48986562Y-48487876D01*
X48986560Y-48487874D01*
X48797404Y-48370754D01*
X48797398Y-48370752D01*
X48589940Y-48290382D01*
X48371243Y-48249500D01*
X48148757Y-48249500D01*
X47930060Y-48290382D01*
X47798864Y-48341207D01*
X47722601Y-48370752D01*
X47722595Y-48370754D01*
X47533439Y-48487874D01*
X47533437Y-48487876D01*
X47369020Y-48637761D01*
X47352057Y-48660226D01*
X47295948Y-48701862D01*
X47253102Y-48709500D01*
X45843245Y-48709500D01*
X45776206Y-48689815D01*
X45737518Y-48650290D01*
X45632203Y-48478431D01*
X45632202Y-48478429D01*
X45590839Y-48430000D01*
X45470684Y-48289316D01*
X45345653Y-48182530D01*
X45281570Y-48127797D01*
X45281568Y-48127796D01*
X45069523Y-47997855D01*
X44839759Y-47902684D01*
X44597934Y-47844627D01*
X44350000Y-47825114D01*
X44102065Y-47844627D01*
X43860240Y-47902684D01*
X43630476Y-47997855D01*
X43418431Y-48127796D01*
X43418429Y-48127797D01*
X43229316Y-48289316D01*
X43067797Y-48478429D01*
X43067796Y-48478431D01*
X42937855Y-48690476D01*
X42842684Y-48920240D01*
X42784627Y-49162065D01*
X42765114Y-49410000D01*
X42784627Y-49657934D01*
X42842684Y-49899759D01*
X42937855Y-50129523D01*
X43067796Y-50341568D01*
X43067797Y-50341570D01*
X43067800Y-50341573D01*
X43229316Y-50530684D01*
X43418427Y-50692200D01*
X43590290Y-50797517D01*
X43637165Y-50849328D01*
X43649500Y-50903244D01*
X43649500Y-55457006D01*
X43649500Y-55594994D01*
X43649500Y-55594996D01*
X43649499Y-55594996D01*
X43676418Y-55730322D01*
X43676421Y-55730332D01*
X43729222Y-55857807D01*
X43805887Y-55972545D01*
X43805888Y-55972546D01*
X44417945Y-56584602D01*
X44451430Y-56645925D01*
X44446446Y-56715616D01*
X44404575Y-56771550D01*
X44339994Y-56795901D01*
X44238958Y-56803853D01*
X44102069Y-56814627D01*
X44102065Y-56814628D01*
X43860240Y-56872684D01*
X43630476Y-56967855D01*
X43418431Y-57097796D01*
X43418429Y-57097797D01*
X43229316Y-57259316D01*
X43067797Y-57448429D01*
X43067796Y-57448431D01*
X42962482Y-57620290D01*
X42910671Y-57667165D01*
X42856755Y-57679500D01*
X33343245Y-57679500D01*
X33276206Y-57659815D01*
X33237518Y-57620290D01*
X33132203Y-57448431D01*
X33132202Y-57448429D01*
X33072460Y-57378481D01*
X32970684Y-57259316D01*
X32845653Y-57152530D01*
X32781570Y-57097797D01*
X32781568Y-57097796D01*
X32569523Y-56967855D01*
X32339759Y-56872684D01*
X32097934Y-56814627D01*
X31850000Y-56795114D01*
X31602065Y-56814627D01*
X31406073Y-56861681D01*
X31336290Y-56858190D01*
X31289445Y-56828788D01*
X29946819Y-55486162D01*
X29913334Y-55424839D01*
X29910500Y-55398481D01*
X29910500Y-49410000D01*
X30265114Y-49410000D01*
X30284627Y-49657934D01*
X30342684Y-49899759D01*
X30437855Y-50129523D01*
X30567796Y-50341568D01*
X30567797Y-50341570D01*
X30567800Y-50341573D01*
X30729316Y-50530684D01*
X30875706Y-50655713D01*
X30918429Y-50692202D01*
X30918431Y-50692203D01*
X31130476Y-50822144D01*
X31360240Y-50917315D01*
X31360241Y-50917315D01*
X31360243Y-50917316D01*
X31602069Y-50975373D01*
X31850000Y-50994886D01*
X32097931Y-50975373D01*
X32339757Y-50917316D01*
X32569523Y-50822144D01*
X32781573Y-50692200D01*
X32970684Y-50530684D01*
X33132200Y-50341573D01*
X33262144Y-50129523D01*
X33357316Y-49899757D01*
X33415373Y-49657931D01*
X33434886Y-49410000D01*
X33415373Y-49162069D01*
X33357316Y-48920243D01*
X33349632Y-48901691D01*
X33262144Y-48690476D01*
X33132203Y-48478431D01*
X33132202Y-48478429D01*
X33090839Y-48430000D01*
X32970684Y-48289316D01*
X32845653Y-48182530D01*
X32781570Y-48127797D01*
X32781568Y-48127796D01*
X32569523Y-47997855D01*
X32339759Y-47902684D01*
X32097934Y-47844627D01*
X31850000Y-47825114D01*
X31602065Y-47844627D01*
X31360240Y-47902684D01*
X31130476Y-47997855D01*
X30918431Y-48127796D01*
X30918429Y-48127797D01*
X30729316Y-48289316D01*
X30567797Y-48478429D01*
X30567796Y-48478431D01*
X30437855Y-48690476D01*
X30342684Y-48920240D01*
X30284627Y-49162065D01*
X30265114Y-49410000D01*
X29910500Y-49410000D01*
X29910500Y-47391518D01*
X29930185Y-47324479D01*
X29946814Y-47303842D01*
X31289446Y-45961209D01*
X31350767Y-45927726D01*
X31406069Y-45928317D01*
X31602069Y-45975373D01*
X31850000Y-45994886D01*
X32097931Y-45975373D01*
X32339757Y-45917316D01*
X32569523Y-45822144D01*
X32781573Y-45692200D01*
X32970684Y-45530684D01*
X33132200Y-45341573D01*
X33218301Y-45201069D01*
X33237518Y-45169710D01*
X33289329Y-45122835D01*
X33343245Y-45110500D01*
X41841007Y-45110500D01*
X42856755Y-45110500D01*
X42923794Y-45130185D01*
X42962482Y-45169710D01*
X43067796Y-45341568D01*
X43067797Y-45341570D01*
X43067800Y-45341573D01*
X43229316Y-45530684D01*
X43370684Y-45651424D01*
X43418429Y-45692202D01*
X43418431Y-45692203D01*
X43630476Y-45822144D01*
X43860240Y-45917315D01*
X43860241Y-45917315D01*
X43860243Y-45917316D01*
X44102069Y-45975373D01*
X44350000Y-45994886D01*
X44597931Y-45975373D01*
X44839757Y-45917316D01*
X45069523Y-45822144D01*
X45281573Y-45692200D01*
X45470684Y-45530684D01*
X45632200Y-45341573D01*
X45762144Y-45129523D01*
X45857316Y-44899757D01*
X45915373Y-44657931D01*
X45918358Y-44620000D01*
X47083505Y-44620000D01*
X47136239Y-44805349D01*
X47235368Y-45004425D01*
X47369391Y-45181900D01*
X47533738Y-45331721D01*
X47722820Y-45448797D01*
X47722822Y-45448798D01*
X47930195Y-45529135D01*
X48010000Y-45544052D01*
X48510000Y-45544052D01*
X48589804Y-45529135D01*
X48797177Y-45448798D01*
X48797179Y-45448797D01*
X48986261Y-45331721D01*
X49150608Y-45181900D01*
X49284631Y-45004425D01*
X49383760Y-44805349D01*
X49436495Y-44620000D01*
X48510000Y-44620000D01*
X48510000Y-45544052D01*
X48010000Y-45544052D01*
X48010000Y-44620000D01*
X47083505Y-44620000D01*
X45918358Y-44620000D01*
X45920125Y-44597545D01*
X45945008Y-44532258D01*
X45956055Y-44519600D01*
X46151733Y-44323922D01*
X47910000Y-44323922D01*
X47910000Y-44416078D01*
X47933852Y-44505095D01*
X47979930Y-44584905D01*
X48045095Y-44650070D01*
X48124905Y-44696148D01*
X48213922Y-44720000D01*
X48306078Y-44720000D01*
X48395095Y-44696148D01*
X48474905Y-44650070D01*
X48540070Y-44584905D01*
X48586148Y-44505095D01*
X48610000Y-44416078D01*
X48610000Y-44323922D01*
X48586148Y-44234905D01*
X48540070Y-44155095D01*
X48504975Y-44120000D01*
X48510000Y-44120000D01*
X49436495Y-44120000D01*
X49383760Y-43934650D01*
X49284631Y-43735574D01*
X49150608Y-43558099D01*
X48986261Y-43408278D01*
X48797179Y-43291202D01*
X48797177Y-43291201D01*
X48589799Y-43210864D01*
X48510000Y-43195946D01*
X48510000Y-44120000D01*
X48504975Y-44120000D01*
X48474905Y-44089930D01*
X48395095Y-44043852D01*
X48306078Y-44020000D01*
X48213922Y-44020000D01*
X48124905Y-44043852D01*
X48045095Y-44089930D01*
X47979930Y-44155095D01*
X47933852Y-44234905D01*
X47910000Y-44323922D01*
X46151733Y-44323922D01*
X46355655Y-44120000D01*
X47083505Y-44120000D01*
X48010000Y-44120000D01*
X48010000Y-43195946D01*
X47930200Y-43210864D01*
X47722822Y-43291201D01*
X47722820Y-43291202D01*
X47533738Y-43408278D01*
X47369391Y-43558099D01*
X47235368Y-43735574D01*
X47136239Y-43934650D01*
X47083505Y-44120000D01*
X46355655Y-44120000D01*
X47828838Y-42646819D01*
X47890161Y-42613334D01*
X47916519Y-42610500D01*
X51995500Y-42610500D01*
X52062539Y-42630185D01*
G37*
%TD.AperFunction*%
%TD*%
M02*
