<?xml version="1.0" standalone="no"?>
<!DOCTYPE svg PUBLIC "-//W3C//DTD SVG 1.1//EN" "http://www.w3.org/Graphics/SVG/1.1/DTD/svg11.dtd">
<svg width="192mm" height="12mm" viewBox="-96 -12 192 12" xmlns="http://www.w3.org/2000/svg" version="1.1">
<title>OpenSCAD Model</title>
<path d="
M 95.8333,-12 L 91.8333,-12 L 91.8333,-10.25 L 93.0833,-10.25 L 93.0833,-7.75 L 91.8333,-7.75
 L 91.8333,-4 L 88.8333,-4 L 88.8333,-7.75 L 87.5833,-7.75 L 87.5833,-10.25 L 88.8333,-10.25
 L 88.8333,-12 L 84.8333,-12 L 84.8333,-6 L 81.8333,-6 L 81.8333,-12 L 51.5,-12
 L 51.5,-6 L 48.5,-6 L 48.5,-12 L 18.1667,-12 L 18.1667,-6 L 15.1667,-6
 L 15.1667,-12 L -15.1667,-12 L -15.1667,-6 L -18.1667,-6 L -18.1667,-12 L -48.5,-12
 L -48.5,-6 L -51.5,-6 L -51.5,-12 L -81.8333,-12 L -81.8333,-6 L -84.8333,-6
 L -84.8333,-12 L -88.8333,-12 L -88.8333,-10.25 L -87.5833,-10.25 L -87.5833,-7.75 L -88.8333,-7.75
 L -88.8333,-4 L -91.8333,-4 L -91.8333,-7.75 L -93.0833,-7.75 L -93.0833,-10.25 L -91.8333,-10.25
 L -91.8333,-12 L -95.8333,-12 L -95.8333,-0 L 95.8333,-0 z
" stroke="black" fill="lightgray" stroke-width="0.5"/>
</svg>
