<?xml version="1.0" standalone="no"?>
<!DOCTYPE svg PUBLIC "-//W3C//DTD SVG 1.1//EN" "http://www.w3.org/Graphics/SVG/1.1/DTD/svg11.dtd">
<svg width="270mm" height="336mm" viewBox="-135 -168 270 336" xmlns="http://www.w3.org/2000/svg" version="1.1">
<title>OpenSCAD Model</title>
<path d="
M 134.167,-167.5 L -134.167,-167.5 L -134.167,167.5 L 134.167,167.5 z
M -124.167,157.5 L -124.167,-157.5 L 124.167,-157.5 L 124.167,157.5 z
M 123.667,-157 L -123.667,-157 L -123.667,157 L 123.667,157 z
M 119.564,-81.9597 L 119.151,-82.2297 L 118.847,-82.6194 L 118.687,-83.0864 L 118.687,-83.5802 L 118.847,-84.0473
 L 119.151,-84.4369 L 119.564,-84.707 L 120.043,-84.8282 L 120.535,-84.7874 L 120.987,-84.5891 L 121.35,-84.2547
 L 121.585,-83.8204 L 121.667,-83.3333 L 121.585,-82.8463 L 121.35,-82.412 L 120.987,-82.0776 L 120.535,-81.8792
 L 120.043,-81.8385 z
M -120.769,-81.9597 L -121.183,-82.2297 L -121.486,-82.6194 L -121.646,-83.0864 L -121.646,-83.5802 L -121.486,-84.0473
 L -121.183,-84.4369 L -120.769,-84.707 L -120.291,-84.8282 L -119.798,-84.7874 L -119.346,-84.5891 L -118.983,-84.2547
 L -118.748,-83.8204 L -118.667,-83.3333 L -118.748,-82.8463 L -118.983,-82.412 L -119.346,-82.0776 L -119.798,-81.8792
 L -120.291,-81.8385 z
M -120.769,84.707 L -121.183,84.4369 L -121.486,84.0473 L -121.646,83.5802 L -121.646,83.0864 L -121.486,82.6194
 L -121.183,82.2297 L -120.769,81.9597 L -120.291,81.8385 L -119.798,81.8792 L -119.346,82.0776 L -118.983,82.412
 L -118.748,82.8463 L -118.667,83.3333 L -118.748,83.8204 L -118.983,84.2547 L -119.346,84.5891 L -119.798,84.7874
 L -120.291,84.8282 z
M 119.564,84.707 L 119.151,84.4369 L 118.847,84.0473 L 118.687,83.5802 L 118.687,83.0864 L 118.847,82.6194
 L 119.151,82.2297 L 119.564,81.9597 L 120.043,81.8385 L 120.535,81.8792 L 120.987,82.0776 L 121.35,82.412
 L 121.585,82.8463 L 121.667,83.3333 L 121.585,83.8204 L 121.35,84.2547 L 120.987,84.5891 L 120.535,84.7874
 L 120.043,84.8282 z
M -80,147.5 L -80,107.5 L 80,107.5 L 80,147.5 z
" stroke="black" fill="lightgray" stroke-width="0.5"/>
</svg>
