<?xml version="1.0" standalone="no"?>
<!DOCTYPE svg PUBLIC "-//W3C//DTD SVG 1.1//EN" "http://www.w3.org/Graphics/SVG/1.1/DTD/svg11.dtd">
<svg width="270mm" height="336mm" viewBox="-135 -168 270 336" xmlns="http://www.w3.org/2000/svg" version="1.1">
<title>OpenSCAD Model</title>
<path d="
M 114.167,147.5 L 90,147.5 L 90,123.333 L 114.167,123.333 L 114.167,147.5 L 134.167,167.5
 L 134.167,-167.5 L 114.167,-147.5 L 114.167,-123.333 L 90,-123.333 L 90,-147.5 L 114.167,-147.5
 L 134.167,-167.5 L -134.167,-167.5 L -114.167,-147.5 L -90,-147.5 L -90,-123.333 L -114.167,-123.333
 L -114.167,-147.5 L -134.167,-167.5 L -134.167,167.5 L -114.167,147.5 L -114.167,123.333 L -90,123.333
 L -90,147.5 L -114.167,147.5 L -134.167,167.5 L 134.167,167.5 z
M -85,-123.333 L -85,-147.5 L -63.3333,-147.5 L -63.3333,-123.333 z
M 63.3333,-123.333 L 63.3333,-147.5 L 85,-147.5 L 85,-123.333 z
M -58.3333,-123.333 L -58.3333,-147.5 L 58.3333,-147.5 L 58.3333,-123.333 z
M 90,-96.6667 L 90,-118.333 L 114.167,-118.333 L 114.167,-96.6667 z
M -114.167,-96.6667 L -114.167,-118.333 L -90,-118.333 L -90,-96.6667 z
M 63.3333,-96.6667 L 63.3333,-118.333 L 85,-118.333 L 85,-96.6667 z
M -85,-96.6667 L -85,-118.333 L -63.3333,-118.333 L -63.3333,-96.6667 z
M 58.3333,-96.6667 L 50.8333,-96.6667 L 50.8333,-91.6667 L 58.3333,-91.6667 L 58.3333,-84.1667 L 63.3333,-84.1667
 L 63.3333,-91.6667 L 85,-91.6667 L 85,91.6667 L 63.3333,91.6667 L 63.3333,84.1667 L 58.3333,84.1667
 L 58.3333,91.6667 L 50.8333,91.6667 L 50.8333,96.6667 L 58.3333,96.6667 L 58.3333,118.333 L -58.3333,118.333
 L -58.3333,96.6667 L -50.8333,96.6667 L -50.8333,91.6667 L -58.3333,91.6667 L -58.3333,84.1667 L -63.3333,84.1667
 L -63.3333,91.6667 L -85,91.6667 L -85,-91.6667 L -63.3333,-91.6667 L -63.3333,-84.1667 L -58.3333,-84.1667
 L -58.3333,-91.6667 L -50.8333,-91.6667 L -50.8333,-96.6667 L -58.3333,-96.6667 L -58.3333,-118.333 L 58.3333,-118.333
 z
M -114.167,91.6667 L -114.167,-91.6667 L -90,-91.6667 L -90,91.6667 z
M 90,91.6667 L 90,-91.6667 L 114.167,-91.6667 L 114.167,91.6667 z
M 63.3333,118.333 L 63.3333,96.6667 L 85,96.6667 L 85,118.333 z
M -114.167,118.333 L -114.167,96.6667 L -90,96.6667 L -90,118.333 z
M -85,118.333 L -85,96.6667 L -63.3333,96.6667 L -63.3333,118.333 z
M 114.167,118.333 L 90,118.333 L 90,96.6667 L 114.167,96.6667 z
M -58.3333,147.5 L -58.3333,123.333 L 58.3333,123.333 L 58.3333,147.5 z
M -85,147.5 L -85,123.333 L -63.3333,123.333 L -63.3333,147.5 z
M 63.3333,147.5 L 63.3333,123.333 L 85,123.333 L 85,147.5 z
" stroke="black" fill="lightgray" stroke-width="0.5"/>
</svg>
