<?xml version="1.0" standalone="no"?>
<!DOCTYPE svg PUBLIC "-//W3C//DTD SVG 1.1//EN" "http://www.w3.org/Graphics/SVG/1.1/DTD/svg11.dtd">
<svg width="270mm" height="336mm" viewBox="-135 -168 270 336" xmlns="http://www.w3.org/2000/svg" version="1.1">
<title>OpenSCAD Model</title>
<path d="
M 114.167,147.5 L 92.5,147.5 L 92.5,125.833 L 114.167,125.833 L 114.167,147.5 L 134.167,167.5
 L 134.167,-167.5 L 114.167,-147.5 L 114.167,-125.833 L 92.5,-125.833 L 92.5,-147.5 L 114.167,-147.5
 L 134.167,-167.5 L -134.167,-167.5 L -114.167,-147.5 L -92.5,-147.5 L -92.5,-125.833 L -114.167,-125.833
 L -114.167,-147.5 L -134.167,-167.5 L -134.167,167.5 L -114.167,147.5 L -114.167,125.833 L -92.5,125.833
 L -92.5,147.5 L -114.167,147.5 L -134.167,167.5 L 134.167,167.5 z
M -87.5,-125.833 L -87.5,-147.5 L -65.8333,-147.5 L -65.8333,-125.833 z
M 65.8333,-125.833 L 65.8333,-147.5 L 87.5,-147.5 L 87.5,-125.833 z
M -60.8333,-125.833 L -60.8333,-147.5 L 60.8333,-147.5 L 60.8333,-125.833 z
M 92.5,-99.1667 L 92.5,-120.833 L 114.167,-120.833 L 114.167,-99.1667 z
M -114.167,-99.1667 L -114.167,-120.833 L -92.5,-120.833 L -92.5,-99.1667 z
M 65.8333,-99.1667 L 65.8333,-120.833 L 87.5,-120.833 L 87.5,-99.1667 z
M -87.5,-99.1667 L -87.5,-120.833 L -65.8333,-120.833 L -65.8333,-99.1667 z
M 60.8333,-99.1667 L 50.8333,-99.1667 L 50.8333,-94.1667 L 60.8333,-94.1667 L 60.8333,-84.1667 L 65.8333,-84.1667
 L 65.8333,-94.1667 L 87.5,-94.1667 L 87.5,94.1667 L 65.8333,94.1667 L 65.8333,84.1667 L 60.8333,84.1667
 L 60.8333,94.1667 L 50.8333,94.1667 L 50.8333,99.1667 L 60.8333,99.1667 L 60.8333,120.833 L -60.8333,120.833
 L -60.8333,99.1667 L -50.8333,99.1667 L -50.8333,94.1667 L -60.8333,94.1667 L -60.8333,84.1667 L -65.8333,84.1667
 L -65.8333,94.1667 L -87.5,94.1667 L -87.5,-94.1667 L -65.8333,-94.1667 L -65.8333,-84.1667 L -60.8333,-84.1667
 L -60.8333,-94.1667 L -50.8333,-94.1667 L -50.8333,-99.1667 L -60.8333,-99.1667 L -60.8333,-120.833 L 60.8333,-120.833
 z
M -114.167,94.1667 L -114.167,-94.1667 L -92.5,-94.1667 L -92.5,94.1667 z
M 92.5,94.1667 L 92.5,-94.1667 L 114.167,-94.1667 L 114.167,94.1667 z
M 65.8333,120.833 L 65.8333,99.1667 L 87.5,99.1667 L 87.5,120.833 z
M -114.167,120.833 L -114.167,99.1667 L -92.5,99.1667 L -92.5,120.833 z
M -87.5,120.833 L -87.5,99.1667 L -65.8333,99.1667 L -65.8333,120.833 z
M 114.167,120.833 L 92.5,120.833 L 92.5,99.1667 L 114.167,99.1667 z
M -60.8333,147.5 L -60.8333,125.833 L 60.8333,125.833 L 60.8333,147.5 z
M -87.5,147.5 L -87.5,125.833 L -65.8333,125.833 L -65.8333,147.5 z
M 65.8333,147.5 L 65.8333,125.833 L 87.5,125.833 L 87.5,147.5 z
" stroke="black" fill="lightgray" stroke-width="0.5"/>
</svg>
