<?xml version="1.0" standalone="no"?>
<!DOCTYPE svg PUBLIC "-//W3C//DTD SVG 1.1//EN" "http://www.w3.org/Graphics/SVG/1.1/DTD/svg11.dtd">
<svg width="192mm" height="178mm" viewBox="-96 -89 192 178" xmlns="http://www.w3.org/2000/svg" version="1.1">
<title>OpenSCAD Model</title>
<path d="
M 95.8333,-88.3333 L -95.8333,-88.3333 L -95.8333,88.3333 L 95.8333,88.3333 z
M 89.7308,-81.9597 L 89.3174,-82.2297 L 89.0141,-82.6194 L 88.8538,-83.0864 L 88.8538,-83.5802 L 89.0141,-84.0472
 L 89.3174,-84.4369 L 89.7308,-84.707 L 90.2095,-84.8282 L 90.7016,-84.7874 L 91.1537,-84.5891 L 91.517,-84.2546
 L 91.752,-83.8204 L 91.8333,-83.3333 L 91.752,-82.8463 L 91.517,-82.412 L 91.1537,-82.0776 L 90.7016,-81.8792
 L 90.2095,-81.8385 z
M -90.9359,-81.9597 L -91.3492,-82.2297 L -91.6525,-82.6194 L -91.8129,-83.0864 L -91.8129,-83.5802 L -91.6525,-84.0472
 L -91.3492,-84.4369 L -90.9359,-84.707 L -90.4572,-84.8282 L -89.9651,-84.7874 L -89.5129,-84.5891 L -89.1496,-84.2546
 L -88.9146,-83.8204 L -88.8333,-83.3333 L -88.9146,-82.8463 L -89.1496,-82.412 L -89.5129,-82.0776 L -89.9651,-81.8792
 L -90.4572,-81.8385 z
M 5.58333,-63.9167 L 5.58333,-69.4167 L 11.0833,-69.4167 L 11.0833,-63.9167 z
M 72.25,-63.9167 L 72.25,-69.4167 L 77.75,-69.4167 L 77.75,-63.9167 z
M -11.0833,-63.9167 L -11.0833,-69.4167 L -5.58333,-69.4167 L -5.58333,-63.9167 z
M 22.25,-63.9167 L 22.25,-69.4167 L 27.75,-69.4167 L 27.75,-63.9167 z
M -27.75,-63.9167 L -27.75,-69.4167 L -22.25,-69.4167 L -22.25,-63.9167 z
M -77.75,-63.9167 L -77.75,-69.4167 L -72.25,-69.4167 L -72.25,-63.9167 z
M 55.5833,-63.9167 L 55.5833,-69.4167 L 61.0833,-69.4167 L 61.0833,-63.9167 z
M -61.0833,-63.9167 L -61.0833,-69.4167 L -55.5833,-69.4167 L -55.5833,-63.9167 z
M 38.9167,-63.9167 L 38.9167,-69.4167 L 44.4167,-69.4167 L 44.4167,-63.9167 z
M -44.4167,-63.9167 L -44.4167,-69.4167 L -38.9167,-69.4167 L -38.9167,-63.9167 z
M 89.7308,-48.6263 L 89.3174,-48.8964 L 89.0141,-49.2861 L 88.8538,-49.7531 L 88.8538,-50.2469 L 89.0141,-50.7139
 L 89.3174,-51.1036 L 89.7308,-51.3737 L 90.2095,-51.4949 L 90.7016,-51.4541 L 91.1537,-51.2557 L 91.517,-50.9213
 L 91.752,-50.487 L 91.8333,-50 L 91.752,-49.5129 L 91.517,-49.0787 L 91.1537,-48.7442 L 90.7016,-48.5459
 L 90.2095,-48.5051 z
M -90.9359,-48.6263 L -91.3492,-48.8964 L -91.6525,-49.2861 L -91.8129,-49.7531 L -91.8129,-50.2469 L -91.6525,-50.7139
 L -91.3492,-51.1036 L -90.9359,-51.3737 L -90.4572,-51.4949 L -89.9651,-51.4541 L -89.5129,-51.2557 L -89.1496,-50.9213
 L -88.9146,-50.487 L -88.8333,-50 L -88.9146,-49.5129 L -89.1496,-49.0787 L -89.5129,-48.7442 L -89.9651,-48.5459
 L -90.4572,-48.5051 z
M -77.75,-30.5833 L -77.75,-36.0833 L -72.25,-36.0833 L -72.25,-30.5833 z
M 38.9167,-30.5833 L 38.9167,-36.0833 L 44.4167,-36.0833 L 44.4167,-30.5833 z
M 72.25,-30.5833 L 72.25,-36.0833 L 77.75,-36.0833 L 77.75,-30.5833 z
M -61.0833,-30.5833 L -61.0833,-36.0833 L -55.5833,-36.0833 L -55.5833,-30.5833 z
M -44.4167,-30.5833 L -44.4167,-36.0833 L -38.9167,-36.0833 L -38.9167,-30.5833 z
M 22.25,-30.5833 L 22.25,-36.0833 L 27.75,-36.0833 L 27.75,-30.5833 z
M 5.58333,-30.5833 L 5.58333,-36.0833 L 11.0833,-36.0833 L 11.0833,-30.5833 z
M -11.0833,-30.5833 L -11.0833,-36.0833 L -5.58333,-36.0833 L -5.58333,-30.5833 z
M 55.5833,-30.5833 L 55.5833,-36.0833 L 61.0833,-36.0833 L 61.0833,-30.5833 z
M -27.75,-30.5833 L -27.75,-36.0833 L -22.25,-36.0833 L -22.25,-30.5833 z
M -90.9359,-15.293 L -91.3492,-15.5631 L -91.6525,-15.9527 L -91.8129,-16.4198 L -91.8129,-16.9135 L -91.6525,-17.3806
 L -91.3492,-17.7702 L -90.9359,-18.0403 L -90.4572,-18.1615 L -89.9651,-18.1208 L -89.5129,-17.9224 L -89.1496,-17.588
 L -88.9146,-17.1537 L -88.8333,-16.6667 L -88.9146,-16.1796 L -89.1496,-15.7453 L -89.5129,-15.4109 L -89.9651,-15.2126
 L -90.4572,-15.1718 z
M 89.7308,-15.293 L 89.3174,-15.5631 L 89.0141,-15.9527 L 88.8538,-16.4198 L 88.8538,-16.9135 L 89.0141,-17.3806
 L 89.3174,-17.7702 L 89.7308,-18.0403 L 90.2095,-18.1615 L 90.7016,-18.1208 L 91.1537,-17.9224 L 91.517,-17.588
 L 91.752,-17.1537 L 91.8333,-16.6667 L 91.752,-16.1796 L 91.517,-15.7453 L 91.1537,-15.4109 L 90.7016,-15.2126
 L 90.2095,-15.1718 z
M -27.75,2.75 L -27.75,-2.75 L -22.25,-2.75 L -22.25,2.75 z
M -77.75,2.75 L -77.75,-2.75 L -72.25,-2.75 L -72.25,2.75 z
M 22.25,2.75 L 22.25,-2.75 L 27.75,-2.75 L 27.75,2.75 z
M 5.58333,2.75 L 5.58333,-2.75 L 11.0833,-2.75 L 11.0833,2.75 z
M 72.25,2.75 L 72.25,-2.75 L 77.75,-2.75 L 77.75,2.75 z
M -44.4167,2.75 L -44.4167,-2.75 L -38.9167,-2.75 L -38.9167,2.75 z
M -11.0833,2.75 L -11.0833,-2.75 L -5.58333,-2.75 L -5.58333,2.75 z
M 55.5833,2.75 L 55.5833,-2.75 L 61.0833,-2.75 L 61.0833,2.75 z
M 38.9167,2.75 L 38.9167,-2.75 L 44.4167,-2.75 L 44.4167,2.75 z
M -61.0833,2.75 L -61.0833,-2.75 L -55.5833,-2.75 L -55.5833,2.75 z
M 89.7308,18.0403 L 89.3174,17.7702 L 89.0141,17.3806 L 88.8538,16.9135 L 88.8538,16.4198 L 89.0141,15.9527
 L 89.3174,15.5631 L 89.7308,15.293 L 90.2095,15.1718 L 90.7016,15.2126 L 91.1537,15.4109 L 91.517,15.7453
 L 91.752,16.1796 L 91.8333,16.6667 L 91.752,17.1537 L 91.517,17.588 L 91.1537,17.9224 L 90.7016,18.1208
 L 90.2095,18.1615 z
M -90.9359,18.0403 L -91.3492,17.7702 L -91.6525,17.3806 L -91.8129,16.9135 L -91.8129,16.4198 L -91.6525,15.9527
 L -91.3492,15.5631 L -90.9359,15.293 L -90.4572,15.1718 L -89.9651,15.2126 L -89.5129,15.4109 L -89.1496,15.7453
 L -88.9146,16.1796 L -88.8333,16.6667 L -88.9146,17.1537 L -89.1496,17.588 L -89.5129,17.9224 L -89.9651,18.1208
 L -90.4572,18.1615 z
M -77.75,36.0833 L -77.75,30.5833 L -72.25,30.5833 L -72.25,36.0833 z
M -27.75,36.0833 L -27.75,30.5833 L -22.25,30.5833 L -22.25,36.0833 z
M 38.9167,36.0833 L 38.9167,30.5833 L 44.4167,30.5833 L 44.4167,36.0833 z
M 55.5833,36.0833 L 55.5833,30.5833 L 61.0833,30.5833 L 61.0833,36.0833 z
M 22.25,36.0833 L 22.25,30.5833 L 27.75,30.5833 L 27.75,36.0833 z
M -61.0833,36.0833 L -61.0833,30.5833 L -55.5833,30.5833 L -55.5833,36.0833 z
M -44.4167,36.0833 L -44.4167,30.5833 L -38.9167,30.5833 L -38.9167,36.0833 z
M 72.25,36.0833 L 72.25,30.5833 L 77.75,30.5833 L 77.75,36.0833 z
M -11.0833,36.0833 L -11.0833,30.5833 L -5.58333,30.5833 L -5.58333,36.0833 z
M 5.58333,36.0833 L 5.58333,30.5833 L 11.0833,30.5833 L 11.0833,36.0833 z
M 89.7308,51.3737 L 89.3174,51.1036 L 89.0141,50.7139 L 88.8538,50.2469 L 88.8538,49.7531 L 89.0141,49.2861
 L 89.3174,48.8964 L 89.7308,48.6263 L 90.2095,48.5051 L 90.7016,48.5459 L 91.1537,48.7442 L 91.517,49.0787
 L 91.752,49.5129 L 91.8333,50 L 91.752,50.487 L 91.517,50.9213 L 91.1537,51.2557 L 90.7016,51.4541
 L 90.2095,51.4949 z
M -90.9359,51.3737 L -91.3492,51.1036 L -91.6525,50.7139 L -91.8129,50.2469 L -91.8129,49.7531 L -91.6525,49.2861
 L -91.3492,48.8964 L -90.9359,48.6263 L -90.4572,48.5051 L -89.9651,48.5459 L -89.5129,48.7442 L -89.1496,49.0787
 L -88.9146,49.5129 L -88.8333,50 L -88.9146,50.487 L -89.1496,50.9213 L -89.5129,51.2557 L -89.9651,51.4541
 L -90.4572,51.4949 z
M 5.58333,69.4167 L 5.58333,63.9167 L 11.0833,63.9167 L 11.0833,69.4167 z
M -27.75,69.4167 L -27.75,63.9167 L -22.25,63.9167 L -22.25,69.4167 z
M -11.0833,69.4167 L -11.0833,63.9167 L -5.58333,63.9167 L -5.58333,69.4167 z
M 22.25,69.4167 L 22.25,63.9167 L 27.75,63.9167 L 27.75,69.4167 z
M 55.5833,69.4167 L 55.5833,63.9167 L 61.0833,63.9167 L 61.0833,69.4167 z
M -44.4167,69.4167 L -44.4167,63.9167 L -38.9167,63.9167 L -38.9167,69.4167 z
M 72.25,69.4167 L 72.25,63.9167 L 77.75,63.9167 L 77.75,69.4167 z
M -61.0833,69.4167 L -61.0833,63.9167 L -55.5833,63.9167 L -55.5833,69.4167 z
M 38.9167,69.4167 L 38.9167,63.9167 L 44.4167,63.9167 L 44.4167,69.4167 z
M -77.75,69.4167 L -77.75,63.9167 L -72.25,63.9167 L -72.25,69.4167 z
M -90.9359,84.707 L -91.3492,84.4369 L -91.6525,84.0472 L -91.8129,83.5802 L -91.8129,83.0864 L -91.6525,82.6194
 L -91.3492,82.2297 L -90.9359,81.9597 L -90.4572,81.8385 L -89.9651,81.8792 L -89.5129,82.0776 L -89.1496,82.412
 L -88.9146,82.8463 L -88.8333,83.3333 L -88.9146,83.8204 L -89.1496,84.2546 L -89.5129,84.5891 L -89.9651,84.7874
 L -90.4572,84.8282 z
M 89.7308,84.707 L 89.3174,84.4369 L 89.0141,84.0472 L 88.8538,83.5802 L 88.8538,83.0864 L 89.0141,82.6194
 L 89.3174,82.2297 L 89.7308,81.9597 L 90.2095,81.8385 L 90.7016,81.8792 L 91.1537,82.0776 L 91.517,82.412
 L 91.752,82.8463 L 91.8333,83.3333 L 91.752,83.8204 L 91.517,84.2546 L 91.1537,84.5891 L 90.7016,84.7874
 L 90.2095,84.8282 z
" stroke="black" fill="lightgray" stroke-width="0.5"/>
</svg>
