<?xml version="1.0" standalone="no"?>
<!DOCTYPE svg PUBLIC "-//W3C//DTD SVG 1.1//EN" "http://www.w3.org/Graphics/SVG/1.1/DTD/svg11.dtd">
<svg width="248mm" height="325mm" viewBox="-124 -157 248 325" xmlns="http://www.w3.org/2000/svg" version="1.1">
<title>OpenSCAD Model</title>
<path d="
M 3,167.5 L 3,157 L 123.667,157 L 123.667,-157 L -123.667,-157 L -123.667,157
 L -3,157 L -3,167.5 z
M -82.5129,-154.756 L -82.1496,-154.421 L -81.9146,-153.987 L -81.8333,-153.5 L -81.9146,-153.013 L -82.1496,-152.579
 L -82.5129,-152.244 L -82.9651,-152.046 L -83.4572,-152.005 L -83.9359,-152.126 L -84.3493,-152.396 L -84.6525,-152.786
 L -84.8129,-153.253 L -84.8129,-153.747 L -84.6525,-154.214 L -84.3493,-154.604 L -83.9359,-154.874 L -83.4572,-154.995
 L -82.9651,-154.954 z
M 82.7308,-152.126 L 82.3174,-152.396 L 82.0141,-152.786 L 81.8538,-153.253 L 81.8538,-153.747 L 82.0141,-154.214
 L 82.3174,-154.604 L 82.7308,-154.874 L 83.2095,-154.995 L 83.7016,-154.954 L 84.1537,-154.756 L 84.517,-154.421
 L 84.7521,-153.987 L 84.8333,-153.5 L 84.7521,-153.013 L 84.517,-152.579 L 84.1537,-152.244 L 83.7016,-152.046
 L 83.2095,-152.005 z
M -120.769,-81.9597 L -121.183,-82.2297 L -121.486,-82.6194 L -121.646,-83.0864 L -121.646,-83.5802 L -121.486,-84.0473
 L -121.183,-84.4369 L -120.769,-84.707 L -120.291,-84.8282 L -119.798,-84.7874 L -119.346,-84.5891 L -118.983,-84.2547
 L -118.748,-83.8204 L -118.667,-83.3333 L -118.748,-82.8463 L -118.983,-82.412 L -119.346,-82.0776 L -119.798,-81.8792
 L -120.291,-81.8385 z
M 119.564,-81.9597 L 119.151,-82.2297 L 118.847,-82.6194 L 118.687,-83.0864 L 118.687,-83.5802 L 118.847,-84.0473
 L 119.151,-84.4369 L 119.564,-84.707 L 120.043,-84.8282 L 120.535,-84.7874 L 120.987,-84.5891 L 121.35,-84.2547
 L 121.585,-83.8204 L 121.667,-83.3333 L 121.585,-82.8463 L 121.35,-82.412 L 120.987,-82.0776 L 120.535,-81.8792
 L 120.043,-81.8385 z
M 119.564,84.707 L 119.151,84.4369 L 118.847,84.0473 L 118.687,83.5802 L 118.687,83.0864 L 118.847,82.6194
 L 119.151,82.2297 L 119.564,81.9597 L 120.043,81.8385 L 120.535,81.8792 L 120.987,82.0776 L 121.35,82.412
 L 121.585,82.8463 L 121.667,83.3333 L 121.585,83.8204 L 121.35,84.2547 L 120.987,84.5891 L 120.535,84.7874
 L 120.043,84.8282 z
M -120.769,84.707 L -121.183,84.4369 L -121.486,84.0473 L -121.646,83.5802 L -121.646,83.0864 L -121.486,82.6194
 L -121.183,82.2297 L -120.769,81.9597 L -120.291,81.8385 L -119.798,81.8792 L -119.346,82.0776 L -118.983,82.412
 L -118.748,82.8463 L -118.667,83.3333 L -118.748,83.8204 L -118.983,84.2547 L -119.346,84.5891 L -119.798,84.7874
 L -120.291,84.8282 z
M 52.7067,147.5 L 52.4412,147.486 L 52.1786,147.444 L 51.9218,147.376 L 51.6736,147.28 L 51.4367,147.16
 L 51.2137,147.015 L 51.0071,146.848 L 50.8191,146.66 L 50.6518,146.453 L 50.507,146.23 L 50.3863,145.993
 L 50.291,145.745 L 50.2222,145.488 L 50.1806,145.225 L 50.1667,144.96 L 50.1667,106.04 L 50.1806,105.774
 L 50.2222,105.512 L 50.291,105.255 L 50.3863,105.007 L 50.507,104.77 L 50.6518,104.547 L 50.8191,104.34
 L 51.0071,104.152 L 51.2137,103.985 L 51.4367,103.84 L 51.6736,103.72 L 51.9218,103.624 L 52.1786,103.555
 L 52.4412,103.514 L 52.7067,103.5 L 111.627,103.5 L 111.892,103.514 L 112.155,103.555 L 112.412,103.624
 L 112.66,103.72 L 112.897,103.84 L 113.12,103.985 L 113.326,104.152 L 113.514,104.34 L 113.682,104.547
 L 113.826,104.77 L 113.947,105.007 L 114.042,105.255 L 114.111,105.512 L 114.153,105.774 L 114.167,106.04
 L 114.167,144.96 L 114.153,145.225 L 114.111,145.488 L 114.042,145.745 L 113.947,145.993 L 113.826,146.23
 L 113.682,146.453 L 113.514,146.66 L 113.326,146.848 L 113.12,147.015 L 112.897,147.16 L 112.66,147.28
 L 112.412,147.376 L 112.155,147.444 L 111.892,147.486 L 111.627,147.5 z
M 82.7308,154.874 L 82.3174,154.604 L 82.0141,154.214 L 81.8538,153.747 L 81.8538,153.253 L 82.0141,152.786
 L 82.3174,152.396 L 82.7308,152.126 L 83.2095,152.005 L 83.7016,152.046 L 84.1537,152.244 L 84.517,152.579
 L 84.7521,153.013 L 84.8333,153.5 L 84.7521,153.987 L 84.517,154.421 L 84.1537,154.756 L 83.7016,154.954
 L 83.2095,154.995 z
M -83.9359,154.874 L -84.3493,154.604 L -84.6525,154.214 L -84.8129,153.747 L -84.8129,153.253 L -84.6525,152.786
 L -84.3493,152.396 L -83.9359,152.126 L -83.4572,152.005 L -82.9651,152.046 L -82.5129,152.244 L -82.1496,152.579
 L -81.9146,153.013 L -81.8333,153.5 L -81.9146,153.987 L -82.1496,154.421 L -82.5129,154.756 L -82.9651,154.954
 L -83.4572,154.995 z
" stroke="black" fill="lightgray" stroke-width="0.5"/>
</svg>
