<?xml version="1.0" standalone="no"?>
<!DOCTYPE svg PUBLIC "-//W3C//DTD SVG 1.1//EN" "http://www.w3.org/Graphics/SVG/1.1/DTD/svg11.dtd">
<svg width="270mm" height="336mm" viewBox="-135 -168 270 336" xmlns="http://www.w3.org/2000/svg" version="1.1">
<title>OpenSCAD Model</title>
<path d="
M 134.167,-167.5 L -134.167,-167.5 L -114.167,-147.5 L 114.167,-147.5 z
M 81.7833,-150.815 L 80.2333,-153.5 L 81.7833,-156.185 L 84.8833,-156.185 L 86.4333,-153.5 L 84.8833,-150.815
 z
M -84.8833,-150.815 L -86.4333,-153.5 L -84.8833,-156.185 L -81.7833,-156.185 L -80.2333,-153.5 L -81.7833,-150.815
 z
M -114.167,147.5 L -114.167,-147.5 L -134.167,-167.5 L -134.167,167.5 z
M -121.717,-80.6487 L -123.267,-83.3333 L -121.717,-86.018 L -118.617,-86.018 L -117.067,-83.3333 L -118.617,-80.6487
 z
M -121.717,86.018 L -123.267,83.3333 L -121.717,80.6487 L -118.617,80.6487 L -117.067,83.3333 L -118.617,86.018
 z
M 134.167,-167.5 L 114.167,-147.5 L 114.167,147.5 L 134.167,167.5 z
M 118.617,-80.6487 L 117.067,-83.3333 L 118.617,-86.018 L 121.717,-86.018 L 123.267,-83.3333 L 121.717,-80.6487
 z
M 118.617,86.018 L 117.067,83.3333 L 118.617,80.6487 L 121.717,80.6487 L 123.267,83.3333 L 121.717,86.018
 z
M -3,147.5 L -114.167,147.5 L -134.167,167.5 L -3,167.5 z
M -84.8833,156.185 L -86.4333,153.5 L -84.8833,150.815 L -81.7833,150.815 L -80.2333,153.5 L -81.7833,156.185
 z
M 114.167,147.5 L 3,147.5 L 3,167.5 L 134.167,167.5 z
M 81.7833,156.185 L 80.2333,153.5 L 81.7833,150.815 L 84.8833,150.815 L 86.4333,153.5 L 84.8833,156.185
 z
" stroke="black" fill="lightgray" stroke-width="0.5"/>
</svg>
