<?xml version="1.0" standalone="no"?>
<!DOCTYPE svg PUBLIC "-//W3C//DTD SVG 1.1//EN" "http://www.w3.org/Graphics/SVG/1.1/DTD/svg11.dtd">
<svg width="270mm" height="336mm" viewBox="-135 -168 270 336" xmlns="http://www.w3.org/2000/svg" version="1.1">
<title>OpenSCAD Model</title>
<path d="
M 134.167,-167.5 L -134.167,-167.5 L -114.167,-147.5 L 114.167,-147.5 z
M -83.9359,-152.126 L -84.3493,-152.396 L -84.6525,-152.786 L -84.8129,-153.253 L -84.8129,-153.747 L -84.6525,-154.214
 L -84.3493,-154.604 L -83.9359,-154.874 L -83.4572,-154.995 L -82.9651,-154.954 L -82.5129,-154.756 L -82.1496,-154.421
 L -81.9146,-153.987 L -81.8333,-153.5 L -81.9146,-153.013 L -82.1496,-152.579 L -82.5129,-152.244 L -82.9651,-152.046
 L -83.4572,-152.005 z
M 82.7308,-152.126 L 82.3174,-152.396 L 82.0141,-152.786 L 81.8538,-153.253 L 81.8538,-153.747 L 82.0141,-154.214
 L 82.3174,-154.604 L 82.7308,-154.874 L 83.2095,-154.995 L 83.7016,-154.954 L 84.1537,-154.756 L 84.517,-154.421
 L 84.7521,-153.987 L 84.8333,-153.5 L 84.7521,-153.013 L 84.517,-152.579 L 84.1537,-152.244 L 83.7016,-152.046
 L 83.2095,-152.005 z
M -114.167,147.5 L -114.167,-147.5 L -134.167,-167.5 L -134.167,167.5 z
M -120.769,-81.9597 L -121.183,-82.2297 L -121.486,-82.6194 L -121.646,-83.0864 L -121.646,-83.5802 L -121.486,-84.0473
 L -121.183,-84.4369 L -120.769,-84.707 L -120.291,-84.8282 L -119.798,-84.7874 L -119.346,-84.5891 L -118.983,-84.2547
 L -118.748,-83.8204 L -118.667,-83.3333 L -118.748,-82.8463 L -118.983,-82.412 L -119.346,-82.0776 L -119.798,-81.8792
 L -120.291,-81.8385 z
M -120.769,84.707 L -121.183,84.4369 L -121.486,84.0473 L -121.646,83.5802 L -121.646,83.0864 L -121.486,82.6194
 L -121.183,82.2297 L -120.769,81.9597 L -120.291,81.8385 L -119.798,81.8792 L -119.346,82.0776 L -118.983,82.412
 L -118.748,82.8463 L -118.667,83.3333 L -118.748,83.8204 L -118.983,84.2547 L -119.346,84.5891 L -119.798,84.7874
 L -120.291,84.8282 z
M 134.167,-167.5 L 114.167,-147.5 L 114.167,147.5 L 134.167,167.5 z
M 119.564,-81.9597 L 119.151,-82.2297 L 118.847,-82.6194 L 118.687,-83.0864 L 118.687,-83.5802 L 118.847,-84.0473
 L 119.151,-84.4369 L 119.564,-84.707 L 120.043,-84.8282 L 120.535,-84.7874 L 120.987,-84.5891 L 121.35,-84.2547
 L 121.585,-83.8204 L 121.667,-83.3333 L 121.585,-82.8463 L 121.35,-82.412 L 120.987,-82.0776 L 120.535,-81.8792
 L 120.043,-81.8385 z
M 119.564,84.707 L 119.151,84.4369 L 118.847,84.0473 L 118.687,83.5802 L 118.687,83.0864 L 118.847,82.6194
 L 119.151,82.2297 L 119.564,81.9597 L 120.043,81.8385 L 120.535,81.8792 L 120.987,82.0776 L 121.35,82.412
 L 121.585,82.8463 L 121.667,83.3333 L 121.585,83.8204 L 121.35,84.2547 L 120.987,84.5891 L 120.535,84.7874
 L 120.043,84.8282 z
M 114.167,147.5 L -114.167,147.5 L -134.167,167.5 L 134.167,167.5 z
M -83.9359,154.874 L -84.3493,154.604 L -84.6525,154.214 L -84.8129,153.747 L -84.8129,153.253 L -84.6525,152.786
 L -84.3493,152.396 L -83.9359,152.126 L -83.4572,152.005 L -82.9651,152.046 L -82.5129,152.244 L -82.1496,152.579
 L -81.9146,153.013 L -81.8333,153.5 L -81.9146,153.987 L -82.1496,154.421 L -82.5129,154.756 L -82.9651,154.954
 L -83.4572,154.995 z
M 82.7308,154.874 L 82.3174,154.604 L 82.0141,154.214 L 81.8538,153.747 L 81.8538,153.253 L 82.0141,152.786
 L 82.3174,152.396 L 82.7308,152.126 L 83.2095,152.005 L 83.7016,152.046 L 84.1537,152.244 L 84.517,152.579
 L 84.7521,153.013 L 84.8333,153.5 L 84.7521,153.987 L 84.517,154.421 L 84.1537,154.756 L 83.7016,154.954
 L 83.2095,154.995 z
" stroke="black" fill="lightgray" stroke-width="0.5"/>
</svg>
