<?xml version="1.0" standalone="no"?>
<!DOCTYPE svg PUBLIC "-//W3C//DTD SVG 1.1//EN" "http://www.w3.org/Graphics/SVG/1.1/DTD/svg11.dtd">
<svg width="65mm" height="45mm" viewBox="50 103 65 45" xmlns="http://www.w3.org/2000/svg" version="1.1">
<title>OpenSCAD Model</title>
<path d="
M 111.892,147.486 L 112.155,147.445 L 112.412,147.376 L 112.66,147.28 L 112.897,147.16 L 113.12,147.015
 L 113.326,146.848 L 113.514,146.66 L 113.682,146.453 L 113.826,146.23 L 113.947,145.993 L 114.042,145.745
 L 114.111,145.488 L 114.153,145.226 L 114.167,144.96 L 114.167,106.04 L 114.153,105.775 L 114.111,105.512
 L 114.042,105.255 L 113.947,105.007 L 113.826,104.77 L 113.682,104.547 L 113.514,104.34 L 113.326,104.152
 L 113.12,103.985 L 112.897,103.84 L 112.66,103.72 L 112.412,103.624 L 112.155,103.556 L 111.892,103.514
 L 111.627,103.5 L 52.7066,103.5 L 52.4411,103.514 L 52.1786,103.556 L 51.9218,103.624 L 51.6735,103.72
 L 51.4366,103.84 L 51.2137,103.985 L 51.0071,104.152 L 50.8191,104.34 L 50.6517,104.547 L 50.5069,104.77
 L 50.3862,105.007 L 50.291,105.255 L 50.2222,105.512 L 50.1806,105.775 L 50.1667,106.04 L 50.1667,144.96
 L 50.1806,145.226 L 50.2222,145.488 L 50.291,145.745 L 50.3862,145.993 L 50.5069,146.23 L 50.6517,146.453
 L 50.8191,146.66 L 51.0071,146.848 L 51.2137,147.015 L 51.4366,147.16 L 51.6735,147.28 L 51.9218,147.376
 L 52.1786,147.445 L 52.4411,147.486 L 52.7066,147.5 L 111.627,147.5 z
M 75.6167,116.185 L 74.0667,113.5 L 75.6167,110.815 L 78.7166,110.815 L 80.2666,113.5 L 78.7166,116.185
 z
M 87.6167,136.185 L 86.0667,133.5 L 87.6167,130.815 L 90.7166,130.815 L 92.2666,133.5 L 90.7166,136.185
 z
" stroke="black" fill="lightgray" stroke-width="0.5"/>
</svg>
